P3
50 40
255
44
44
44
156
156
156
0
0
0
27
27
27
1
1
1
186
186
186
94
94
94
76
76
76
243
243
243
8
8
8
46
46
46
64
64
64
69
69
69
212
212
212
134
134
134
185
185
185
215
215
215
195
195
195
3
3
3
219
219
219
169
169
169
17
17
17
35
35
35
206
206
206
133
133
133
15
15
15
58
58
58
120
120
120
50
50
50
136
136
136
207
207
207
252
252
252
97
97
97
81
81
81
137
137
137
81
81
81
22
22
22
199
199
199
0
0
0
22
22
22
73
73
73
120
120
120
41
41
41
125
125
125
14
14
14
60
60
60
155
155
155
7
7
7
235
235
235
245
245
245
111
111
111
154
154
154
181
181
181
7
7
7
234
234
234
142
142
142
40
40
40
72
72
72
186
186
186
82
82
82
93
93
93
167
167
167
23
23
23
158
158
158
32
32
32
75
75
75
121
121
121
161
161
161
196
196
196
220
220
220
183
183
183
67
67
67
155
155
155
123
123
123
96
96
96
233
233
233
243
243
243
119
119
119
38
38
38
240
240
240
145
145
145
53
53
53
139
139
139
147
147
147
74
74
74
87
87
87
152
152
152
21
21
21
124
124
124
10
10
10
87
87
87
214
214
214
63
63
63
32
32
32
80
80
80
172
172
172
104
104
104
69
69
69
215
215
215
36
36
36
17
17
17
221
221
221
63
63
63
252
252
252
71
71
71
182
182
182
230
230
230
1
1
1
10
10
10
61
61
61
151
151
151
209
209
209
252
252
252
7
7
7
237
237
237
26
26
26
237
237
237
23
23
23
186
186
186
76
76
76
115
115
115
158
158
158
221
221
221
71
71
71
219
219
219
142
142
142
190
190
190
61
61
61
55
55
55
45
45
45
216
216
216
106
106
106
60
60
60
247
247
247
101
101
101
13
13
13
193
193
193
8
8
8
153
153
153
47
47
47
23
23
23
65
65
65
129
129
129
40
40
40
236
236
236
18
18
18
105
105
105
130
130
130
153
153
153
107
107
107
80
80
80
127
127
127
153
153
153
103
103
103
200
200
200
147
147
147
239
239
239
196
196
196
1
1
1
202
202
202
109
109
109
217
217
217
76
76
76
77
77
77
156
156
156
73
73
73
182
182
182
139
139
139
44
44
44
155
155
155
136
136
136
113
113
113
94
94
94
247
247
247
86
86
86
213
213
213
239
239
239
4
4
4
228
228
228
247
247
247
168
168
168
32
32
32
159
159
159
177
177
177
229
229
229
77
77
77
226
226
226
55
55
55
212
212
212
112
112
112
211
211
211
23
23
23
31
31
31
58
58
58
19
19
19
52
52
52
200
200
200
113
113
113
251
251
251
143
143
143
177
177
177
67
67
67
141
141
141
189
189
189
70
70
70
108
108
108
22
22
22
204
204
204
48
48
48
181
181
181
179
179
179
131
131
131
239
239
239
252
252
252
140
140
140
8
8
8
68
68
68
117
117
117
117
117
117
67
67
67
145
145
145
205
205
205
97
97
97
154
154
154
91
91
91
235
235
235
215
215
215
17
17
17
17
17
17
223
223
223
136
136
136
135
135
135
109
109
109
102
102
102
105
105
105
100
100
100
49
49
49
37
37
37
121
121
121
223
223
223
107
107
107
115
115
115
0
0
0
181
181
181
153
153
153
229
229
229
126
126
126
246
246
246
91
91
91
218
218
218
130
130
130
238
238
238
186
186
186
226
226
226
49
49
49
87
87
87
41
41
41
15
15
15
160
160
160
164
164
164
156
156
156
61
61
61
18
18
18
101
101
101
237
237
237
96
96
96
191
191
191
70
70
70
205
205
205
125
125
125
94
94
94
178
178
178
42
42
42
14
14
14
153
153
153
29
29
29
239
239
239
99
99
99
205
205
205
187
187
187
110
110
110
96
96
96
195
195
195
231
231
231
154
154
154
197
197
197
40
40
40
125
125
125
108
108
108
64
64
64
131
131
131
220
220
220
30
30
30
145
145
145
237
237
237
217
217
217
9
9
9
128
128
128
198
198
198
224
224
224
135
135
135
69
69
69
159
159
159
160
160
160
151
151
151
200
200
200
208
208
208
103
103
103
81
81
81
101
101
101
21
21
21
143
143
143
105
105
105
147
147
147
113
113
113
122
122
122
138
138
138
229
229
229
87
87
87
235
235
235
112
112
112
30
30
30
198
198
198
84
84
84
112
112
112
16
16
16
50
50
50
201
201
201
50
50
50
180
180
180
121
121
121
152
152
152
220
220
220
16
16
16
184
184
184
252
252
252
236
236
236
197
197
197
30
30
30
241
241
241
134
134
134
253
253
253
151
151
151
174
174
174
108
108
108
252
252
252
19
19
19
52
52
52
111
111
111
10
10
10
192
192
192
108
108
108
135
135
135
4
4
4
210
210
210
139
139
139
148
148
148
176
176
176
142
142
142
253
253
253
60
60
60
94
94
94
228
228
228
141
141
141
31
31
31
36
36
36
167
167
167
227
227
227
30
30
30
45
45
45
77
77
77
9
9
9
71
71
71
113
113
113
65
65
65
5
5
5
180
180
180
133
133
133
246
246
246
19
19
19
10
10
10
75
75
75
15
15
15
251
251
251
236
236
236
186
186
186
68
68
68
119
119
119
149
149
149
127
127
127
95
95
95
69
69
69
92
92
92
185
185
185
123
123
123
58
58
58
96
96
96
152
152
152
209
209
209
19
19
19
148
148
148
163
163
163
91
91
91
146
146
146
238
238
238
170
170
170
208
208
208
34
34
34
246
246
246
182
182
182
244
244
244
140
140
140
120
120
120
250
250
250
249
249
249
180
180
180
210
210
210
11
11
11
89
89
89
3
3
3
102
102
102
169
169
169
62
62
62
172
172
172
230
230
230
233
233
233
55
55
55
168
168
168
95
95
95
120
120
120
247
247
247
175
175
175
159
159
159
183
183
183
230
230
230
110
110
110
218
218
218
124
124
124
179
179
179
57
57
57
169
169
169
42
42
42
191
191
191
126
126
126
68
68
68
98
98
98
145
145
145
44
44
44
30
30
30
155
155
155
105
105
105
64
64
64
150
150
150
173
173
173
253
253
253
110
110
110
26
26
26
240
240
240
79
79
79
26
26
26
199
199
199
207
207
207
199
199
199
96
96
96
17
17
17
7
7
7
101
101
101
125
125
125
239
239
239
173
173
173
224
224
224
35
35
35
84
84
84
160
160
160
133
133
133
172
172
172
33
33
33
56
56
56
134
134
134
254
254
254
129
129
129
251
251
251
9
9
9
76
76
76
215
215
215
167
167
167
161
161
161
0
0
0
124
124
124
175
175
175
136
136
136
16
16
16
153
153
153
15
15
15
74
74
74
244
244
244
220
220
220
26
26
26
42
42
42
136
136
136
124
124
124
136
136
136
79
79
79
145
145
145
53
53
53
12
12
12
154
154
154
83
83
83
116
116
116
79
79
79
61
61
61
216
216
216
193
193
193
62
62
62
118
118
118
192
192
192
178
178
178
113
113
113
213
213
213
120
120
120
222
222
222
246
246
246
68
68
68
76
76
76
96
96
96
160
160
160
105
105
105
89
89
89
157
157
157
128
128
128
71
71
71
14
14
14
25
25
25
98
98
98
177
177
177
137
137
137
10
10
10
125
125
125
116
116
116
18
18
18
2
2
2
32
32
32
100
100
100
92
92
92
78
78
78
144
144
144
22
22
22
126
126
126
247
247
247
229
229
229
43
43
43
72
72
72
74
74
74
215
215
215
105
105
105
157
157
157
21
21
21
141
141
141
165
165
165
54
54
54
139
139
139
80
80
80
231
231
231
47
47
47
22
22
22
201
201
201
68
68
68
121
121
121
253
253
253
11
11
11
140
140
140
214
214
214
197
197
197
81
81
81
0
0
0
141
141
141
104
104
104
210
210
210
199
199
199
138
138
138
52
52
52
102
102
102
103
103
103
188
188
188
144
144
144
192
192
192
130
130
130
220
220
220
228
228
228
251
251
251
143
143
143
104
104
104
90
90
90
52
52
52
96
96
96
147
147
147
195
195
195
120
120
120
30
30
30
233
233
233
59
59
59
69
69
69
225
225
225
3
3
3
251
251
251
72
72
72
3
3
3
20
20
20
249
249
249
172
172
172
113
113
113
19
19
19
167
167
167
51
51
51
179
179
179
159
159
159
40
40
40
9
9
9
96
96
96
140
140
140
165
165
165
172
172
172
27
27
27
237
237
237
230
230
230
146
146
146
184
184
184
61
61
61
113
113
113
55
55
55
199
199
199
79
79
79
233
233
233
235
235
235
62
62
62
99
99
99
125
125
125
20
20
20
138
138
138
126
126
126
136
136
136
151
151
151
199
199
199
100
100
100
205
205
205
72
72
72
216
216
216
223
223
223
98
98
98
3
3
3
89
89
89
47
47
47
102
102
102
246
246
246
100
100
100
94
94
94
76
76
76
171
171
171
71
71
71
164
164
164
113
113
113
98
98
98
91
91
91
151
151
151
65
65
65
200
200
200
47
47
47
202
202
202
199
199
199
50
50
50
33
33
33
212
212
212
49
49
49
203
203
203
116
116
116
217
217
217
150
150
150
74
74
74
132
132
132
12
12
12
91
91
91
85
85
85
120
120
120
188
188
188
212
212
212
246
246
246
26
26
26
77
77
77
132
132
132
68
68
68
155
155
155
69
69
69
162
162
162
6
6
6
144
144
144
63
63
63
171
171
171
34
34
34
209
209
209
248
248
248
139
139
139
5
5
5
77
77
77
221
221
221
87
87
87
70
70
70
88
88
88
47
47
47
217
217
217
102
102
102
233
233
233
115
115
115
187
187
187
247
247
247
109
109
109
150
150
150
173
173
173
103
103
103
49
49
49
54
54
54
108
108
108
90
90
90
194
194
194
24
24
24
228
228
228
169
169
169
202
202
202
17
17
17
187
187
187
160
160
160
169
169
169
146
146
146
112
112
112
82
82
82
25
25
25
177
177
177
102
102
102
191
191
191
138
138
138
93
93
93
140
140
140
134
134
134
131
131
131
5
5
5
225
225
225
113
113
113
64
64
64
104
104
104
33
33
33
6
6
6
76
76
76
36
36
36
111
111
111
125
125
125
73
73
73
127
127
127
27
27
27
233
233
233
5
5
5
134
134
134
14
14
14
138
138
138
154
154
154
70
70
70
78
78
78
232
232
232
51
51
51
248
248
248
206
206
206
22
22
22
227
227
227
236
236
236
169
169
169
146
146
146
2
2
2
24
24
24
62
62
62
54
54
54
48
48
48
149
149
149
227
227
227
239
239
239
109
109
109
70
70
70
125
125
125
138
138
138
214
214
214
104
104
104
30
30
30
52
52
52
101
101
101
212
212
212
19
19
19
31
31
31
107
107
107
156
156
156
126
126
126
227
227
227
8
8
8
225
225
225
12
12
12
11
11
11
11
11
11
151
151
151
82
82
82
106
106
106
87
87
87
58
58
58
211
211
211
74
74
74
35
35
35
236
236
236
88
88
88
1
1
1
220
220
220
76
76
76
120
120
120
152
152
152
215
215
215
58
58
58
27
27
27
52
52
52
221
221
221
76
76
76
126
126
126
7
7
7
182
182
182
47
47
47
53
53
53
139
139
139
112
112
112
49
49
49
170
170
170
209
209
209
160
160
160
57
57
57
19
19
19
147
147
147
106
106
106
239
239
239
235
235
235
220
220
220
115
115
115
205
205
205
101
101
101
116
116
116
162
162
162
221
221
221
219
219
219
224
224
224
17
17
17
232
232
232
58
58
58
89
89
89
120
120
120
241
241
241
232
232
232
251
251
251
56
56
56
191
191
191
12
12
12
35
35
35
135
135
135
110
110
110
106
106
106
149
149
149
128
128
128
5
5
5
49
49
49
12
12
12
21
21
21
31
31
31
37
37
37
98
98
98
178
178
178
94
94
94
232
232
232
15
15
15
85
85
85
5
5
5
251
251
251
251
251
251
168
168
168
215
215
215
199
199
199
45
45
45
45
45
45
29
29
29
241
241
241
74
74
74
108
108
108
246
246
246
55
55
55
104
104
104
30
30
30
195
195
195
132
132
132
74
74
74
116
116
116
235
235
235
36
36
36
121
121
121
82
82
82
58
58
58
88
88
88
91
91
91
212
212
212
93
93
93
48
48
48
201
201
201
176
176
176
12
12
12
154
154
154
172
172
172
14
14
14
11
11
11
43
43
43
202
202
202
218
218
218
83
83
83
172
172
172
224
224
224
61
61
61
191
191
191
235
235
235
226
226
226
29
29
29
74
74
74
243
243
243
25
25
25
20
20
20
139
139
139
16
16
16
247
247
247
224
224
224
200
200
200
183
183
183
82
82
82
201
201
201
66
66
66
189
189
189
57
57
57
129
129
129
148
148
148
243
243
243
68
68
68
245
245
245
216
216
216
6
6
6
3
3
3
46
46
46
169
169
169
205
205
205
12
12
12
174
174
174
51
51
51
158
158
158
145
145
145
56
56
56
170
170
170
106
106
106
197
197
197
114
114
114
135
135
135
133
133
133
149
149
149
220
220
220
164
164
164
11
11
11
211
211
211
25
25
25
119
119
119
18
18
18
107
107
107
178
178
178
233
233
233
176
176
176
151
151
151
139
139
139
33
33
33
144
144
144
215
215
215
76
76
76
213
213
213
216
216
216
108
108
108
244
244
244
30
30
30
162
162
162
152
152
152
109
109
109
82
82
82
208
208
208
90
90
90
65
65
65
84
84
84
228
228
228
111
111
111
211
211
211
126
126
126
125
125
125
152
152
152
52
52
52
65
65
65
141
141
141
113
113
113
88
88
88
35
35
35
64
64
64
11
11
11
232
232
232
165
165
165
132
132
132
254
254
254
17
17
17
225
225
225
148
148
148
215
215
215
195
195
195
117
117
117
26
26
26
21
21
21
36
36
36
63
63
63
63
63
63
152
152
152
59
59
59
101
101
101
126
126
126
176
176
176
196
196
196
221
221
221
95
95
95
11
11
11
82
82
82
181
181
181
107
107
107
204
204
204
254
254
254
104
104
104
147
147
147
13
13
13
249
249
249
242
242
242
207
207
207
117
117
117
169
169
169
108
108
108
48
48
48
196
196
196
63
63
63
65
65
65
58
58
58
243
243
243
105
105
105
120
120
120
177
177
177
107
107
107
206
206
206
111
111
111
195
195
195
81
81
81
58
58
58
186
186
186
2
2
2
87
87
87
69
69
69
115
115
115
90
90
90
198
198
198
169
169
169
19
19
19
52
52
52
153
153
153
237
237
237
226
226
226
214
214
214
241
241
241
41
41
41
191
191
191
75
75
75
77
77
77
49
49
49
101
101
101
250
250
250
35
35
35
92
92
92
142
142
142
201
201
201
174
174
174
44
44
44
152
152
152
120
120
120
164
164
164
140
140
140
3
3
3
252
252
252
164
164
164
246
246
246
116
116
116
17
17
17
230
230
230
186
186
186
240
240
240
6
6
6
243
243
243
213
213
213
60
60
60
94
94
94
254
254
254
121
121
121
67
67
67
231
231
231
203
203
203
182
182
182
79
79
79
155
155
155
214
214
214
62
62
62
209
209
209
2
2
2
129
129
129
123
123
123
117
117
117
116
116
116
141
141
141
224
224
224
107
107
107
103
103
103
151
151
151
167
167
167
127
127
127
15
15
15
198
198
198
62
62
62
221
221
221
130
130
130
12
12
12
34
34
34
177
177
177
68
68
68
153
153
153
243
243
243
106
106
106
203
203
203
89
89
89
117
117
117
214
214
214
103
103
103
41
41
41
116
116
116
13
13
13
232
232
232
248
248
248
6
6
6
149
149
149
134
134
134
113
113
113
227
227
227
156
156
156
23
23
23
15
15
15
155
155
155
43
43
43
160
160
160
22
22
22
100
100
100
77
77
77
254
254
254
229
229
229
190
190
190
22
22
22
166
166
166
185
185
185
125
125
125
62
62
62
37
37
37
86
86
86
124
124
124
164
164
164
182
182
182
7
7
7
185
185
185
102
102
102
30
30
30
129
129
129
37
37
37
202
202
202
142
142
142
144
144
144
77
77
77
210
210
210
88
88
88
52
52
52
66
66
66
162
162
162
38
38
38
253
253
253
88
88
88
125
125
125
133
133
133
210
210
210
129
129
129
148
148
148
163
163
163
189
189
189
167
167
167
30
30
30
58
58
58
12
12
12
21
21
21
24
24
24
82
82
82
237
237
237
28
28
28
117
117
117
86
86
86
137
137
137
57
57
57
166
166
166
184
184
184
149
149
149
223
223
223
205
205
205
92
92
92
49
49
49
245
245
245
172
172
172
149
149
149
55
55
55
194
194
194
80
80
80
243
243
243
81
81
81
126
126
126
114
114
114
14
14
14
7
7
7
89
89
89
169
169
169
170
170
170
4
4
4
46
46
46
58
58
58
107
107
107
224
224
224
20
20
20
66
66
66
197
197
197
37
37
37
34
34
34
44
44
44
5
5
5
37
37
37
226
226
226
89
89
89
132
132
132
21
21
21
233
233
233
118
118
118
26
26
26
177
177
177
42
42
42
116
116
116
54
54
54
88
88
88
122
122
122
122
122
122
104
104
104
209
209
209
189
189
189
44
44
44
181
181
181
35
35
35
18
18
18
51
51
51
222
222
222
3
3
3
97
97
97
77
77
77
226
226
226
51
51
51
129
129
129
37
37
37
116
116
116
3
3
3
178
178
178
49
49
49
39
39
39
186
186
186
168
168
168
84
84
84
19
19
19
40
40
40
123
123
123
137
137
137
46
46
46
22
22
22
25
25
25
212
212
212
206
206
206
63
63
63
18
18
18
49
49
49
26
26
26
98
98
98
192
192
192
232
232
232
93
93
93
149
149
149
83
83
83
30
30
30
77
77
77
167
167
167
142
142
142
27
27
27
75
75
75
205
205
205
175
175
175
44
44
44
199
199
199
182
182
182
28
28
28
42
42
42
24
24
24
124
124
124
63
63
63
186
186
186
234
234
234
170
170
170
135
135
135
15
15
15
38
38
38
30
30
30
159
159
159
87
87
87
240
240
240
253
253
253
178
178
178
48
48
48
167
167
167
15
15
15
122
122
122
199
199
199
239
239
239
154
154
154
85
85
85
250
250
250
191
191
191
47
47
47
250
250
250
129
129
129
239
239
239
174
174
174
3
3
3
224
224
224
54
54
54
77
77
77
241
241
241
44
44
44
234
234
234
89
89
89
37
37
37
253
253
253
179
179
179
232
232
232
164
164
164
26
26
26
236
236
236
222
222
222
121
121
121
70
70
70
151
151
151
0
0
0
236
236
236
191
191
191
23
23
23
111
111
111
224
224
224
129
129
129
221
221
221
239
239
239
153
153
153
22
22
22
115
115
115
130
130
130
25
25
25
203
203
203
229
229
229
200
200
200
105
105
105
101
101
101
17
17
17
203
203
203
4
4
4
180
180
180
221
221
221
5
5
5
30
30
30
50
50
50
144
144
144
173
173
173
91
91
91
68
68
68
72
72
72
22
22
22
75
75
75
181
181
181
180
180
180
232
232
232
98
98
98
23
23
23
206
206
206
119
119
119
119
119
119
251
251
251
65
65
65
61
61
61
152
152
152
39
39
39
170
170
170
217
217
217
52
52
52
213
213
213
16
16
16
26
26
26
189
189
189
130
130
130
52
52
52
223
223
223
160
160
160
83
83
83
135
135
135
150
150
150
46
46
46
12
12
12
11
11
11
127
127
127
214
214
214
165
165
165
76
76
76
16
16
16
224
224
224
222
222
222
206
206
206
166
166
166
239
239
239
11
11
11
147
147
147
213
213
213
35
35
35
133
133
133
250
250
250
2
2
2
84
84
84
61
61
61
52
52
52
185
185
185
69
69
69
51
51
51
39
39
39
232
232
232
155
155
155
21
21
21
186
186
186
45
45
45
239
239
239
93
93
93
171
171
171
138
138
138
76
76
76
170
170
170
223
223
223
228
228
228
8
8
8
21
21
21
106
106
106
96
96
96
38
38
38
65
65
65
1
1
1
224
224
224
9
9
9
249
249
249
22
22
22
219
219
219
173
173
173
119
119
119
108
108
108
89
89
89
65
65
65
183
183
183
85
85
85
68
68
68
183
183
183
10
10
10
218
218
218
102
102
102
60
60
60
26
26
26
35
35
35
125
125
125
88
88
88
88
88
88
55
55
55
254
254
254
248
248
248
94
94
94
142
142
142
50
50
50
154
154
154
158
158
158
46
46
46
156
156
156
218
218
218
180
180
180
51
51
51
84
84
84
130
130
130
7
7
7
161
161
161
127
127
127
224
224
224
146
146
146
184
184
184
78
78
78
127
127
127
0
0
0
254
254
254
162
162
162
128
128
128
198
198
198
89
89
89
164
164
164
86
86
86
44
44
44
212
212
212
141
141
141
154
154
154
195
195
195
129
129
129
221
221
221
78
78
78
79
79
79
128
128
128
72
72
72
176
176
176
160
160
160
22
22
22
10
10
10
225
225
225
68
68
68
72
72
72
75
75
75
133
133
133
132
132
132
241
241
241
10
10
10
115
115
115
74
74
74
147
147
147
241
241
241
132
132
132
30
30
30
127
127
127
61
61
61
40
40
40
96
96
96
46
46
46
51
51
51
236
236
236
155
155
155
170
170
170
104
104
104
108
108
108
229
229
229
46
46
46
235
235
235
81
81
81
136
136
136
182
182
182
25
25
25
175
175
175
48
48
48
222
222
222
92
92
92
135
135
135
239
239
239
168
168
168
157
157
157
15
15
15
197
197
197
9
9
9
145
145
145
37
37
37
235
235
235
233
233
233
61
61
61
29
29
29
58
58
58
200
200
200
40
40
40
73
73
73
84
84
84
238
238
238
226
226
226
17
17
17
237
237
237
182
182
182
180
180
180
187
187
187
214
214
214
181
181
181
90
90
90
125
125
125
132
132
132
241
241
241
125
125
125
125
125
125
158
158
158
80
80
80
30
30
30
8
8
8
169
169
169
247
247
247
116
116
116
25
25
25
127
127
127
118
118
118
111
111
111
132
132
132
87
87
87
89
89
89
47
47
47
125
125
125
146
146
146
144
144
144
165
165
165
180
180
180
35
35
35
191
191
191
28
28
28
216
216
216
174
174
174
84
84
84
245
245
245
172
172
172
201
201
201
154
154
154
75
75
75
153
153
153
57
57
57
95
95
95
67
67
67
47
47
47
200
200
200
88
88
88
160
160
160
216
216
216
141
141
141
8
8
8
128
128
128
100
100
100
34
34
34
178
178
178
24
24
24
183
183
183
51
51
51
134
134
134
183
183
183
93
93
93
37
37
37
212
212
212
247
247
247
154
154
154
125
125
125
52
52
52
5
5
5
204
204
204
188
188
188
69
69
69
63
63
63
201
201
201
114
114
114
98
98
98
106
106
106
138
138
138
65
65
65
116
116
116
64
64
64
217
217
217
35
35
35
42
42
42
12
12
12
72
72
72
29
29
29
220
220
220
42
42
42
46
46
46
169
169
169
218
218
218
146
146
146
158
158
158
215
215
215
42
42
42
106
106
106
77
77
77
179
179
179
99
99
99
89
89
89
211
211
211
154
154
154
181
181
181
214
214
214
169
169
169
117
117
117
193
193
193
4
4
4
94
94
94
152
152
152
18
18
18
121
121
121
40
40
40
226
226
226
173
173
173
169
169
169
95
95
95
76
76
76
254
254
254
2
2
2
72
72
72
140
140
140
84
84
84
27
27
27
63
63
63
194
194
194
189
189
189
45
45
45
171
171
171
171
171
171
125
125
125
18
18
18
102
102
102
86
86
86
211
211
211
137
137
137
216
216
216
111
111
111
224
224
224
8
8
8
154
154
154
192
192
192
207
207
207
221
221
221
2
2
2
123
123
123
34
34
34
51
51
51
2
2
2
11
11
11
116
116
116
249
249
249
3
3
3
155
155
155
245
245
245
142
142
142
162
162
162
68
68
68
229
229
229
125
125
125
5
5
5
121
121
121
47
47
47
220
220
220
115
115
115
3
3
3
67
67
67
143
143
143
18
18
18
175
175
175
216
216
216
31
31
31
101
101
101
149
149
149
231
231
231
133
133
133
240
240
240
134
134
134
148
148
148
140
140
140
29
29
29
147
147
147
201
201
201
25
25
25
58
58
58
77
77
77
205
205
205
22
22
22
79
79
79
136
136
136
9
9
9
160
160
160
66
66
66
34
34
34
238
238
238
0
0
0
195
195
195
38
38
38
49
49
49
76
76
76
41
41
41
250
250
250
152
152
152
219
219
219
123
123
123
48
48
48
252
252
252
110
110
110
154
154
154
41
41
41
153
153
153
119
119
119
130
130
130
204
204
204
41
41
41
42
42
42
62
62
62
97
97
97
36
36
36
16
16
16
84
84
84
201
201
201
198
198
198
93
93
93
100
100
100
228
228
228
58
58
58
208
208
208
60
60
60
89
89
89
2
2
2
208
208
208
154
154
154
119
119
119
12
12
12
16
16
16
241
241
241
18
18
18
10
10
10
124
124
124
244
244
244
164
164
164
129
129
129
139
139
139
198
198
198
82
82
82
89
89
89
120
120
120
226
226
226
182
182
182
139
139
139
167
167
167
198
198
198
20
20
20
85
85
85
82
82
82
177
177
177
108
108
108
0
0
0
79
79
79
113
113
113
93
93
93
243
243
243
7
7
7
232
232
232
228
228
228
104
104
104
65
65
65
155
155
155
88
88
88
241
241
241
239
239
239
113
113
113
73
73
73
176
176
176
218
218
218
123
123
123
22
22
22
224
224
224
205
205
205
124
124
124
234
234
234
251
251
251
153
153
153
225
225
225
245
245
245
77
77
77
33
33
33
142
142
142
125
125
125
33
33
33
218
218
218
251
251
251
242
242
242
143
143
143
25
25
25
200
200
200
2
2
2
249
249
249
209
209
209
85
85
85
108
108
108
78
78
78
158
158
158
190
190
190
127
127
127
191
191
191
5
5
5
206
206
206
132
132
132
108
108
108
71
71
71
140
140
140
172
172
172
69
69
69
86
86
86
219
219
219
247
247
247
214
214
214
164
164
164
239
239
239
97
97
97
83
83
83
27
27
27
74
74
74
139
139
139
121
121
121
105
105
105
13
13
13
43
43
43
192
192
192
125
125
125
222
222
222
116
116
116
99
99
99
85
85
85
27
27
27
197
197
197
168
168
168
117
117
117
133
133
133
251
251
251
110
110
110
142
142
142
105
105
105
40
40
40
204
204
204
55
55
55
31
31
31
135
135
135
240
240
240
159
159
159
186
186
186
122
122
122
63
63
63
21
21
21
24
24
24
57
57
57
192
192
192
156
156
156
130
130
130
32
32
32
207
207
207
105
105
105
173
173
173
119
119
119
131
131
131
38
38
38
178
178
178
243
243
243
121
121
121
89
89
89
93
93
93
173
173
173
79
79
79
170
170
170
131
131
131
90
90
90
3
3
3
183
183
183
156
156
156
254
254
254
128
128
128
208
208
208
243
243
243
84
84
84
155
155
155
191
191
191
25
25
25
50
50
50
