P3
50 40
255
40
61
54
75
69
82
115
70
55
130
94
33
92
96
65
76
60
93
90
44
74
93
84
84
103
129
104
96
136
65
73
112
47
65
102
58
85
120
74
93
112
101
75
97
101
93
102
108
122
114
131
124
118
115
100
96
100
75
76
127
86
74
112
88
88
59
73
84
67
88
67
103
126
83
95
110
100
77
92
73
83
119
42
75
102
48
71
68
75
107
101
87
136
144
94
125
144
105
95
114
89
81
73
59
78
54
50
65
68
73
66
95
108
72
114
125
45
125
117
29
135
81
60
138
59
80
125
54
64
110
65
51
86
91
49
48
87
69
70
77
75
122
92
79
101
74
123
41
27
108
47
121
78
97
161
129
127
156
114
155
153
96
135
142
126
96
115
140
101
96
105
118
123
91
148
165
106
153
154
92
112
129
100
102
143
122
134
172
117
134
169
117
121
154
110
129
145
115
127
142
143
135
138
147
127
102
152
100
72
168
116
88
146
120
114
114
90
121
122
110
124
134
157
124
139
156
137
157
145
123
156
157
76
109
153
76
90
123
111
138
139
112
159
168
89
129
151
109
122
144
122
129
130
95
103
112
85
90
116
107
97
126
134
88
135
148
71
140
152
53
146
129
77
155
98
112
145
80
89
121
69
72
89
104
91
56
148
107
87
137
102
137
122
114
114
113
145
56
67
104
68
90
73
112
147
133
100
157
141
113
142
141
130
142
151
113
152
163
110
139
150
121
137
92
142
171
68
148
166
95
131
143
138
133
157
169
141
182
141
144
182
110
145
145
110
123
112
114
100
120
131
115
134
130
127
112
131
98
91
138
87
106
132
107
118
139
103
121
149
110
125
145
140
104
155
166
102
183
172
102
168
144
74
108
141
86
98
140
120
142
145
96
147
164
65
109
146
93
121
142
116
159
149
94
126
146
85
103
147
107
113
146
122
99
151
118
99
137
113
88
128
105
79
156
94
89
156
83
77
125
69
78
101
112
98
82
179
100
105
176
108
125
142
135
109
132
148
84
101
97
105
37
78
120
90
121
85
116
138
106
111
146
140
124
144
129
140
152
128
136
165
146
141
124
137
166
85
117
169
118
125
153
157
125
139
171
104
149
154
125
153
134
133
105
123
98
73
107
97
95
121
119
118
118
131
127
103
103
136
114
83
128
131
129
103
138
155
90
145
135
94
151
122
98
155
130
102
185
146
90
165
125
69
98
119
83
119
148
124
171
155
111
152
168
74
111
166
97
123
144
134
159
151
117
143
163
100
118
149
131
113
145
153
106
169
137
127
156
100
139
136
81
114
157
97
74
173
100
59
173
103
80
154
157
96
140
191
110
161
173
138
160
150
161
136
136
169
104
105
123
123
35
101
109
84
136
62
110
153
86
94
151
131
95
120
129
106
100
133
103
107
169
117
113
161
126
116
116
124
146
112
118
157
114
97
142
85
117
147
98
146
163
118
117
138
107
90
97
126
88
102
141
87
117
126
102
113
99
114
114
86
100
134
124
94
140
155
92
120
146
87
118
119
107
132
99
115
172
115
92
166
121
87
103
125
116
121
149
155
173
138
144
148
139
96
119
155
113
134
136
160
149
134
149
142
139
138
119
110
161
91
115
166
89
166
158
125
168
132
147
133
120
137
133
136
97
167
113
72
182
113
109
160
168
151
156
164
154
174
116
148
178
110
159
157
123
174
95
98
139
121
45
109
107
107
154
54
133
172
67
92
162
113
70
120
132
85
99
130
80
90
145
71
89
154
64
115
134
61
136
128
65
126
130
82
105
97
143
109
82
182
144
115
153
148
134
117
122
138
109
124
139
109
135
131
106
141
112
88
135
91
76
127
99
102
125
122
109
100
140
93
88
140
110
99
134
110
116
157
76
138
167
85
128
149
129
134
127
149
156
101
133
138
111
102
134
122
104
156
104
133
154
105
139
157
96
148
153
61
152
122
88
127
106
161
125
113
163
120
128
108
126
150
101
152
145
138
127
117
146
116
139
146
134
189
158
107
170
155
70
112
160
82
116
163
120
151
105
104
121
119
71
104
126
137
137
85
164
144
107
117
143
141
81
143
138
108
151
119
107
139
98
72
116
108
56
121
143
46
122
150
49
98
134
102
99
105
178
118
80
189
126
103
146
118
132
123
117
129
143
149
128
163
159
142
144
138
141
121
130
134
117
104
140
126
87
124
130
97
113
127
96
128
138
77
135
130
68
156
95
108
179
87
146
154
96
143
100
99
127
72
109
110
97
106
122
116
86
143
100
94
152
107
120
182
113
131
194
85
112
167
98
85
135
151
92
121
147
103
134
104
125
153
98
168
156
113
172
145
121
155
147
151
121
163
165
70
142
149
48
90
144
65
96
146
104
119
101
101
72
132
94
111
142
148
130
107
178
112
130
158
122
166
120
161
159
125
176
124
129
160
94
115
143
102
109
156
131
85
160
134
80
126
120
133
125
103
182
157
89
175
153
117
136
118
151
118
115
146
143
152
146
166
144
163
148
93
157
148
78
158
153
80
170
134
75
141
142
93
108
149
114
98
144
105
88
147
90
102
129
114
136
110
148
137
105
140
104
95
106
76
114
99
87
142
109
126
126
124
139
126
168
135
151
200
148
125
184
138
68
154
114
63
138
118
106
132
129
127
131
136
134
123
142
163
117
130
179
134
116
166
143
120
125
123
118
67
106
117
42
98
118
63
107
107
81
107
65
66
60
117
86
105
124
129
128
89
156
118
91
165
146
134
127
183
149
87
169
118
92
140
114
128
141
129
134
159
113
95
171
89
91
169
87
124
161
91
150
165
112
160
167
162
145
139
184
119
127
155
115
134
139
118
117
152
114
93
144
131
87
132
128
101
159
98
96
160
108
97
126
124
135
108
118
161
102
138
141
99
139
113
114
123
121
133
143
136
119
141
139
93
143
153
97
166
145
125
153
128
146
148
164
135
167
193
126
144
170
113
83
141
91
70
126
99
109
127
125
115
127
160
87
107
183
105
95
154
142
117
106
140
116
88
128
101
98
99
120
105
89
123
92
110
90
83
93
84
64
43
77
86
105
86
115
123
112
85
112
125
58
133
158
83
129
164
108
101
125
104
108
114
119
148
133
125
137
121
103
77
115
86
74
155
92
103
184
106
123
168
134
138
132
167
121
105
163
103
110
142
82
121
131
68
132
129
91
150
123
113
155
125
102
156
164
76
127
167
84
103
126
112
126
134
105
155
141
108
143
97
125
97
106
131
92
141
164
135
116
179
163
115
174
162
153
169
135
144
127
95
124
104
119
115
142
168
88
169
159
73
135
120
95
98
99
125
83
110
141
76
114
157
61
88
171
85
78
157
131
96
114
125
86
108
128
97
148
147
147
155
164
135
123
165
88
108
111
100
87
40
104
90
130
75
127
134
99
113
96
115
87
124
137
72
163
118
70
162
87
87
164
96
111
176
120
122
140
108
120
78
88
122
77
117
128
105
169
115
133
163
108
146
101
117
115
88
99
88
124
104
63
132
148
71
149
161
127
170
135
143
160
133
123
173
161
105
169
159
111
123
137
130
95
161
107
104
155
84
121
84
105
110
88
144
117
121
180
149
113
171
141
155
160
104
190
170
77
142
124
72
113
88
112
117
133
157
93
153
143
102
121
107
130
103
114
133
93
131
151
96
111
149
98
75
124
118
68
134
157
82
121
139
79
101
127
98
134
149
133
160
158
124
157
156
113
130
118
147
74
43
138
90
95
55
125
114
88
124
121
114
114
155
132
93
171
125
74
151
94
83
145
73
107
152
104
127
122
133
129
90
116
122
106
103
119
128
129
88
152
140
73
161
98
89
139
102
64
110
137
68
81
114
145
98
118
167
150
142
129
163
127
130
154
153
142
155
178
137
142
143
139
116
110
154
81
107
145
79
124
102
126
134
84
159
144
99
160
147
130
137
122
169
132
94
155
140
89
108
106
120
113
94
150
126
124
148
111
118
135
136
90
124
140
100
142
104
140
165
126
158
151
145
136
117
101
132
105
95
158
102
104
149
96
79
127
109
85
123
132
105
103
147
128
113
138
120
126
131
62
64
112
79
58
47
120
95
86
111
136
123
101
147
141
113
130
142
116
122
100
105
119
59
98
122
96
103
114
148
116
105
146
128
129
108
128
147
97
92
138
114
74
124
106
100
112
119
96
102
129
90
102
90
123
120
95
120
136
123
112
140
114
151
155
132
154
175
146
136
146
133
146
81
149
130
43
160
123
74
156
141
146
143
128
160
124
125
128
111
158
128
101
153
144
105
108
127
120
93
105
160
120
136
178
135
153
152
123
120
134
140
100
111
128
124
107
82
171
136
112
172
146
166
132
136
137
114
135
108
125
127
112
132
113
104
138
119
113
143
134
117
119
159
121
125
152
128
148
122
81
97
88
105
53
57
148
93
76
130
103
118
94
91
154
101
93
132
126
118
90
120
129
76
84
123
104
81
115
139
122
122
149
154
151
129
154
148
110
115
108
125
94
103
134
129
103
134
159
85
133
140
109
114
106
154
117
96
153
118
116
140
91
164
148
103
178
162
126
163
149
124
169
88
146
145
60
174
141
92
179
167
144
146
162
155
106
166
128
99
170
132
99
131
158
108
89
162
120
89
155
141
119
173
155
148
179
155
148
141
145
134
116
105
101
141
96
83
164
112
129
133
114
173
101
121
161
103
130
131
114
115
128
123
100
138
149
116
160
161
122
167
145
121
154
150
122
140
153
124
87
108
97
138
67
61
190
115
62
170
106
102
122
87
146
107
86
116
133
91
84
133
112
88
91
123
111
90
109
126
129
125
131
149
168
134
141
157
134
117
121
151
125
129
150
168
129
135
191
96
141
156
97
142
112
134
141
109
142
115
114
137
83
146
130
110
178
140
146
172
153
139
167
116
123
168
110
132
169
130
146
149
141
123
141
145
93
175
114
109
171
103
135
116
129
150
89
156
146
89
155
121
106
139
105
136
145
120
136
160
144
103
162
136
80
166
125
110
159
109
142
121
99
129
101
120
116
105
129
124
99
92
138
100
77
150
132
118
164
158
126
171
160
110
159
153
102
132
136
95
73
99
78
126
84
43
177
160
49
164
162
83
140
113
116
136
85
105
149
96
87
131
121
91
108
124
113
117
108
118
122
129
101
135
161
103
148
137
133
149
116
136
167
124
115
186
125
128
172
112
141
129
97
139
114
96
160
113
89
141
106
98
98
141
108
121
171
125
160
148
150
157
138
133
118
167
137
83
169
152
82
136
131
88
125
119
74
147
101
90
150
96
141
120
120
171
115
128
161
109
128
131
105
123
112
118
125
113
106
152
125
81
172
134
86
180
121
133
181
99
156
160
109
128
144
148
114
120
151
145
88
101
160
85
85
147
110
118
148
159
131
156
187
142
148
163
144
118
137
124
64
109
101
108
109
32
141
184
55
130
180
74
113
133
98
124
102
113
145
128
121
132
164
127
132
150
132
149
127
127
132
144
95
132
153
81
163
122
115
192
99
109
198
89
90
170
108
122
136
127
131
102
123
120
98
122
138
104
98
129
99
96
80
134
104
70
143
97
105
99
130
128
94
139
117
123
122
87
136
132
84
148
113
100
137
95
76
125
101
67
132
109
112
129
123
151
146
110
155
145
98
157
140
110
166
145
127
143
122
129
95
98
132
82
96
158
102
122
168
124
143
161
148
146
157
178
150
136
173
153
115
128
147
105
108
140
103
112
146
139
130
159
164
155
145
137
164
107
115
173
61
93
148
124
148
47
141
188
92
117
165
87
99
146
87
117
116
117
148
122
158
137
149
178
132
138
152
145
119
128
140
118
120
131
125
90
131
139
86
150
125
108
168
84
109
143
104
104
120
135
102
122
124
99
134
128
104
123
129
99
94
135
68
106
129
61
97
108
79
73
138
94
99
160
124
108
126
144
112
109
139
146
105
120
135
95
90
123
103
78
145
118
90
146
126
133
153
98
158
148
61
163
160
68
192
167
105
174
128
118
110
103
132
76
107
156
103
117
147
144
117
133
145
128
131
156
150
145
158
138
160
127
107
134
117
112
110
121
154
128
138
184
140
156
167
122
143
112
87
137
49
47
115
139
130
57
156
151
115
114
138
107
88
141
83
119
131
101
153
124
139
120
101
167
88
74
136
89
65
110
106
65
137
124
92
122
114
130
96
101
125
122
121
93
125
134
120
90
133
152
83
160
115
110
175
79
129
137
96
122
90
138
104
99
159
110
111
169
110
107
179
96
136
160
136
140
122
188
117
111
178
132
134
126
133
135
112
133
127
113
167
146
82
181
154
106
173
129
137
147
91
138
150
72
186
161
83
200
126
116
164
106
164
130
126
189
119
136
177
136
126
137
132
144
103
124
164
131
125
133
178
123
92
155
130
109
122
129
152
150
141
165
173
170
163
159
151
133
110
103
63
42
67
115
64
69
157
86
126
116
99
115
70
134
88
107
154
100
146
134
112
106
87
122
68
71
104
70
75
88
91
70
121
126
100
147
152
125
142
140
99
143
129
73
137
141
104
114
145
149
124
151
125
158
139
80
159
115
88
139
100
113
120
108
128
100
128
157
84
114
154
76
119
112
107
145
84
163
119
94
173
97
145
137
109
160
127
135
129
127
183
123
105
206
126
129
202
129
146
178
133
125
150
117
148
153
109
172
154
145
169
132
186
156
125
204
140
137
189
148
145
130
142
166
76
113
169
93
113
133
157
149
120
160
157
146
132
130
135
166
134
98
194
164
117
171
152
145
124
121
98
58
86
82
55
78
140
78
112
124
80
103
83
111
106
115
133
119
137
115
116
115
104
108
106
130
96
97
133
87
107
104
110
137
119
152
174
146
151
160
111
144
125
75
141
141
84
115
155
117
132
144
141
160
116
144
155
109
140
145
121
111
126
111
92
82
97
101
46
69
100
53
73
115
90
129
128
139
140
119
160
104
133
148
74
129
133
104
94
127
178
83
137
201
83
158
202
91
149
190
127
106
130
149
101
103
164
131
122
191
136
124
193
136
120
178
161
144
163
178
159
140
149
148
97
105
148
74
112
148
121
165
141
149
182
140
129
143
114
141
129
95
156
153
120
141
147
136
118
139
95
66
113
85
103
65
131
118
102
124
83
125
89
77
143
98
100
131
108
116
137
122
121
138
130
140
115
95
150
121
108
136
142
153
133
147
164
152
125
131
149
136
113
120
146
139
100
107
160
105
100
161
137
126
136
166
137
118
167
140
118
147
140
111
122
102
93
83
62
54
73
75
47
132
118
98
176
158
141
170
178
124
142
178
71
110
150
77
99
126
135
107
140
151
117
139
167
126
107
170
146
83
102
167
104
55
186
135
79
197
125
113
186
113
132
153
131
158
138
156
142
168
140
113
146
106
139
87
123
154
113
163
132
147
173
124
127
141
129
124
119
131
122
152
129
121
170
119
122
150
80
81
98
112
125
60
138
146
121
115
107
177
75
77
170
53
110
123
73
157
148
124
145
160
139
133
127
110
159
147
125
161
164
155
125
120
134
110
99
121
131
138
147
127
154
136
106
122
126
119
96
156
131
115
153
132
136
120
150
150
103
173
157
101
156
116
95
92
89
82
63
112
72
109
137
84
154
145
101
156
152
84
133
156
64
130
134
87
150
121
118
147
142
112
159
136
111
183
95
116
179
91
85
169
116
65
172
125
96
179
125
127
172
109
136
136
96
138
123
116
115
162
125
98
148
115
116
107
142
119
140
155
119
170
135
141
156
124
145
151
113
121
162
139
104
163
172
111
137
140
86
84
74
111
95
76
113
145
130
96
144
181
94
117
170
69
145
123
87
180
143
149
161
146
180
151
117
164
159
131
148
144
121
128
104
67
101
74
65
127
97
118
157
124
137
118
124
114
104
147
90
155
159
101
162
132
129
112
134
162
87
171
178
89
175
142
86
134
118
108
85
148
112
99
157
93
144
120
90
142
101
64
122
115
64
139
121
131
172
124
161
156
143
121
146
137
95
178
112
100
176
122
94
154
115
89
162
98
99
184
103
109
179
90
106
145
91
103
134
116
118
143
129
115
129
124
94
112
125
67
130
110
80
149
90
131
139
111
133
140
120
102
173
115
92
195
141
99
170
129
73
98
70
91
64
81
92
131
116
107
146
128
150
130
138
139
151
144
134
163
149
175
150
125
201
153
97
186
138
102
161
111
78
133
96
45
109
90
58
124
113
99
129
144
118
110
166
94
134
180
84
170
181
100
143
165
113
88
148
136
86
163
172
108
190
164
101
178
141
114
129
161
132
115
148
122
131
93
126
122
93
115
103
133
114
104
133
164
145
113
165
146
126
110
124
135
112
167
127
148
177
132
144
142
112
122
137
91
119
159
85
112
169
69
87
166
70
90
158
103
110
137
142
109
135
133
92
133
86
51
123
56
56
114
63
117
102
110
140
106
126
128
130
87
116
166
90
107
175
114
76
115
83
102
70
73
131
118
80
152
107
59
179
91
83
154
118
126
141
147
137
172
146
125
172
132
115
153
115
120
147
96
97
136
94
69
114
124
75
107
155
95
132
164
112
151
184
94
159
181
82
155
165
107
129
168
126
105
143
130
116
142
153
147
187
160
131
192
138
106
160
122
124
134
87
144
101
56
165
71
90
174
59
133
171
65
128
163
115
118
125
146
132
104
147
133
130
179
107
161
186
91
175
152
89
167
113
89
162
112
96
143
140
111
114
163
104
116
168
102
107
140
137
105
128
132
110
139
78
72
132
58
75
119
92
131
130
135
164
128
130
164
116
87
143
137
84
143
148
109
120
108
90
102
84
105
140
115
98
146
107
73
143
100
73
110
118
86
111
140
116
133
128
138
116
107
147
112
109
146
115
106
125
91
113
102
68
156
81
81
176
93
149
164
134
186
169
131
140
150
106
101
132
112
122
150
140
125
130
153
118
124
152
159
175
150
162
195
128
123
170
85
113
127
58
128
79
75
147
62
103
149
67
107
158
71
133
146
119
163
109
167
162
122
163
143
131
152
107
114
153
72
135
142
71
146
111
95
135
108
115
129
127
151
132
152
176
147
178
155
142
149
137
146
89
119
147
88
82
103
110
88
79
120
135
119
159
154
161
155
143
147
113
126
112
119
120
133
151
109
129
127
71
75
92
137
101
135
151
105
168
133
112
181
101
115
171
77
109
152
100
82
129
117
77
126
141
106
140
159
118
132
146
89
131
124
56
153
91
75
136
108
124
106
160
148
126
173
116
133
160
77
116
124
86
135
118
99
126
152
106
97
154
143
124
143
168
170
129
164
184
97
147
143
87
129
92
113
103
96
117
83
102
104
110
100
131
139
140
166
133
150
173
133
116
168
114
112
148
72
128
109
68
130
85
74
124
90
75
116
90
100
103
109
124
115
170
145
141
193
166
133
158
169
96
109
145
91
81
110
97
113
91
106
155
114
151
150
133
158
161
105
119
155
85
124
106
104
165
89
92
133
69
91
93
109
108
139
153
106
175
141
124
193
95
135
198
68
112
181
71
86
151
91
104
141
135
126
151
157
127
145
141
111
130
116
93
117
112
104
75
130
102
48
139
115
92
156
138
130
168
105
121
130
67
135
107
83
133
131
121
88
132
129
82
136
132
128
147
147
172
142
154
155
128
142
113
91
83
107
81
51
102
109
97
122
112
142
146
114
152
118
136
144
104
147
116
126
139
80
135
129
73
145
112
68
152
87
60
114
74
80
76
86
90
79
133
106
83
170
154
100
145
147
153
98
98
164
94
91
117
133
111
105
161
121
136
152
107
144
160
104
126
155
114
127
97
96
141
87
56
100
86
138
72
66
148
125
128
115
149
130
116
148
80
115
156
71
100
157
94
124
138
118
147
123
136
135
119
121
128
127
97
115
120
105
113
88
136
125
51
130
124
47
119
156
91
141
173
112
146
122
107
127
84
131
117
101
144
118
139
122
109
126
107
123
100
120
160
112
151
183
133
147
160
133
120
87
72
107
64
43
106
95
106
130
97
152
142
100
146
146
106
140
163
114
121
146
124
99
115
126
107
137
127
92
158
103
71
113
108
81
74
133
80
82
135
93
83
138
134
93
124
125
157
113
91
183
125
92
150
124
99
143
127
98
147
130
112
132
129
140
124
145
130
118
118
82
112
76
39
93
52
151
73
69
164
116
108
113
133
106
113
129
83
117
113
100
87
107
157
104
129
166
121
123
126
113
90
96
136
98
88
138
111
125
119
100
153
118
78
119
141
68
115
183
94
145
185
88
128
151
63
99
138
80
98
142
115
94
152
148
94
134
156
128
105
147
164
118
154
180
144
157
160
140
146
124
86
144
106
70
136
96
137
114
105
173
119
131
134
176
132
106
201
128
92
144
130
87
93
124
101
110
126
97
141
116
100
134
121
113
99
156
108
87
162
115
113
152
131
121
137
137
136
133
126
155
139
110
154
105
116
160
91
125
147
107
140
123
128
149
137
154
114
148
118
75
130
53
40
98
21
115
119
104
137
136
99
121
118
77
141
114
94
142
102
136
99
94
174
83
126
161
91
120
125
103
83
114
142
109
121
159
138
156
118
141
177
103
131
133
131
102
106
153
96
120
184
82
114
200
57
98
189
68
95
169
108
85
160
150
99
164
163
135
140
150
138
124
137
133
147
148
141
156
172
154
130
180
137
125
162
108
166
118
123
166
109
138
98
164
140
67
195
133
84
152
113
97
106
106
110
114
112
125
140
124
145
144
126
141
114
150
112
101
179
117
143
166
151
157
131
176
143
117
158
150
121
132
156
113
169
151
105
187
122
118
157
114
167
132
141
181
103
159
125
91
139
72
64
78
39
95
143
110
117
181
93
130
145
71
163
112
99
159
104
150
134
97
161
133
124
134
142
129
146
127
98
163
117
125
148
124
160
151
90
173
169
87
173
139
137
134
102
154
98
106
177
87
122
200
90
134
178
107
120
146
121
112
153
138
126
188
146
111
173
141
86
134
128
108
127
120
158
146
146
174
152
164
129
133
167
86
129
154
103
118
124
130
79
121
133
82
151
114
110
163
99
120
151
101
130
153
102
140
144
117
151
112
131
150
101
140
118
126
154
117
162
138
173
159
115
195
136
112
161
148
104
146
172
109
179
163
110
195
125
113
177
121
161
149
120
178
115
115
136
106
120
103
84
72
71
113
113
109
134
183
109
135
170
98
160
139
103
162
136
119
151
113
131
176
123
125
192
138
153
140
113
169
84
114
139
80
130
125
70
157
139
77
175
132
138
143
122
168
110
123
164
96
127
164
92
133
159
99
109
135
100
117
136
121
132
166
144
91
164
151
75
138
142
128
120
116
186
132
122
180
136
144
126
98
165
74
76
169
89
83
126
141
96
87
131
105
102
95
101
139
101
108
157
112
123
147
97
121
118
101
119
102
131
141
105
131
137
129
117
125
156
115
173
130
125
183
106
121
151
122
86
145
143
75
135
152
88
132
130
100
149
118
134
154
100
155
136
94
130
111
123
109
71
89
82
127
76
126
144
160
152
124
179
155
146
160
136
163
156
94
145
117
92
157
98
103
177
114
114
139
124
108
96
129
101
99
113
131
101
111
148
82
135
139
98
151
153
144
146
158
168
119
143
170
94
124
186
79
96
173
74
115
140
98
119
136
131
80
136
141
79
142
120
124
148
114
174
145
142
163
121
152
116
95
141
86
100
150
102
116
149
132
132
117
118
117
97
99
78
96
102
83
108
101
112
119
97
118
129
115
105
158
154
135
143
151
160
117
121
141
141
127
158
124
137
169
95
109
154
96
86
131
103
82
87
132
88
70
133
105
94
110
135
123
93
148
136
96
125
129
119
109
86
88
75
137
88
110
131
145
159
93
150
166
132
131
144
166
123
100
129
92
83
118
79
84
143
97
70
128
114
50
114
129
63
119
117
128
118
93
164
81
100
145
61
140
162
107
145
172
160
128
153
176
128
139
174
99
123
155
74
131
141
89
110
136
121
80
117
129
88
129
95
117
152
99
153
142
153
123
128
149
73
124
105
78
138
134
95
161
171
92
165
143
103
133
116
121
82
97
117
76
102
111
112
134
121
135
157
147
144
187
170
160
169
166
165
138
143
139
161
132
123
153
112
141
126
89
153
111
117
129
104
130
95
121
94
84
128
77
112
106
113
136
93
138
122
103
100
115
117
85
95
101
75
137
130
94
125
147
139
77
114
127
99
98
125
130
99
124
113
82
99
115
90
92
128
121
83
109
117
77
111
111
84
131
110
120
120
89
167
72
82
158
48
100
144
65
101
130
103
115
128
129
149
150
115
138
135
105
117
109
124
102
95
128
98
99
97
104
117
100
101
136
120
115
140
118
150
113
128
136
84
135
97
81
143
138
84
163
172
74
154
135
91
130
122
138
122
125
161
117
137
143
111
159
127
120
156
151
156
166
168
158
173
146
115
169
132
93
162
129
93
143
105
115
141
102
147
132
156
160
110
170
154
109
118
135
121
86
147
99
111
168
83
123
122
111
74
75
142
67
61
130
78
114
123
110
129
139
157
103
111
150
88
110
153
80
120
143
82
106
108
118
97
100
124
129
117
82
135
151
90
126
153
138
125
134
144
95
150
107
84
147
79
99
121
72
96
107
96
109
122
126
152
141
128
168
113
123
150
86
112
107
94
99
70
105
102
65
124
136
98
142
157
140
131
141
157
132
129
138
139
128
96
127
139
121
124
153
165
121
147
144
129
144
141
171
168
150
179
162
151
128
109
172
97
76
173
132
109
170
159
130
179
125
83
168
103
71
126
121
119
109
127
149
124
139
162
113
182
186
103
193
185
126
157
156
139
140
161
107
135
176
86
107
130
114
90
85
144
106
70
114
90
82
88
108
118
123
180
128
134
193
99
145
178
62
142
132
50
120
101
86
99
108
103
113
112
69
119
151
69
124
173
105
133
148
145
109
135
151
108
130
127
130
124
131
132
116
146
137
114
148
159
106
154
165
96
149
141
117
109
111
128
79
91
105
100
74
107
156
90
136
184
146
136
151
181
128
118
154
140
113
98
153
107
92
164
119
132
173
142
155
182
158
165
178
180
156
141
172
150
97
116
175
85
68
177
110
90
157
139
137
150
123
115
151
87
95
127
81
151
107
116
185
122
158
167
122
185
177
134
186
173
161
167
132
153
151
152
128
121
168
115
105
118
114
126
100
107
127
94
70
82
46
70
82
79
112
138
95
137
136
71
135
117
46
102
83
35
75
73
46
80
89
58
93
71
48
81
75
47
81
114
60
90
127
99
82
116
111
84
108
102
101
98
127
120
75
123
131
55
92
121
47
96
104
66
109
95
108
89
89
115
53
86
82
49
70
74
83
63
101
112
105
108
88
144
96
64
122
96
69
84
100
55
64
106
61
75
132
96
110
146
123
116
117
141
101
81
136
117
74
99
139
77
62
120
82
74
84
98
120
70
95
121
91
60
95
102
45
114
81
83
126
93
128
96
125
140
110
143
132
119
132
132
79
106
122
96
101
89
118
99
94
73
85
107
63
65
77
70
39
40
