P3
50 40
255
127
105
94
139
53
206
224
71
50
255
135
77
57
209
51
163
100
236
245
76
144
101
156
126
250
255
255
116
255
58
157
255
96
157
95
114
108
255
119
255
147
255
82
190
184
162
121
235
255
246
255
219
235
245
215
205
53
77
191
255
185
135
219
107
194
67
175
228
85
99
53
255
255
142
183
250
207
65
53
55
108
255
115
170
152
80
100
58
205
186
164
112
255
255
203
255
255
255
147
246
120
131
68
100
187
82
78
131
124
116
72
203
215
249
254
186
50
225
255
72
255
83
123
255
143
170
255
85
91
147
135
175
255
233
64
50
145
110
124
59
205
255
254
57
200
119
255
92
70
255
57
255
161
191
255
204
114
247
231
255
255
57
255
207
255
61
145
192
143
104
90
191
150
122
174
255
236
255
93
132
128
138
143
69
168
217
227
237
73
181
205
208
88
182
82
255
255
125
65
103
171
221
240
211
190
63
246
149
109
255
219
104
233
255
171
117
91
68
205
194
245
173
255
176
146
128
255
255
215
255
255
235
56
169
255
131
88
179
96
255
206
255
195
255
83
103
76
59
189
210
255
197
212
119
124
211
224
137
126
98
202
162
255
71
103
168
174
186
255
60
149
171
137
157
150
255
128
168
113
205
96
82
134
105
130
67
255
222
137
205
154
249
135
119
178
227
255
80
71
86
64
130
67
232
213
255
104
244
113
102
132
255
117
184
121
153
251
232
157
255
255
120
118
51
209
255
60
255
255
111
133
180
201
255
235
255
221
248
255
207
255
57
252
234
255
179
136
76
153
193
255
144
232
73
195
148
236
77
120
126
96
84
165
102
255
208
108
174
255
58
255
121
208
72
255
254
104
192
255
127
240
53
156
111
242
139
105
185
255
95
70
76
255
255
56
156
105
234
110
255
132
255
124
95
151
188
91
63
229
186
243
228
79
58
245
139
203
201
122
97
162
242
73
255
134
115
255
138
179
50
72
90
152
112
255
75
255
68
101
212
155
165
147
180
71
160
203
184
255
157
212
58
130
249
93
177
70
171
203
214
148
153
255
218
250
210
154
197
209
189
255
233
152
246
156
239
51
78
213
252
203
202
159
197
218
255
91
178
126
165
252
127
238
60
206
78
94
123
156
82
232
131
212
189
255
189
94
229
239
205
57
255
186
254
85
163
255
56
144
255
112
255
174
98
136
123
211
255
255
119
255
255
58
54
54
62
255
255
149
255
218
186
218
255
106
82
255
100
209
84
179
227
255
245
255
200
59
127
235
206
255
117
234
105
255
254
255
198
67
162
95
51
255
242
53
73
165
224
81
255
82
108
255
255
69
163
210
102
255
255
250
255
255
163
166
182
255
255
153
193
255
82
227
76
150
117
121
229
191
96
52
239
236
190
120
86
135
158
91
195
72
255
172
254
238
255
98
196
119
231
123
255
229
191
51
181
53
124
255
178
208
255
191
152
190
55
136
58
211
199
118
209
96
167
106
106
167
132
225
117
104
94
195
223
178
255
243
184
147
99
147
204
174
228
141
115
189
255
61
150
255
88
226
67
168
130
67
220
255
255
169
250
186
64
67
185
255
186
159
203
255
152
141
170
155
255
171
150
170
255
99
145
193
87
255
237
171
222
232
255
255
204
157
172
255
165
235
169
50
255
128
231
148
255
203
232
255
255
222
54
176
230
131
255
216
135
141
73
245
255
255
108
180
200
112
255
56
190
236
63
165
255
136
58
99
255
180
137
233
55
91
220
95
65
255
95
210
105
64
214
154
142
206
247
79
111
180
251
68
59
255
151
218
252
255
245
154
146
234
104
241
222
118
120
236
167
255
158
88
175
127
63
144
56
170
228
134
160
92
255
90
64
213
70
203
125
189
79
255
52
255
255
57
149
146
255
255
255
231
237
116
192
160
249
199
146
143
119
245
119
210
255
190
209
204
91
208
247
61
200
90
66
153
175
254
196
158
217
191
114
72
88
181
90
255
255
239
57
80
195
136
195
178
183
255
182
101
255
190
134
59
193
135
178
255
219
248
183
112
255
164
52
185
171
255
119
51
255
209
236
103
210
175
95
201
106
139
250
88
198
255
90
82
153
102
92
131
255
52
151
240
79
71
129
68
193
177
255
155
67
236
197
175
207
163
135
127
172
115
255
188
102
255
255
142
201
137
255
211
255
99
137
162
255
185
80
165
180
248
85
161
134
204
255
162
255
235
66
180
78
100
255
212
251
218
52
100
117
136
230
52
98
171
101
143
202
211
64
255
59
163
66
154
92
234
194
199
255
97
228
255
96
103
247
255
90
80
213
152
255
191
91
184
102
255
255
199
251
201
67
255
224
254
162
158
255
148
255
204
65
69
170
98
102
173
154
161
213
255
60
243
255
242
255
99
158
143
255
185
184
249
54
255
145
255
255
244
189
255
255
198
152
97
226
99
241
192
144
138
255
223
113
110
162
249
144
219
246
255
126
255
191
129
85
81
234
242
86
255
83
217
246
255
255
255
145
80
146
188
95
255
255
127
255
187
59
154
216
121
162
255
163
109
113
115
56
219
55
67
206
230
209
135
183
186
173
255
150
122
69
141
204
60
142
255
125
242
174
65
227
61
255
172
255
255
242
147
236
249
53
118
173
74
169
186
214
199
118
176
177
170
252
145
165
255
119
197
218
142
152
255
235
255
187
173
80
54
108
216
69
146
181
125
202
229
75
255
65
90
69
255
55
198
53
255
213
154
229
141
107
253
196
198
209
255
201
61
220
90
74
255
99
227
84
255
224
255
185
131
232
99
139
255
162
178
190
97
201
170
91
229
255
255
255
255
255
93
230
130
203
255
136
228
61
244
120
139
255
254
53
63
165
152
226
94
219
226
158
112
204
162
222
196
162
255
127
234
255
230
198
105
124
112
218
193
255
145
193
136
170
141
98
255
81
244
225
93
255
209
255
255
233
172
255
255
159
197
160
233
112
255
81
59
174
103
227
229
204
204
107
255
76
219
255
65
92
242
255
241
124
104
176
58
211
118
88
174
148
133
63
195
67
174
94
100
198
80
114
96
205
71
216
155
255
104
114
106
70
200
57
247
223
95
101
255
254
149
160
111
76
76
255
197
255
107
163
129
148
101
76
85
87
249
71
198
255
167
63
249
241
255
146
255
72
67
236
255
57
255
59
151
181
77
175
88
103
255
145
124
223
146
151
255
245
125
85
255
77
134
84
211
210
141
112
183
255
97
222
66
255
83
151
94
106
252
220
184
149
255
255
89
255
179
255
251
255
241
86
59
115
53
126
181
95
255
118
255
217
51
217
211
72
134
50
255
112
174
95
80
225
174
134
186
236
50
66
214
255
203
112
110
65
199
255
124
255
117
255
230
255
255
201
255
76
104
127
92
253
65
186
184
255
174
173
255
186
170
101
129
123
141
195
122
255
103
64
245
62
163
255
204
85
255
133
214
255
166
135
58
129
242
96
111
249
206
255
228
159
243
63
255
112
223
54
168
56
74
242
135
129
228
202
68
163
255
214
255
180
233
170
203
134
255
226
153
255
226
110
118
181
228
126
250
173
146
239
125
210
76
75
155
115
217
139
255
255
207
66
192
178
251
123
121
255
255
64
199
228
75
112
113
148
248
255
227
69
255
187
171
131
60
255
251
175
138
90
166
255
116
68
255
180
52
82
94
82
255
255
150
218
80
142
81
142
128
232
255
194
255
255
72
213
206
176
255
239
255
94
55
255
202
176
93
159
103
122
220
136
124
217
194
255
147
255
155
87
169
207
74
188
71
246
174
191
135
128
215
255
99
104
72
244
189
190
64
130
70
234
255
131
223
97
140
255
72
125
243
251
57
60
118
228
158
171
255
255
255
133
224
61
165
228
190
166
231
255
223
227
247
150
208
131
224
149
50
255
80
191
81
240
154
115
160
255
93
255
249
131
233
188
255
133
102
230
255
152
93
125
153
150
95
238
227
118
194
120
155
242
251
56
180
145
65
255
126
222
255
141
255
255
220
197
193
89
182
154
77
255
140
188
255
102
51
201
146
119
99
197
55
63
245
255
96
170
109
241
80
88
51
255
70
129
109
247
109
119
68
255
255
142
255
53
146
174
255
233
124
122
170
132
53
122
189
70
163
244
255
119
83
222
153
190
163
207
255
69
129
234
217
58
185
101
215
86
229
100
160
209
54
173
90
230
153
59
154
77
146
67
221
190
255
141
215
201
255
222
90
178
77
241
52
255
126
62
255
69
58
196
255
255
234
155
247
111
168
83
163
255
65
105
211
235
249
85
70
129
181
59
255
143
179
255
238
255
112
75
124
149
196
255
175
255
163
70
72
255
188
130
250
176
255
189
186
200
125
201
66
96
249
255
132
150
70
93
255
239
255
122
121
182
255
69
124
255
255
255
148
150
165
53
206
101
139
124
152
97
255
140
152
67
59
255
238
57
150
140
255
144
185
222
126
110
121
221
109
128
121
182
213
214
255
168
163
220
192
148
228
51
141
94
114
201
177
173
115
253
69
250
255
141
97
107
254
252
137
255
249
175
100
100
255
255
83
255
163
255
210
255
99
255
106
253
232
121
166
134
100
255
255
185
200
201
188
124
241
222
182
157
255
62
255
255
141
67
255
135
171
255
170
136
255
238
253
255
255
209
155
255
223
63
76
113
158
127
67
255
182
210
150
118
255
127
205
255
175
119
221
223
212
184
229
56
178
255
194
227
231
113
255
142
221
255
255
84
171
205
255
144
209
255
255
86
189
255
205
55
255
77
127
117
160
255
54
215
137
166
50
120
253
145
138
120
255
97
58
145
255
255
142
152
83
255
255
255
255
165
61
115
237
198
255
255
207
234
159
255
158
200
226
131
223
78
255
153
208
171
99
132
234
104
135
227
158
255
96
140
145
255
244
255
73
74
128
170
255
255
217
219
215
195
252
128
255
67
255
70
237
255
91
210
89
103
219
137
234
196
156
192
162
107
86
132
252
187
75
163
240
227
223
255
152
56
206
241
217
228
188
173
98
143
153
149
190
110
114
184
151
150
181
99
68
55
255
152
255
140
232
163
254
157
114
109
183
154
255
133
83
112
177
56
177
156
126
255
254
86
186
255
161
255
141
175
242
80
123
255
145
177
168
139
77
121
112
255
237
160
55
118
132
184
255
243
64
172
127
188
174
220
204
231
181
120
246
116
128
255
167
255
117
72
101
255
92
255
164
114
255
148
148
72
212
102
255
226
172
255
255
255
219
152
125
196
255
255
52
255
192
74
63
130
112
187
152
104
141
189
98
255
127
199
125
234
255
196
110
255
108
222
159
161
210
120
141
122
175
138
215
188
73
255
255
81
217
154
235
255
80
234
216
102
167
194
151
65
227
255
255
92
69
255
170
81
104
165
157
253
235
206
219
255
176
249
255
255
138
156
58
87
222
255
190
79
62
162
255
61
189
235
61
65
179
201
117
109
132
182
234
156
166
255
137
141
244
108
245
131
255
109
200
124
136
255
85
255
85
255
255
84
138
255
128
51
211
191
255
161
255
126
140
166
170
51
255
202
194
51
255
74
74
108
218
255
77
255
58
102
73
236
255
116
203
126
187
75
176
190
255
57
255
206
232
255
93
97
84
209
103
240
75
189
81
255
162
255
148
99
203
165
220
147
147
255
234
235
210
145
145
107
202
110
69
154
206
197
177
255
156
196
230
255
255
255
255
245
170
255
240
107
165
134
188
255
255
52
151
89
209
166
212
255
212
161
151
255
185
170
255
159
244
255
231
255
67
154
255
255
209
125
108
159
255
139
191
168
170
228
106
255
235
228
255
178
201
255
255
221
106
228
214
241
228
125
62
145
255
85
245
255
185
255
65
160
177
68
156
152
220
199
195
77
178
121
251
55
255
238
99
50
255
62
229
110
71
73
68
81
106
112
87
127
255
148
107
136
228
77
69
144
170
133
255
182
88
65
134
188
135
255
124
55
105
154
255
246
65
255
152
119
218
255
59
255
255
186
249
198
214
95
161
141
95
83
255
79
170
86
255
140
128
124
77
147
158
219
194
255
127
255
105
185
192
154
104
161
80
255
198
245
255
101
182
224
176
124
118
66
166
74
54
255
255
255
86
206
199
171
142
209
132
127
207
108
130
66
138
255
237
141
81
132
255
153
99
143
63
75
98
119
50
251
195
131
226
95
151
62
50
190
204
69
117
222
255
240
64
69
255
61
255
159
93
255
94
252
252
83
255
58
192
133
176
255
222
147
255
255
88
255
111
255
255
241
255
241
255
161
212
255
255
217
79
198
198
124
72
126
255
255
236
75
183
255
70
255
235
189
97
66
66
132
67
255
236
154
255
57
63
250
127
255
233
240
207
132
227
255
251
159
255
116
236
115
239
192
219
107
255
248
179
54
230
198
111
83
255
148
243
118
255
245
255
255
255
255
255
186
56
53
83
53
172
86
96
250
149
219
177
65
255
59
252
62
143
247
224
255
255
101
176
55
208
51
85
195
144
99
106
94
107
220
196
153
156
255
214
247
250
134
164
192
147
185
224
67
183
202
255
199
234
141
255
142
91
214
175
68
61
122
229
255
140
93
75
255
232
169
255
239
68
52
80
157
227
53
228
89
54
255
51
255
226
225
255
201
232
181
189
238
239
83
255
128
194
255
212
255
255
255
126
210
239
255
255
68
255
255
232
158
218
255
255
84
255
80
255
255
212
82
72
202
255
121
159
255
59
132
102
255
255
125
245
140
255
135
115
255
255
134
66
255
255
55
166
161
234
235
255
191
86
176
121
67
175
210
126
202
231
98
102
55
188
115
186
162
191
231
150
163
68
137
138
220
247
85
99
255
114
250
149
61
109
125
255
233
255
215
253
61
182
108
80
255
236
106
67
136
153
255
200
223
198
123
189
255
98
255
245
255
132
167
137
79
76
64
187
71
59
90
86
104
164
113
255
217
113
224
126
202
151
122
109
51
240
151
71
51
176
255
85
226
255
104
246
209
89
255
255
94
145
102
172
61
135
221
132
178
255
231
217
205
157
154
225
254
138
211
255
255
220
154
168
126
197
117
73
63
255
224
255
201
194
255
228
194
255
51
152
167
112
255
219
214
219
158
231
135
98
177
119
246
149
194
113
128
255
115
243
52
108
63
168
255
255
114
155
138
206
170
195
80
227
255
255
157
82
89
255
132
208
161
222
122
245
255
255
131
203
252
108
51
205
236
234
195
52
255
85
137
242
226
119
235
255
165
170
214
140
199
172
248
111
178
219
255
147
69
64
64
102
66
255
203
59
255
255
252
255
255
239
241
255
164
98
255
50
143
91
255
198
241
156
164
125
255
133
127
255
248
99
146
255
151
61
227
255
66
255
85
111
255
142
179
202
192
255
132
251
240
252
224
102
255
94
255
71
202
185
64
170
148
255
214
108
65
190
255
212
53
194
60
255
233
74
214
108
255
255
114
111
166
241
255
67
186
150
255
225
175
236
71
57
255
60
109
56
56
255
255
165
209
255
153
60
110
81
255
144
176
255
255
255
210
171
195
112
117
69
209
255
255
209
253
176
65
232
94
255
129
255
70
205
123
177
255
162
201
112
122
255
255
175
255
52
113
88
179
117
61
173
98
122
167
172
136
166
151
179
191
87
204
255
100
133
157
99
255
153
121
120
201
84
255
217
115
255
177
182
205
65
136
160
248
65
228
112
198
206
255
255
149
180
113
255
62
253
64
84
79
255
227
80
198
118
156
102
203
220
255
255
185
248
156
247
191
253
154
244
139
220
220
167
54
255
255
242
59
153
195
226
91
226
161
166
183
230
63
92
255
255
191
119
255
50
240
56
140
255
199
236
223
184
255
251
163
247
190
255
214
201
206
173
93
73
107
101
65
187
60
205
255
229
93
177
85
210
67
212
72
232
255
150
255
173
127
222
72
255
97
255
255
204
106
240
56
255
72
253
55
216
196
215
235
88
255
175
161
220
112
95
87
87
57
229
136
233
255
174
255
238
214
250
112
232
120
255
57
97
225
235
107
255
152
165
154
80
150
255
179
55
255
87
255
89
252
52
165
192
255
222
194
215
130
127
141
193
255
74
99
138
56
255
102
255
242
116
174
181
212
128
255
88
139
255
255
154
255
138
114
63
175
186
81
183
74
154
255
77
221
179
255
207
198
161
172
213
185
255
239
194
57
217
255
255
80
247
154
108
174
175
62
197
197
71
57
137
74
242
168
132
123
246
255
105
235
78
189
253
167
255
189
136
174
255
187
69
169
107
67
255
216
175
255
234
115
255
199
130
152
255
192
50
255
127
193
142
193
169
99
161
255
255
69
100
222
255
183
199
255
255
105
59
82
244
157
255
130
255
191
255
226
78
131
109
245
176
156
240
164
169
233
64
50
255
57
87
255
139
206
94
219
73
255
220
214
89
54
53
216
96
85
101
108
120
52
157
214
95
255
134
152
70
168
152
116
116
255
247
134
255
87
184
83
84
172
255
94
245
160
55
249
74
87
255
232
255
184
110
139
255
255
182
231
136
71
191
228
255
255
65
168
242
144
76
255
94
227
98
255
92
223
82
166
187
255
104
218
255
138
255
228
172
131
230
172
155
239
154
197
52
255
255
250
239
197
209
94
130
245
231
255
255
85
212
179
68
238
72
101
255
62
255
255
57
53
226
195
147
158
212
127
116
86
255
177
255
101
233
255
179
232
255
87
255
90
166
232
54
53
255
230
228
136
92
99
236
255
89
114
128
236
138
210
218
187
255
134
86
185
69
108
206
90
255
226
173
186
254
187
255
110
96
204
255
72
231
147
75
223
130
255
219
211
255
255
97
113
165
83
68
255
109
99
68
68
76
58
255
148
255
152
242
115
144
255
162
105
143
113
210
199
58
112
133
103
255
80
64
255
127
247
255
217
255
244
192
220
178
77
57
95
125
253
255
255
241
80
225
102
226
94
230
255
249
255
255
232
53
182
78
102
102
92
93
92
74
255
87
174
135
125
113
255
119
236
196
98
255
111
255
220
194
255
185
255
255
65
61
76
88
255
255
80
224
125
209
196
255
137
161
145
255
114
255
255
255
218
228
136
255
98
210
55
217
215
65
65
175
205
172
60
79
249
228
227
255
182
229
204
255
96
135
69
156
255
213
178
241
255
255
97
96
123
255
76
226
179
131
255
255
118
255
224
107
255
53
255
142
255
50
105
104
117
149
127
111
216
255
255
180
94
125
154
255
65
255
139
105
138
87
184
126
255
255
136
229
119
255
255
53
57
214
127
255
76
147
209
255
71
105
255
248
113
171
244
255
120
255
236
201
255
255
50
154
87
255
142
153
241
88
239
73
104
81
161
236
243
255
129
255
179
179
81
255
148
80
255
87
223
203
57
121
72
97
108
165
53
141
180
202
131
75
189
123
253
221
244
255
232
255
250
255
64
155
208
104
151
229
180
67
74
125
253
84
255
54
241
195
230
132
193
255
61
115
55
145
255
80
143
254
100
180
255
194
196
94
223
144
255
141
201
236
118
255
255
122
121
255
72
71
255
125
117
255
231
255
227
230
50
249
255
255
104
148
70
234
73
227
126
255
89
63
169
64
102
169
236
233
255
228
138
115
55
134
111
139
166
202
232
81
89
156
132
220
116
98
255
255
255
102
118
232
255
255
103
66
110
255
76
64
62
239
201
182
180
167
236
102
255
77
255
196
84
210
188
255
133
114
172
185
90
244
200
147
255
96
67
220
62
135
98
61
139
140
177
121
54
255
225
67
215
196
255
126
81
255
66
78
128
255
223
88
255
255
161
255
149
237
216
70
161
255
255
185
61
157
255
197
135
80
255
255
96
85
129
202
183
192
183
255
159
99
52
111
247
134
122
243
111
255
100
102
230
52
235
162
167
119
213
149
101
128
255
89
105
68
255
255
66
205
120
56
71
254
166
236
255
199
95
121
145
255
113
255
143
119
255
221
169
188
188
231
98
126
103
221
220
151
125
255
136
206
255
255
140
58
60
137
71
80
107
156
102
250
146
255
187
88
54
196
115
246
255
51
159
197
255
161
158
59
216
120
255
205
255
72
68
52
255
182
96
223
65
144
169
62
207
158
240
77
139
223
255
115
54
255
233
241
159
135
70
232
118
94
211
233
56
120
60
255
197
255
191
127
152
89
94
110
67
233
76
255
107
85
255
146
175
114
255
138
90
206
138
255
141
105
62
55
255
113
255
255
255
255
144
81
120
192
255
146
100
146
120
204
230
139
208
114
176
96
185
69
206
255
202
255
253
113
230
127
52
101
228
119
134
153
62
180
255
244
57
168
245
211
64
130
177
255
255
255
121
255
196
247
125
234
65
255
128
70
155
177
200
172
50
255
134
255
218
255
212
189
255
178
164
178
248
96
75
139
141
208
214
103
244
136
93
212
94
193
196
255
162
53
191
255
203
204
101
99
245
172
150
179
182
148
255
149
253
128
127
229
129
210
251
178
231
229
122
255
114
226
90
255
210
179
85
72
92
234
60
187
255
255
184
123
118
137
71
122
255
112
125
197
247
183
107
91
182
120
183
255
52
93
60
88
53
165
196
147
124
255
234
197
121
153
255
134
240
182
239
50
80
113
184
177
255
134
111
255
97
90
245
51
146
255
192
96
88
198
101
255
244
255
182
255
205
98
116
220
255
181
154
253
255
158
189
199
255
186
255
96
228
94
255
255
79
131
73
221
186
65
255
232
68
180
75
135
171
225
172
71
98
179
131
255
254
214
142
241
203
185
98
63
255
129
255
218
212
255
207
255
196
65
253
255
247
105
64
59
255
237
195
255
79
87
73
65
255
232
255
255
115
242
111
151
255
79
70
118
108
158
255
250
131
255
90
186
255
123
192
127
134
224
134
255
211
111
255
174
205
67
206
255
255
255
100
232
120
255
230
255
240
237
142
216
255
96
255
231
216
241
140
146
138
175
229
136
182
255
136
255
222
225
175
194
180
175
240
203
208
255
164
130
255
78
80
172
232
58
144
103
219
169
254
255
219
231
166
194
192
75
220
243
177
207
245
168
73
165
161
105
236
182
255
242
137
176
128
139
195
255
97
205
255
175
199
154
196
180
112
194
189
231
215
111
151
230
255
255
85
210
79
241
255
210
78
136
255
255
255
255
224
255
154
134
255
255
255
167
111
222
125
102
251
190
164
204
248
56
125
246
175
203
184
250
107
160
203
145
255
84
117
244
255
97
119
82
250
255
165
138
255
207
210
128
93
255
52
122
191
63
157
58
66
255
178
56
255
150
255
156
84
255
92
228
199
171
74
204
118
233
203
190
101
104
94
184
105
155
233
255
255
143
188
239
87
232
255
255
155
76
255
165
145
204
255
123
175
75
238
102
57
255
55
77
91
254
198
78
238
191
58
119
116
255
113
86
255
251
255
240
164
93
62
148
219
103
156
197
119
188
255
177
115
56
255
166
255
172
114
246
187
255
136
212
85
206
118
92
202
255
62
142
85
122
243
136
79
255
213
255
219
86
92
97
255
96
93
208
219
210
72
255
198
247
196
199
255
208
102
203
255
225
255
92
220
168
156
183
166
127
255
221
229
251
175
149
160
255
139
168
94
255
255
102
204
61
215
231
155
215
255
97
231
219
255
209
167
94
50
243
255
146
54
255
96
144
190
223
202
173
82
68
170
205
171
172
125
90
147
255
255
211
194
223
105
255
219
129
162
145
189
244
126
151
225
255
122
186
52
160
186
122
73
61
190
228
111
134
73
131
77
240
164
113
68
255
244
95
255
239
255
58
95
69
233
221
255
91
221
178
54
175
229
166
68
247
116
152
72
168
136
101
255
255
61
133
187
104
158
255
187
53
161
253
245
255
121
66
58
255
130
204
201
180
242
60
255
255
255
106
255
255
229
52
122
76
173
121
87
84
255
72
101
53
165
52
200
207
61
112
230
166
211
165
255
142
64
53
80
236
205
209
255
255
255
112
192
255
255
212
255
134
118
236
50
255
143
104
175
243
191
55
111
255
171
255
56
97
255
61
255
242
209
165
221
229
53
148
62
117
208
132
193
255
255
68
255
204
225
255
119
255
65
209
81
50
81
151
221
255
199
188
197
255
188
255
183
255
255
255
255
77
184
255
255
198
135
255
190
236
200
79
218
159
197
105
89
251
135
255
75
88
101
108
216
188
127
227
111
255
162
227
72
147
99
129
255
234
186
255
255
59
125
159
210
93
132
116
77
94
84
220
176
255
215
101
50
64
175
245
253
253
88
154
101
99
235
126
126
132
107
91
190
127
255
76
171
202
70
134
255
75
137
173
85
95
98
187
255
255
61
92
160
95
255
204
157
123
91
255
197
203
97
122
169
62
235
180
86
135
254
87
255
91
128
209
92
255
98
112
75
251
147
255
254
86
119
105
66
102
235
134
186
160
251
157
157
248
150
255
143
162
77
150
255
252
255
229
164
108
86
255
255
107
255
110
115
119
139
70
223
52
255
222
255
199
197
204
255
84
169
150
223
62
181
170
66
255
64
255
157
219
68
67
117
60
62
255
174
203
255
255
215
234
214
156
191
179
133
159
189
130
173
248
56
151
132
255
70
139
164
228
170
74
255
255
69
159
232
255
255
189
237
79
217
103
111
248
125
77
70
126
200
135
67
67
132
243
255
227
112
158
158
255
255
50
113
90
129
178
97
163
68
54
143
255
114
255
239
239
57
221
105
255
226
237
255
69
85
154
255
158
115
182
255
205
255
186
138
180
97
255
255
254
255
255
163
163
175
255
123
52
234
226
111
219
255
223
248
173
103
210
72
106
69
255
201
156
255
215
178
174
129
144
255
255
125
255
234
171
203
253
196
255
168
130
255
255
94
127
213
149
83
70
255
192
210
209
175
173
81
83
118
144
255
245
67
255
141
240
255
125
163
193
66
255
75
60
94
250
255
136
52
52
150
255
180
129
255
72
241
135
216
131
158
255
198
128
203
255
208
148
164
240
255
161
177
230
196
241
255
255
55
225
145
255
124
180
182
103
161
158
202
117
121
250
140
190
255
215
222
208
255
119
150
241
136
249
110
255
85
90
255
200
223
255
171
188
214
190
255
255
205
255
147
221
92
133
134
251
77
113
200
124
111
255
189
237
191
171
136
255
155
52
211
63
255
101
93
255
255
242
255
81
175
219
153
255
255
243
166
63
255
149
255
164
135
216
199
77
145
166
247
177
119
218
189
101
167
125
198
183
115
239
255
251
255
160
73
255
192
146
139
155
79
117
90
122
107
254
123
255
105
73
80
81
144
205
185
80
141
255
213
165
209
197
135
236
102
148
172
255
237
113
231
255
71
70
243
74
176
95
107
167
227
242
253
128
206
56
199
180
100
155
82
65
89
255
233
170
155
135
255
223
74
189
169
153
175
181
107
163
88
71
55
228
215
255
255
208
152
171
255
127
139
255
228
143
211
255
223
115
192
129
124
114
220
248
83
181
255
109
140
178
246
53
177
113
233
255
146
206
52
255
255
159
255
178
255
255
255
77
84
255
135
242
134
255
150
205
81
188
241
84
130
75
215
126
100
