P3
50 40
255
77
55
44
89
3
156
174
21
0
230
85
27
7
159
1
113
50
186
195
26
94
51
106
76
200
208
243
66
234
8
107
227
46
107
45
64
58
251
69
208
97
212
32
140
134
112
71
185
242
196
215
169
185
195
165
155
3
27
141
219
135
85
169
57
144
17
125
178
35
49
3
206
215
92
133
200
157
15
3
5
58
237
65
120
102
30
50
8
155
136
114
62
207
235
153
252
249
238
97
196
70
81
18
50
137
32
28
81
74
66
22
153
165
199
204
136
0
175
205
22
236
33
73
220
93
120
237
35
41
97
85
125
213
183
14
0
95
60
74
9
155
224
204
7
150
69
235
42
20
245
7
249
111
141
252
154
64
197
181
245
227
7
253
157
234
11
95
142
93
54
40
141
100
72
124
211
186
229
43
82
78
88
93
19
118
167
177
187
23
131
155
158
38
132
32
225
246
75
15
53
121
171
190
161
140
13
196
99
59
220
169
54
183
231
121
67
41
18
155
144
195
123
218
126
96
78
206
233
165
250
243
185
6
119
214
81
38
129
46
240
156
228
145
235
33
53
26
9
139
160
245
147
162
69
74
161
174
87
76
48
152
112
253
21
53
118
124
136
241
10
99
121
87
107
100
214
78
118
63
155
46
32
84
55
80
17
212
172
87
155
104
199
85
69
128
177
215
30
21
36
14
80
17
182
163
221
54
194
63
52
82
252
67
134
71
103
201
182
107
228
230
70
68
1
159
240
10
228
218
61
83
130
151
212
185
209
171
198
252
157
246
7
202
184
237
129
86
26
103
143
237
94
182
23
145
98
186
27
70
76
46
34
115
52
244
158
58
124
221
8
250
71
158
22
219
204
54
142
246
77
190
3
106
61
192
89
55
135
236
45
20
26
216
240
6
106
55
184
60
251
82
247
74
45
101
138
41
13
179
136
193
178
29
8
195
89
153
151
72
47
112
192
23
215
84
65
246
88
129
0
22
40
102
62
236
25
249
18
51
162
105
115
97
130
21
110
153
134
210
107
162
8
80
199
43
127
20
121
153
164
98
103
214
168
200
160
104
147
159
139
239
183
102
196
106
189
1
28
163
202
153
152
109
147
168
217
41
128
76
115
202
77
188
10
156
28
44
73
106
32
182
81
162
139
206
139
44
179
189
155
7
210
136
204
35
113
217
6
94
210
62
247
124
48
86
73
161
213
234
69
239
220
8
4
4
12
228
243
99
247
168
136
168
247
56
32
205
50
159
34
129
177
242
195
229
150
9
77
185
156
226
67
184
55
209
204
212
148
17
112
45
1
211
192
3
23
115
174
31
249
32
58
230
228
19
113
160
52
247
243
200
211
236
113
116
132
251
236
103
143
205
32
177
26
100
67
71
179
141
46
2
189
186
140
70
36
85
108
41
145
22
221
122
204
188
214
48
146
69
181
73
224
179
141
1
131
3
74
239
128
158
252
141
102
140
5
86
8
161
149
68
159
46
117
56
56
117
82
175
67
54
44
145
173
128
205
193
134
97
49
97
154
124
178
91
65
139
235
11
100
215
38
176
17
118
80
17
170
216
223
119
200
136
14
17
135
254
136
109
153
252
102
91
120
105
212
121
100
120
246
49
95
143
37
227
187
121
172
182
223
218
154
107
122
236
115
185
119
0
227
78
181
98
247
153
182
253
229
172
4
126
180
81
246
166
85
91
23
195
218
214
58
130
150
62
238
6
140
186
13
115
226
86
8
49
253
130
87
183
5
41
170
45
15
222
45
160
55
14
164
104
92
156
197
29
61
130
201
18
9
209
101
168
202
237
195
104
96
184
54
191
172
68
70
186
117
205
108
38
125
77
13
94
6
120
178
84
110
42
249
40
14
163
20
153
75
139
29
252
2
239
251
7
99
96
221
205
208
181
187
66
142
110
199
149
96
93
69
195
69
160
231
140
159
154
41
158
197
11
150
40
16
103
125
204
146
108
167
141
64
22
38
131
40
233
220
189
7
30
145
86
145
128
133
237
132
51
217
140
84
9
143
85
128
251
169
198
133
62
224
114
2
135
121
208
69
1
247
159
186
53
160
125
45
151
56
89
200
38
148
208
40
32
103
52
42
81
242
2
101
190
29
21
79
18
143
127
254
105
17
186
147
125
157
113
85
77
122
65
222
138
52
234
229
92
151
87
217
161
235
49
87
112
246
135
30
115
130
198
35
111
84
154
220
112
238
185
16
130
28
50
238
162
201
168
2
50
67
86
180
2
48
121
51
93
152
161
14
220
9
113
16
104
42
184
144
149
252
47
178
236
46
53
197
238
40
30
163
102
241
141
41
134
52
216
253
149
201
151
17
206
174
204
112
108
240
98
252
154
15
19
120
48
52
123
104
111
163
254
10
193
246
192
248
49
108
93
206
135
134
199
4
248
95
210
207
194
139
231
233
148
102
47
176
49
191
142
94
88
253
173
63
60
112
199
94
169
196
228
76
207
141
79
35
31
184
192
36
211
33
167
196
247
227
218
95
30
96
138
45
226
239
77
219
137
9
104
166
71
112
229
113
59
63
65
6
169
5
17
156
180
159
85
133
136
123
246
100
72
19
91
154
10
92
207
75
192
124
15
177
11
251
122
249
236
192
97
186
199
3
68
123
24
119
136
164
149
68
126
127
120
202
95
115
234
69
147
168
92
102
214
185
216
137
123
30
4
58
166
19
96
131
75
152
179
25
209
15
40
19
246
5
148
3
215
163
104
179
91
57
203
146
148
159
238
151
11
170
40
24
208
49
177
34
240
174
246
135
81
182
49
89
244
112
128
140
47
151
120
41
179
250
211
227
249
226
43
180
80
153
210
86
178
11
194
70
89
233
204
3
13
115
102
176
44
169
176
108
62
154
112
172
146
112
230
77
184
233
180
148
55
74
62
168
143
241
95
143
86
120
91
48
247
31
194
175
43
205
159
223
252
183
122
235
230
109
147
110
183
62
218
31
9
124
53
177
179
154
154
57
222
26
169
237
15
42
192
205
191
74
54
126
8
161
68
38
124
98
83
13
145
17
124
44
50
148
30
64
46
155
21
166
105
210
54
64
56
20
150
7
197
173
45
51
253
204
99
110
61
26
26
236
147
240
57
113
79
98
51
26
35
37
199
21
148
207
117
13
199
191
210
96
216
22
17
186
248
7
212
9
101
131
27
125
38
53
239
95
74
173
96
101
224
195
75
35
220
27
84
34
161
160
91
62
133
241
47
172
16
247
33
101
44
56
202
170
134
99
247
254
39
252
129
235
201
251
191
36
9
65
3
76
131
45
215
68
236
167
1
167
161
22
84
0
237
62
124
45
30
175
124
84
136
186
0
16
164
238
153
62
60
15
149
216
74
238
67
244
180
236
220
151
222
26
54
77
42
203
15
136
134
226
124
123
246
136
120
51
79
73
91
145
72
230
53
14
195
12
113
241
154
35
234
83
164
251
116
85
8
79
192
46
61
199
156
216
178
109
193
13
226
62
173
4
118
6
24
192
85
79
178
152
18
113
240
164
213
130
183
120
153
84
222
176
103
246
176
60
68
131
178
76
200
123
96
189
75
160
26
25
105
65
167
89
236
214
157
16
142
128
201
73
71
252
216
14
149
178
25
62
63
98
198
242
177
19
212
137
121
81
10
230
201
125
88
40
116
226
66
18
232
130
2
32
44
32
235
241
100
168
30
92
31
92
78
182
230
144
208
221
22
163
156
126
210
189
247
44
5
229
152
126
43
109
53
72
170
86
74
167
144
215
97
231
105
37
119
157
24
138
21
196
124
141
85
78
165
244
49
54
22
194
139
140
14
80
20
184
231
81
173
47
90
232
22
75
193
201
7
10
68
178
108
121
249
246
253
83
174
11
115
178
140
116
181
214
173
177
197
100
158
81
174
99
0
244
30
141
31
190
104
65
110
210
43
243
199
81
183
138
235
83
52
180
253
102
43
75
103
100
45
188
177
68
144
70
105
192
201
6
130
95
15
220
76
172
228
91
207
251
170
147
143
39
132
104
27
249
90
138
235
52
1
151
96
69
49
147
5
13
195
212
46
120
59
191
30
38
1
233
20
79
59
197
59
69
18
235
225
92
230
3
96
124
251
183
74
72
120
82
3
72
139
20
113
194
249
69
33
172
103
140
113
157
226
19
79
184
167
8
135
51
165
36
179
50
110
159
4
123
40
180
103
9
104
27
96
17
171
140
223
91
165
151
241
172
40
128
27
191
2
237
76
12
230
19
8
146
230
240
184
105
197
61
118
33
113
227
15
55
161
185
199
35
20
79
131
9
233
93
129
235
188
226
62
25
74
99
146
214
125
236
113
20
22
225
138
80
200
126
220
139
136
150
75
151
16
46
199
216
82
100
20
43
205
189
254
72
71
132
216
19
74
223
226
215
98
100
115
3
156
51
89
74
102
47
212
90
102
17
9
246
188
7
100
90
231
94
135
172
76
60
71
171
59
78
71
132
163
164
231
118
113
170
142
98
178
1
91
44
64
151
127
123
65
203
19
200
224
91
47
57
204
202
87
247
199
125
50
50
207
216
33
226
113
212
160
244
49
231
56
203
182
71
116
84
50
217
245
135
150
151
138
74
191
172
132
107
240
12
219
209
91
17
243
85
121
207
120
86
252
188
203
251
212
159
105
246
173
13
26
63
108
77
17
222
132
160
100
68
237
77
155
225
125
69
171
173
162
134
179
6
128
210
144
177
181
63
250
92
171
210
240
34
121
155
209
94
159
248
218
36
139
242
155
5
211
27
77
67
110
221
4
165
87
116
0
70
203
95
88
70
220
47
8
95
217
226
92
102
33
229
233
213
253
115
11
65
187
148
207
247
157
184
109
221
108
150
176
81
173
28
207
103
158
121
49
82
184
54
85
177
108
236
46
90
95
253
194
218
23
24
78
120
228
240
167
169
165
145
202
78
247
17
252
20
187
231
41
160
39
53
169
87
184
146
106
142
112
57
36
82
202
137
25
113
190
177
173
214
102
6
156
191
167
178
138
123
48
93
103
99
140
60
64
134
101
100
131
49
18
5
251
102
225
90
182
113
204
107
64
59
133
104
231
83
33
62
127
6
127
106
76
225
204
36
136
241
111
250
91
125
192
30
73
221
95
127
118
89
27
71
62
233
187
110
5
68
82
134
213
193
14
122
77
138
124
170
154
181
131
70
196
66
78
248
117
232
67
22
51
210
42
248
114
64
206
98
98
22
162
52
227
176
122
236
211
228
169
102
75
146
241
225
2
208
142
24
13
80
62
137
102
54
91
139
48
220
77
149
75
184
227
146
60
239
58
172
109
111
160
70
91
72
125
88
165
138
23
237
214
31
167
104
185
226
30
184
166
52
117
144
101
15
177
212
206
42
19
248
120
31
54
115
107
203
185
156
169
240
126
199
236
227
88
106
8
37
172
225
140
29
12
112
234
11
139
185
11
15
129
151
67
59
82
132
184
106
116
245
87
91
194
58
195
81
211
59
150
74
86
254
35
206
35
236
238
34
88
223
78
1
161
141
220
111
205
76
90
116
120
1
236
152
144
1
215
24
24
58
168
234
27
225
8
52
23
186
221
66
153
76
137
25
126
140
240
7
227
156
182
206
43
47
34
159
53
190
25
139
31
233
112
251
98
49
153
115
170
97
97
209
184
185
160
95
95
57
152
60
19
104
156
147
127
216
106
146
180
239
229
219
235
195
120
220
190
57
115
84
138
205
240
2
101
39
159
116
162
207
162
111
101
221
135
120
219
109
194
224
181
251
17
104
252
232
159
75
58
109
240
89
141
118
120
178
56
241
185
178
232
128
151
251
246
171
56
178
164
191
178
75
12
95
212
35
195
230
135
238
15
110
127
18
106
102
170
149
145
27
128
71
201
5
221
188
49
0
205
12
179
60
21
23
18
31
56
62
37
77
222
98
57
86
178
27
19
94
120
83
232
132
38
15
84
138
85
243
74
5
55
104
251
196
15
251
102
69
168
250
9
215
217
136
199
148
164
45
111
91
45
33
220
29
120
36
241
90
78
74
27
97
108
169
144
246
77
220
55
135
142
104
54
111
30
244
148
195
219
51
132
174
126
74
68
16
116
24
4
235
253
216
36
156
149
121
92
159
82
77
157
58
80
16
88
230
187
91
31
82
212
103
49
93
13
25
48
69
0
201
145
81
176
45
101
12
0
140
154
19
67
172
209
190
14
19
212
11
249
109
43
227
44
202
202
33
218
8
142
83
126
249
172
97
239
224
38
254
61
249
209
191
229
191
235
111
162
226
247
167
29
148
148
74
22
76
243
239
186
25
133
232
20
242
185
139
47
16
16
82
17
247
186
104
224
7
13
200
77
226
183
190
157
82
177
234
201
109
234
66
186
65
189
142
169
57
246
198
129
4
180
148
61
33
243
98
193
68
218
195
245
229
234
216
207
136
6
3
33
3
122
36
46
200
99
169
127
15
205
9
202
12
93
197
174
206
220
51
126
5
158
1
35
145
94
49
56
44
57
170
146
103
106
223
164
197
200
84
114
142
97
135
174
17
133
152
253
149
184
91
220
92
41
164
125
18
11
72
179
211
90
43
25
242
182
119
210
189
18
2
30
107
177
3
178
39
4
233
1
205
176
175
225
151
182
131
139
188
189
33
228
78
144
210
162
215
253
238
76
160
189
213
216
18
216
230
182
108
168
207
244
34
226
30
222
254
162
32
22
152
242
71
109
230
9
82
52
214
208
75
195
90
253
85
65
228
212
84
16
220
228
5
116
111
184
185
211
141
36
126
71
17
125
160
76
152
181
48
52
5
138
65
136
112
141
181
100
113
18
87
88
170
197
35
49
217
64
200
99
11
59
75
232
183
234
165
203
11
132
58
30
254
186
56
17
86
103
225
150
173
148
73
139
215
48
219
195
209
82
117
87
29
26
14
137
21
9
40
36
54
114
63
245
167
63
174
76
152
101
72
59
1
190
101
21
1
126
247
35
176
218
54
196
159
39
221
236
44
95
52
122
11
85
171
82
128
233
181
167
155
107
104
175
204
88
161
254
242
170
104
118
76
147
67
23
13
229
174
249
151
144
242
178
144
207
1
102
117
62
246
169
164
169
108
181
85
48
127
69
196
99
144
63
78
211
65
193
2
58
13
118
243
217
64
105
88
156
120
145
30
177
242
246
107
32
39
206
82
158
111
172
72
195
207
224
81
153
202
58
1
155
186
184
145
2
219
35
87
192
176
69
185
224
115
120
164
90
149
122
198
61
128
169
227
97
19
14
14
52
16
229
153
9
246
237
202
241
226
189
191
214
114
48
241
0
93
41
249
148
191
106
114
75
225
83
77
246
198
49
96
230
101
11
177
250
16
248
35
61
220
92
129
152
142
219
82
201
190
202
174
52
240
44
240
21
152
135
14
120
98
227
164
58
15
140
214
162
3
144
10
252
183
24
164
58
235
246
64
61
116
191
225
17
136
100
230
175
125
186
21
7
240
10
59
6
6
220
243
115
159
213
103
10
60
31
248
94
126
215
254
211
160
121
145
62
67
19
159
231
246
159
203
126
15
182
44
218
79
218
20
155
73
127
214
112
151
62
72
244
209
125
229
2
63
38
129
67
11
123
48
72
117
122
86
116
101
129
141
37
154
224
50
83
107
49
227
103
71
70
151
34
228
167
65
253
127
132
155
15
86
110
198
15
178
62
148
156
221
252
99
130
63
231
12
203
14
34
29
251
177
30
148
68
106
52
153
170
253
243
135
198
106
197
141
203
104
194
89
170
170
117
4
252
214
192
9
103
145
176
41
176
111
116
133
180
13
42
212
232
141
69
248
0
190
6
90
221
149
186
173
134
238
201
113
197
140
227
164
151
156
123
43
23
57
51
15
137
10
155
242
179
43
127
35
160
17
162
22
182
221
100
232
123
77
172
22
254
47
216
229
154
56
190
6
225
22
203
5
166
146
165
185
38
215
125
111
170
62
45
37
37
7
179
86
183
224
124
229
188
164
200
62
182
70
222
7
47
175
185
57
244
102
115
104
30
100
229
129
5
242
37
237
39
202
2
115
142
225
172
144
165
80
77
91
143
210
24
49
88
6
214
52
216
192
66
124
131
162
78
221
38
89
243
253
104
250
88
64
13
125
136
31
133
24
104
210
27
171
129
246
157
148
111
122
163
135
249
189
144
7
167
236
229
30
197
104
58
124
125
12
147
147
21
7
87
24
192
118
82
73
196
237
55
185
28
139
203
117
222
139
86
124
228
137
19
119
57
17
248
166
125
242
184
65
237
149
80
102
223
142
0
205
77
143
92
143
119
49
111
209
245
19
50
172
216
133
149
224
211
55
9
32
194
107
216
80
230
141
243
176
28
81
59
195
126
106
190
114
119
183
14
0
221
7
37
250
89
156
44
169
23
220
170
164
39
4
3
166
46
35
51
58
70
2
107
164
45
224
84
102
20
118
102
66
66
224
197
84
216
37
134
33
34
122
228
44
195
110
5
199
24
37
232
182
226
134
60
89
237
254
132
181
86
21
141
178
233
213
15
118
192
94
26
217
44
177
48
227
42
173
32
116
137
234
54
168
215
88
225
178
122
81
180
122
105
189
104
147
2
209
206
200
189
147
159
44
80
195
181
231
244
35
162
129
18
188
22
51
234
12
222
222
7
3
176
145
97
108
162
77
66
36
226
127
249
51
183
251
129
182
217
37
205
40
116
182
4
3
247
180
178
86
42
49
186
221
39
64
78
186
88
160
168
137
247
84
36
135
19
58
156
40
219
176
123
136
204
137
249
60
46
154
241
22
181
97
25
173
80
212
169
161
206
230
47
63
115
33
18
232
59
49
18
18
26
8
252
98
223
102
192
65
94
232
112
55
93
63
160
149
8
62
83
53
228
30
14
224
77
197
238
167
251
194
142
170
128
27
7
45
75
203
223
205
191
30
175
52
176
44
180
252
199
209
228
182
3
132
28
52
52
42
43
42
24
252
37
124
85
75
63
223
69
186
146
48
234
61
235
170
144
221
135
233
223
15
11
26
38
237
246
30
174
75
159
146
210
87
111
95
240
64
252
253
219
168
178
86
223
48
160
5
167
165
15
15
125
155
122
10
29
199
178
177
239
132
179
154
227
46
85
19
106
250
163
128
191
235
222
47
46
73
250
26
176
129
81
246
239
68
240
174
57
209
3
240
92
224
0
55
54
67
99
77
61
166
241
227
130
44
75
104
234
15
209
89
55
88
37
134
76
253
212
86
179
69
239
232
3
7
164
77
236
26
97
159
236
21
55
222
198
63
121
194
243
70
236
186
151
236
226
0
104
37
236
92
103
191
38
189
23
54
31
111
186
193
224
79
238
129
129
31
221
98
30
239
37
173
153
7
71
22
47
58
115
3
91
130
152
81
25
139
73
203
171
194
229
182
207
200
240
14
105
158
54
101
179
130
17
24
75
203
34
244
4
191
145
180
82
143
221
11
65
5
95
234
30
93
204
50
130
211
144
146
44
173
94
242
91
151
186
68
251
249
72
71
207
22
21
249
75
67
207
181
226
177
180
0
199
232
244
54
98
20
184
23
177
76
206
39
13
119
14
52
119
186
183
251
178
88
65
5
84
61
89
116
152
182
31
39
106
82
170
66
48
217
214
247
52
68
182
213
239
53
16
60
210
26
14
12
189
151
132
130
117
186
52
254
27
223
146
34
160
138
208
83
64
122
135
40
194
150
97
236
46
17
170
12
85
48
11
89
90
127
71
4
214
175
17
165
146
237
76
31
228
16
28
78
224
173
38
222
249
111
206
99
187
166
20
111
239
205
135
11
107
214
147
85
30
213
226
46
35
79
152
133
142
133
250
109
49
2
61
197
84
72
193
61
235
50
52
180
2
185
112
117
69
163
99
51
78
221
39
55
18
232
227
16
155
70
6
21
204
116
186
230
149
45
71
95
239
63
233
93
69
232
171
119
138
138
181
48
76
53
171
170
101
75
223
86
156
228
216
90
8
10
87
21
30
57
106
52
200
96
220
137
38
4
146
65
196
221
1
109
147
224
111
108
9
166
70
249
155
212
22
18
2
219
132
46
173
15
94
119
12
157
108
190
27
89
173
226
65
4
250
183
191
109
85
20
182
68
44
161
183
6
70
10
236
147
218
141
77
102
39
44
60
17
183
26
247
57
35
246
96
125
64
246
88
40
156
88
229
91
55
12
5
254
63
233
248
235
246
94
31
70
142
213
96
50
96
70
154
180
89
158
64
126
46
135
19
156
252
152
218
203
63
180
77
2
51
178
69
84
103
12
130
239
194
7
118
195
161
14
80
127
234
223
224
71
220
146
197
75
184
15
208
78
20
105
127
150
122
0
242
84
254
168
221
162
139
249
128
114
128
198
46
25
89
91
158
164
53
194
86
43
162
44
143
146
212
112
3
141
231
153
154
51
49
195
122
100
129
132
98
221
99
203
78
77
179
79
160
201
128
181
179
72
220
64
176
40
252
160
129
35
22
42
184
10
137
223
225
134
73
68
87
21
72
207
62
75
147
197
133
57
41
132
70
133
241
2
43
10
38
3
115
146
97
74
224
184
147
71
103
241
84
190
132
189
0
30
63
134
127
225
84
61
249
47
40
195
1
96
244
142
46
38
148
51
234
194
236
132
238
155
48
66
170
215
131
104
203
243
108
139
149
229
136
253
46
178
44
235
237
29
81
23
171
136
15
249
182
18
130
25
85
121
175
122
21
48
129
81
222
204
164
92
191
153
135
48
13
239
79
216
168
162
223
157
218
146
15
203
246
197
55
14
9
231
187
145
244
29
37
23
15
235
182
217
233
65
192
61
101
231
29
20
68
58
108
224
200
81
219
40
136
253
73
142
77
84
174
84
238
161
61
226
124
155
17
156
242
237
238
50
182
70
212
180
240
190
187
92
166
214
46
209
181
166
191
90
96
88
125
179
86
132
245
86
241
172
175
125
144
130
125
190
153
158
236
114
80
210
28
30
122
182
8
94
53
169
119
204
247
169
181
116
144
142
25
170
193
127
157
195
118
23
115
111
55
186
132
242
192
87
126
78
89
145
235
47
155
253
125
149
104
146
130
62
144
139
181
165
61
101
180
252
212
35
160
29
191
223
160
28
86
249
216
230
236
174
231
104
84
240
243
245
117
61
172
75
52
201
140
114
154
198
6
75
196
125
153
134
200
57
110
153
95
234
34
67
194
251
47
69
32
200
242
115
88
251
157
160
78
43
216
2
72
141
13
107
8
16
205
128
6
217
100
249
106
34
230
42
178
149
121
24
154
68
183
153
140
51
54
44
134
55
105
183
223
230
93
138
189
37
182
223
212
105
26
247
115
95
154
239
73
125
25
188
52
7
212
5
27
41
204
148
28
188
141
8
69
66
229
63
36
220
201
208
190
114
43
12
98
169
53
106
147
69
138
220
127
65
6
249
116
252
122
64
196
137
217
86
162
35
156
68
42
152
219
12
92
35
72
193
86
29
237
163
220
169
36
42
47
223
46
43
158
169
160
22
218
148
197
146
149
251
158
52
153
215
175
239
42
170
118
106
133
116
77
210
171
179
201
125
99
110
209
89
118
44
211
210
52
154
11
165
181
105
165
214
47
181
169
236
159
117
44
0
193
246
96
4
247
46
94
140
173
152
123
32
18
120
155
121
122
75
40
97
209
226
161
144
173
55
242
169
79
112
95
139
194
76
101
175
254
72
136
2
110
136
72
23
11
140
178
61
84
23
81
27
190
114
63
18
211
194
45
211
189
239
8
45
19
183
171
242
41
171
128
4
125
179
116
18
197
66
102
22
118
86
51
227
211
11
83
137
54
108
216
137
3
111
203
195
224
71
16
8
215
80
154
151
130
192
10
217
207
232
56
221
236
179
2
72
26
123
71
37
34
216
22
51
3
115
2
150
157
11
62
180
116
161
115
249
92
14
3
30
186
155
159
210
245
241
62
142
246
229
162
237
84
68
186
0
229
93
54
125
193
141
5
61
223
121
218
6
47
254
11
220
192
159
115
171
179
3
98
12
67
158
82
143
211
233
18
243
154
175
248
69
216
15
159
31
0
31
101
171
224
149
138
147
231
138
248
133
207
213
240
240
27
134
210
214
148
85
227
140
186
150
29
168
109
147
55
39
201
85
212
25
38
51
58
166
138
77
177
61
205
112
177
22
97
49
79
235
184
136
250
241
9
75
109
160
43
82
66
27
44
34
170
126
238
165
51
0
14
125
195
203
203
38
104
51
49
185
76
76
82
57
41
140
77
250
26
121
152
20
84
219
25
87
123
35
45
48
137
253
252
11
42
110
45
220
154
107
73
41
219
147
153
47
72
119
12
185
130
36
85
204
37
230
41
78
159
42
244
48
62
25
201
97
218
204
36
69
55
16
52
185
84
136
110
201
107
107
198
100
214
93
112
27
100
250
202
228
179
114
58
36
244
208
57
247
60
65
69
89
20
173
2
226
172
208
149
147
154
233
34
119
100
173
12
131
120
16
209
14
241
107
169
18
17
67
10
12
245
124
153
215
244
165
184
164
106
141
129
83
109
139
80
123
198
6
101
82
251
20
89
114
178
120
24
211
226
19
109
182
243
231
139
187
29
167
53
61
198
75
27
20
76
150
85
17
17
82
193
237
177
62
108
108
222
245
0
63
40
79
128
47
113
18
4
93
216
64
243
189
189
7
171
55
232
176
187
228
19
35
104
250
108
65
132
241
155
222
136
88
130
47
241
239
204
239
212
113
113
125
253
73
2
184
176
61
169
218
173
198
123
53
160
22
56
19
224
151
106
205
165
128
124
79
94
234
212
75
251
184
121
153
203
146
225
118
80
245
236
44
77
163
99
33
20
236
142
160
159
125
123
31
33
68
94
218
195
17
251
91
190
242
75
113
143
16
248
25
10
44
200
222
86
2
2
100
249
130
79
209
22
191
85
166
81
108
226
148
78
153
209
158
98
114
190
211
111
127
180
146
191
207
253
5
175
95
206
74
130
132
53
111
108
152
67
71
200
90
140
252
165
172
158
243
69
100
191
86
199
60
219
35
40
247
150
173
214
121
138
164
140
246
239
155
232
97
171
42
83
84
201
27
63
150
74
61
227
139
187
141
121
86
234
105
2
161
13
208
51
43
236
208
192
253
31
125
169
103
222
254
193
116
13
217
99
239
114
85
166
149
27
95
116
197
127
69
168
139
51
117
75
148
133
65
189
251
201
253
110
23
243
142
96
89
105
29
67
40
72
57
204
73
251
55
23
30
31
94
155
135
30
91
240
163
115
159
147
85
186
52
98
122
252
187
63
181
215
21
20
193
24
126
45
57
117
177
192
203
78
156
6
149
130
50
105
32
15
39
207
183
120
105
85
237
173
24
139
119
103
125
131
57
113
38
21
5
178
165
216
243
158
102
121
229
77
89
206
178
93
161
251
173
65
142
79
74
64
170
198
33
131
231
59
90
128
196
3
127
63
183
207
96
156
2
245
254
109
233
128
239
220
208
27
34
243
85
192
84
248
100
155
31
138
191
34
80
25
165
76
50
