P3
50 40
255
27
5
0
39
0
106
124
0
0
180
35
0
0
109
0
63
0
136
145
0
44
1
56
26
150
158
193
16
184
0
57
177
0
57
0
14
8
201
19
158
47
162
0
90
84
62
21
135
192
146
165
119
135
145
115
105
0
0
91
169
85
35
119
7
94
0
75
128
0
0
0
156
165
42
83
150
107
0
0
0
8
187
15
70
52
0
0
0
105
86
64
12
157
185
103
202
199
188
47
146
20
31
0
0
87
0
0
31
24
16
0
103
115
149
154
86
0
125
155
0
186
0
23
170
43
70
187
0
0
47
35
75
163
133
0
0
45
10
24
0
105
174
154
0
100
19
185
0
0
195
0
199
61
91
202
104
14
147
131
195
177
0
203
107
184
0
45
92
43
4
0
91
50
22
74
161
136
179
0
32
28
38
43
0
68
117
127
137
0
81
105
108
0
82
0
175
196
25
0
3
71
121
140
111
90
0
146
49
9
170
119
4
133
181
71
17
0
0
105
94
145
73
168
76
46
28
156
183
115
200
193
135
0
69
164
31
0
79
0
190
106
178
95
185
0
3
0
0
89
110
195
97
112
19
24
111
124
37
26
0
102
62
203
0
3
68
74
86
191
0
49
71
37
57
50
164
28
68
13
105
0
0
34
5
30
0
162
122
37
105
54
149
35
19
78
127
165
0
0
0
0
30
0
132
113
171
4
144
13
2
32
202
17
84
21
53
151
132
57
178
180
20
18
0
109
190
0
178
168
11
33
80
101
162
135
159
121
148
202
107
196
0
152
134
187
79
36
0
53
93
187
44
132
0
95
48
136
0
20
26
0
0
65
2
194
108
8
74
171
0
200
21
108
0
169
154
4
92
196
27
140
0
56
11
142
39
5
85
186
0
0
0
166
190
0
56
5
134
10
201
32
197
24
0
51
88
0
0
129
86
143
128
0
0
145
39
103
101
22
0
62
142
0
165
34
15
196
38
79
0
0
0
52
12
186
0
199
0
1
112
55
65
47
80
0
60
103
84
160
57
112
0
30
149
0
77
0
71
103
114
48
53
164
118
150
110
54
97
109
89
189
133
52
146
56
139
0
0
113
152
103
102
59
97
118
167
0
78
26
65
152
27
138
0
106
0
0
23
56
0
132
31
112
89
156
89
0
129
139
105
0
160
86
154
0
63
167
0
44
160
12
197
74
0
36
23
111
163
184
19
189
170
0
0
0
0
178
193
49
197
118
86
118
197
6
0
155
0
109
0
79
127
192
145
179
100
0
27
135
106
176
17
134
5
159
154
162
98
0
62
0
0
161
142
0
0
65
124
0
199
0
8
180
178
0
63
110
2
197
193
150
161
186
63
66
82
201
186
53
93
155
0
127
0
50
17
21
129
91
0
0
139
136
90
20
0
35
58
0
95
0
171
72
154
138
164
0
96
19
131
23
174
129
91
0
81
0
24
189
78
108
202
91
52
90
0
36
0
111
99
18
109
0
67
6
6
67
32
125
17
4
0
95
123
78
155
143
84
47
0
47
104
74
128
41
15
89
185
0
50
165
0
126
0
68
30
0
120
166
173
69
150
86
0
0
85
204
86
59
103
202
52
41
70
55
162
71
50
70
196
0
45
93
0
177
137
71
122
132
173
168
104
57
72
186
65
135
69
0
177
28
131
48
197
103
132
203
179
122
0
76
130
31
196
116
35
41
0
145
168
164
8
80
100
12
188
0
90
136
0
65
176
36
0
0
203
80
37
133
0
0
120
0
0
172
0
110
5
0
114
54
42
106
147
0
11
80
151
0
0
159
51
118
152
187
145
54
46
134
4
141
122
18
20
136
67
155
58
0
75
27
0
44
0
70
128
34
60
0
199
0
0
113
0
103
25
89
0
202
0
189
201
0
49
46
171
155
158
131
137
16
92
60
149
99
46
43
19
145
19
110
181
90
109
104
0
108
147
0
100
0
0
53
75
154
96
58
117
91
14
0
0
81
0
183
170
139
0
0
95
36
95
78
83
187
82
1
167
90
34
0
93
35
78
201
119
148
83
12
174
64
0
85
71
158
19
0
197
109
136
3
110
75
0
101
6
39
150
0
98
158
0
0
53
2
0
31
192
0
51
140
0
0
29
0
93
77
204
55
0
136
97
75
107
63
35
27
72
15
172
88
2
184
179
42
101
37
167
111
185
0
37
62
196
85
0
65
80
148
0
61
34
104
170
62
188
135
0
80
0
0
188
112
151
118
0
0
17
36
130
0
0
71
1
43
102
111
0
170
0
63
0
54
0
134
94
99
202
0
128
186
0
3
147
188
0
0
113
52
191
91
0
84
2
166
203
99
151
101
0
156
124
154
62
58
190
48
202
104
0
0
70
0
2
73
54
61
113
204
0
143
196
142
198
0
58
43
156
85
84
149
0
198
45
160
157
144
89
181
183
98
52
0
126
0
141
92
44
38
203
123
13
10
62
149
44
119
146
178
26
157
91
29
0
0
134
142
0
161
0
117
146
197
177
168
45
0
46
88
0
176
189
27
169
87
0
54
116
21
62
179
63
9
13
15
0
119
0
0
106
130
109
35
83
86
73
196
50
22
0
41
104
0
42
157
25
142
74
0
127
0
201
72
199
186
142
47
136
149
0
18
73
0
69
86
114
99
18
76
77
70
152
45
65
184
19
97
118
42
52
164
135
166
87
73
0
0
8
116
0
46
81
25
102
129
0
159
0
0
0
196
0
98
0
165
113
54
129
41
7
153
96
98
109
188
101
0
120
0
0
158
0
127
0
190
124
196
85
31
132
0
39
194
62
78
90
0
101
70
0
129
200
161
177
199
176
0
130
30
103
160
36
128
0
144
20
39
183
154
0
0
65
52
126
0
119
126
58
12
104
62
122
96
62
180
27
134
183
130
98
5
24
12
118
93
191
45
93
36
70
41
0
197
0
144
125
0
155
109
173
202
133
72
185
180
59
97
60
133
12
168
0
0
74
3
127
129
104
104
7
172
0
119
187
0
0
142
155
141
24
4
76
0
111
18
0
74
48
33
0
95
0
74
0
0
98
0
14
0
105
0
116
55
160
4
14
6
0
100
0
147
123
0
1
203
154
49
60
11
0
0
186
97
190
7
63
29
48
1
0
0
0
149
0
98
157
67
0
149
141
160
46
166
0
0
136
198
0
162
0
51
81
0
75
0
3
189
45
24
123
46
51
174
145
25
0
170
0
34
0
111
110
41
12
83
191
0
122
0
197
0
51
0
6
152
120
84
49
197
204
0
202
79
185
151
201
141
0
0
15
0
26
81
0
165
18
186
117
0
117
111
0
34
0
187
12
74
0
0
125
74
34
86
136
0
0
114
188
103
12
10
0
99
166
24
188
17
194
130
186
170
101
172
0
4
27
0
153
0
86
84
176
74
73
196
86
70
1
29
23
41
95
22
180
3
0
145
0
63
191
104
0
184
33
114
201
66
35
0
29
142
0
11
149
106
166
128
59
143
0
176
12
123
0
68
0
0
142
35
29
128
102
0
63
190
114
163
80
133
70
103
34
172
126
53
196
126
10
18
81
128
26
150
73
46
139
25
110
0
0
55
15
117
39
186
164
107
0
92
78
151
23
21
202
166
0
99
128
0
12
13
48
148
192
127
0
162
87
71
31
0
180
151
75
38
0
66
176
16
0
182
80
0
0
0
0
185
191
50
118
0
42
0
42
28
132
180
94
158
171
0
113
106
76
160
139
197
0
0
179
102
76
0
59
3
22
120
36
24
117
94
165
47
181
55
0
69
107
0
88
0
146
74
91
35
28
115
194
0
4
0
144
89
90
0
30
0
134
181
31
123
0
40
182
0
25
143
151
0
0
18
128
58
71
199
196
203
33
124
0
65
128
90
66
131
164
123
127
147
50
108
31
124
49
0
194
0
91
0
140
54
15
60
160
0
193
149
31
133
88
185
33
2
130
203
52
0
25
53
50
0
138
127
18
94
20
55
142
151
0
80
45
0
170
26
122
178
41
157
201
120
97
93
0
82
54
0
199
40
88
185
2
0
101
46
19
0
97
0
0
145
162
0
70
9
141
0
0
0
183
0
29
9
147
9
19
0
185
175
42
180
0
46
74
201
133
24
22
70
32
0
22
89
0
63
144
199
19
0
122
53
90
63
107
176
0
29
134
117
0
85
1
115
0
129
0
60
109
0
73
0
130
53
0
54
0
46
0
121
90
173
41
115
101
191
122
0
78
0
141
0
187
26
0
180
0
0
96
180
190
134
55
147
11
68
0
63
177
0
5
111
135
149
0
0
29
81
0
183
43
79
185
138
176
12
0
24
49
96
164
75
186
63
0
0
175
88
30
150
76
170
89
86
100
25
101
0
0
149
166
32
50
0
0
155
139
204
22
21
82
166
0
24
173
176
165
48
50
65
0
106
1
39
24
52
0
162
40
52
0
0
196
138
0
50
40
181
44
85
122
26
10
21
121
9
28
21
82
113
114
181
68
63
120
92
48
128
0
41
0
14
101
77
73
15
153
0
150
174
41
0
7
154
152
37
197
149
75
0
0
157
166
0
176
63
162
110
194
0
181
6
153
132
21
66
34
0
167
195
85
100
101
88
24
141
122
82
57
190
0
169
159
41
0
193
35
71
157
70
36
202
138
153
201
162
109
55
196
123
0
0
13
58
27
0
172
82
110
50
18
187
27
105
175
75
19
121
123
112
84
129
0
78
160
94
127
131
13
200
42
121
160
190
0
71
105
159
44
109
198
168
0
89
192
105
0
161
0
27
17
60
171
0
115
37
66
0
20
153
45
38
20
170
0
0
45
167
176
42
52
0
179
183
163
203
65
0
15
137
98
157
197
107
134
59
171
58
100
126
31
123
0
157
53
108
71
0
32
134
4
35
127
58
186
0
40
45
203
144
168
0
0
28
70
178
190
117
119
115
95
152
28
197
0
202
0
137
181
0
110
0
3
119
37
134
96
56
92
62
7
0
32
152
87
0
63
140
127
123
164
52
0
106
141
117
128
88
73
0
43
53
49
90
10
14
84
51
50
81
0
0
0
201
52
175
40
132
63
154
57
14
9
83
54
181
33
0
12
77
0
77
56
26
175
154
0
86
191
61
200
41
75
142
0
23
171
45
77
68
39
0
21
12
183
137
60
0
18
32
84
163
143
0
72
27
88
74
120
104
131
81
20
146
16
28
198
67
182
17
0
1
160
0
198
64
14
156
48
48
0
112
2
177
126
72
186
161
178
119
52
25
96
191
175
0
158
92
0
0
30
12
87
52
4
41
89
0
170
27
99
25
134
177
96
10
189
8
122
59
61
110
20
41
22
75
38
115
88
0
187
164
0
117
54
135
176
0
134
116
2
67
94
51
0
127
162
156
0
0
198
70
0
4
65
57
153
135
106
119
190
76
149
186
177
38
56
0
0
122
175
90
0
0
62
184
0
89
135
0
0
79
101
17
9
32
82
134
56
66
195
37
41
144
8
145
31
161
9
100
24
36
204
0
156
0
186
188
0
38
173
28
0
111
91
170
61
155
26
40
66
70
0
186
102
94
0
165
0
0
8
118
184
0
175
0
2
0
136
171
16
103
26
87
0
76
90
190
0
177
106
132
156
0
0
0
109
3
140
0
89
0
183
62
201
48
0
103
65
120
47
47
159
134
135
110
45
45
7
102
10
0
54
106
97
77
166
56
96
130
189
179
169
185
145
70
170
140
7
65
34
88
155
190
0
51
0
109
66
112
157
112
61
51
171
85
70
169
59
144
174
131
201
0
54
202
182
109
25
8
59
190
39
91
68
70
128
6
191
135
128
182
78
101
201
196
121
6
128
114
141
128
25
0
45
162
0
145
180
85
188
0
60
77
0
56
52
120
99
95
0
78
21
151
0
171
138
0
0
155
0
129
10
0
0
0
0
6
12
0
27
172
48
7
36
128
0
0
44
70
33
182
82
0
0
34
88
35
193
24
0
5
54
201
146
0
201
52
19
118
200
0
165
167
86
149
98
114
0
61
41
0
0
170
0
70
0
191
40
28
24
0
47
58
119
94
196
27
170
5
85
92
54
4
61
0
194
98
145
169
1
82
124
76
24
18
0
66
0
0
185
203
166
0
106
99
71
42
109
32
27
107
8
30
0
38
180
137
41
0
32
162
53
0
43
0
0
0
19
0
151
95
31
126
0
51
0
0
90
104
0
17
122
159
140
0
0
162
0
199
59
0
177
0
152
152
0
168
0
92
33
76
199
122
47
189
174
0
204
11
199
159
141
179
141
185
61
112
176
197
117
0
98
98
24
0
26
193
189
136
0
83
182
0
192
135
89
0
0
0
32
0
197
136
54
174
0
0
150
27
176
133
140
107
32
127
184
151
59
184
16
136
15
139
92
119
7
196
148
79
0
130
98
11
0
193
48
143
18
168
145
195
179
184
166
157
86
0
0
0
0
72
0
0
150
49
119
77
0
155
0
152
0
43
147
124
156
170
1
76
0
108
0
0
95
44
0
6
0
7
120
96
53
56
173
114
147
150
34
64
92
47
85
124
0
83
102
203
99
134
41
170
42
0
114
75
0
0
22
129
161
40
0
0
192
132
69
160
139
0
0
0
57
127
0
128
0
0
183
0
155
126
125
175
101
132
81
89
138
139
0
178
28
94
160
112
165
203
188
26
110
139
163
166
0
166
180
132
58
118
157
194
0
176
0
172
204
112
0
0
102
192
21
59
180
0
32
2
164
158
25
145
40
203
35
15
178
162
34
0
170
178
0
66
61
134
135
161
91
0
76
21
0
75
110
26
102
131
0
2
0
88
15
86
62
91
131
50
63
0
37
38
120
147
0
0
167
14
150
49
0
9
25
182
133
184
115
153
0
82
8
0
204
136
6
0
36
53
175
100
123
98
23
89
165
0
169
145
159
32
67
37
0
0
0
87
0
0
0
0
4
64
13
195
117
13
124
26
102
51
22
9
0
140
51
0
0
76
197
0
126
168
4
146
109
0
171
186
0
45
2
72
0
35
121
32
78
183
131
117
105
57
54
125
154
38
111
204
192
120
54
68
26
97
17
0
0
179
124
199
101
94
192
128
94
157
0
52
67
12
196
119
114
119
58
131
35
0
77
19
146
49
94
13
28
161
15
143
0
8
0
68
193
167
14
55
38
106
70
95
0
127
192
196
57
0
0
156
32
108
61
122
22
145
157
174
31
103
152
8
0
105
136
134
95
0
169
0
37
142
126
19
135
174
65
70
114
40
99
72
148
11
78
119
177
47
0
0
0
2
0
179
103
0
196
187
152
191
176
139
141
164
64
0
191
0
43
0
199
98
141
56
64
25
175
33
27
196
148
0
46
180
51
0
127
200
0
198
0
11
170
42
79
102
92
169
32
151
140
152
124
2
190
0
190
0
102
85
0
70
48
177
114
8
0
90
164
112
0
94
0
202
133
0
114
8
185
196
14
11
66
141
175
0
86
50
180
125
75
136
0
0
190
0
9
0
0
170
193
65
109
163
53
0
10
0
198
44
76
165
204
161
110
71
95
12
17
0
109
181
196
109
153
76
0
132
0
168
29
168
0
105
23
77
164
62
101
12
22
194
159
75
179
0
13
0
79
17
0
73
0
22
67
72
36
66
51
79
91
0
104
174
0
33
57
0
177
53
21
20
101
0
178
117
15
203
77
82
105
0
36
60
148
0
128
12
98
106
171
202
49
80
13
181
0
153
0
0
0
201
127
0
98
18
56
2
103
120
203
193
85
148
56
147
91
153
54
144
39
120
120
67
0
202
164
142
0
53
95
126
0
126
61
66
83
130
0
0
162
182
91
19
198
0
140
0
40
171
99
136
123
84
188
151
63
147
90
177
114
101
106
73
0
0
7
1
0
87
0
105
192
129
0
77
0
110
0
112
0
132
171
50
182
73
27
122
0
204
0
166
179
104
6
140
0
175
0
153
0
116
96
115
135
0
165
75
61
120
12
0
0
0
0
129
36
133
174
74
179
138
114
150
12
132
20
172
0
0
125
135
7
194
52
65
54
0
50
179
79
0
192
0
187
0
152
0
65
92
175
122
94
115
30
27
41
93
160
0
0
38
0
164
2
166
142
16
74
81
112
28
171
0
39
193
203
54
200
38
14
0
75
86
0
83
0
54
160
0
121
79
196
107
98
61
72
113
85
199
139
94
0
117
186
179
0
147
54
8
74
75
0
97
97
0
0
37
0
142
68
32
23
146
187
5
135
0
89
153
67
172
89
36
74
178
87
0
69
7
0
198
116
75
192
134
15
187
99
30
52
173
92
0
155
27
93
42
93
69
0
61
159
195
0
0
122
166
83
99
174
161
5
0
0
144
57
166
30
180
91
193
126
0
31
9
145
76
56
140
64
69
133
0
0
171
0
0
200
39
106
0
119
0
170
120
114
0
0
0
116
0
0
1
8
20
0
57
114
0
174
34
52
0
68
52
16
16
174
147
34
166
0
84
0
0
72
178
0
145
60
0
149
0
0
182
132
176
84
10
39
187
204
82
131
36
0
91
128
183
163
0
68
142
44
0
167
0
127
0
177
0
123
0
66
87
184
4
118
165
38
175
128
72
31
130
72
55
139
54
97
0
159
156
150
139
97
109
0
30
145
131
181
194
0
112
79
0
138
0
1
184
0
172
172
0
0
126
95
47
58
112
27
16
0
176
77
199
1
133
201
79
132
167
0
155
0
66
132
0
0
197
130
128
36
0
0
136
171
0
14
28
136
38
110
118
87
197
34
0
85
0
8
106
0
169
126
73
86
154
87
199
10
0
104
191
0
131
47
0
123
30
162
119
111
156
180
0
13
65
0
0
182
9
0
0
0
0
0
202
48
173
52
142
15
44
182
62
5
43
13
110
99
0
12
33
3
178
0
0
174
27
147
188
117
201
144
92
120
78
0
0
0
25
153
173
155
141
0
125
2
126
0
130
202
149
159
178
132
0
82
0
2
2
0
0
0
0
202
0
74
35
25
13
173
19
136
96
0
184
11
185
120
94
171
85
183
173
0
0
0
0
187
196
0
124
25
109
96
160
37
61
45
190
14
202
203
169
118
128
36
173
0
110
0
117
115
0
0
75
105
72
0
0
149
128
127
189
82
129
104
177
0
35
0
56
200
113
78
141
185
172
0
0
23
200
0
126
79
31
196
189
18
190
124
7
159
0
190
42
174
0
5
4
17
49
27
11
116
191
177
80
0
25
54
184
0
159
39
5
38
0
84
26
203
162
36
129
19
189
182
0
0
114
27
186
0
47
109
186
0
5
172
148
13
71
144
193
20
186
136
101
186
176
0
54
0
186
42
53
141
0
139
0
4
0
61
136
143
174
29
188
79
79
0
171
48
0
189
0
123
103
0
21
0
0
8
65
0
41
80
102
31
0
89
23
153
121
144
179
132
157
150
190
0
55
108
4
51
129
80
0
0
25
153
0
194
0
141
95
130
32
93
171
0
15
0
45
184
0
43
154
0
80
161
94
96
0
123
44
192
41
101
136
18
201
199
22
21
157
0
0
199
25
17
157
131
176
127
130
0
149
182
194
4
48
0
134
0
127
26
156
0
0
69
0
2
69
136
133
201
128
38
15
0
34
11
39
66
102
132
0
0
56
32
120
16
0
167
164
197
2
18
132
163
189
3
0
10
160
0
0
0
139
101
82
80
67
136
2
204
0
173
96
0
110
88
158
33
14
72
85
0
144
100
47
186
0
0
120
0
35
0
0
39
40
77
21
0
164
125
0
115
96
187
26
0
178
0
0
28
174
123
0
172
199
61
156
49
137
116
0
61
189
155
85
0
57
164
97
35
0
163
176
0
0
29
102
83
92
83
200
59
0
0
11
147
34
22
143
11
185
0
2
130
0
135
62
67
19
113
49
1
28
171
0
5
0
182
177
0
105
20
0
0
154
66
136
180
99
0
21
45
189
13
183
43
19
182
121
69
88
88
131
0
26
3
121
120
51
25
173
36
106
178
166
40
0
0
37
0
0
7
56
2
150
46
170
87
0
0
96
15
146
171
0
59
97
174
61
58
0
116
20
199
105
162
0
0
0
169
82
0
123
0
44
69
0
107
58
140
0
39
123
176
15
0
200
133
141
59
35
0
132
18
0
111
133
0
20
0
186
97
168
91
27
52
0
0
10
0
133
0
197
7
0
196
46
75
14
196
38
0
106
38
179
41
5
0
0
204
13
183
198
185
196
44
0
20
92
163
46
0
46
20
104
130
39
108
14
76
0
85
0
106
202
102
168
153
13
130
27
0
1
128
19
34
53
0
80
189
144
0
68
145
111
0
30
77
184
173
174
21
170
96
147
25
134
0
158
28
0
55
77
100
72
0
192
34
204
118
171
112
89
199
78
64
78
148
0
0
39
41
108
114
3
144
36
0
112
0
93
96
162
62
0
91
181
103
104
1
0
145
72
50
79
82
48
171
49
153
28
27
129
29
110
151
78
131
129
22
170
14
126
0
202
110
79
0
0
0
134
0
87
173
175
84
23
18
37
0
22
157
12
25
97
147
83
7
0
82
20
83
191
0
0
0
0
0
65
96
47
24
174
134
97
21
53
191
34
140
82
139
0
0
13
84
77
175
34
11
199
0
0
145
0
46
194
92
0
0
98
1
184
144
186
82
188
105
0
16
120
165
81
54
153
193
58
89
99
179
86
203
0
128
0
185
187
0
31
0
121
86
0
199
132
0
80
0
35
71
125
72
0
0
79
31
172
154
114
42
141
103
85
0
0
189
29
166
118
112
173
107
168
96
0
153
196
147
5
0
0
181
137
95
194
0
0
0
0
185
132
167
183
15
142
11
51
181
0
0
18
8
58
174
150
31
169
0
86
203
23
92
27
34
124
34
188
111
11
176
74
105
0
106
192
187
188
0
132
20
162
130
190
140
137
42
116
164
0
159
131
116
141
40
46
38
75
129
36
82
195
36
191
122
125
75
94
80
75
140
103
108
186
64
30
160
0
0
72
132
0
44
3
119
69
154
197
119
131
66
94
92
0
120
143
77
107
145
68
0
65
61
5
136
82
192
142
37
76
28
39
95
185
0
105
203
75
99
54
96
80
12
94
89
131
115
11
51
130
202
162
0
110
0
141
173
110
0
36
199
166
180
186
124
181
54
34
190
193
195
67
11
122
25
2
151
90
64
104
148
0
25
146
75
103
84
150
7
60
103
45
184
0
17
144
201
0
19
0
150
192
65
38
201
107
110
28
0
166
0
22
91
0
57
0
0
155
78
0
167
50
199
56
0
180
0
128
99
71
0
104
18
133
103
90
1
4
0
84
5
55
133
173
180
43
88
139
0
132
173
162
55
0
197
65
45
104
189
23
75
0
138
2
0
162
0
0
0
154
98
0
138
91
0
19
16
179
13
0
170
151
158
140
64
0
0
48
119
3
56
97
19
88
170
77
15
0
199
66
202
72
14
146
87
167
36
112
0
106
18
0
102
169
0
42
0
22
143
36
0
187
113
170
119
0
0
0
173
0
0
108
119
110
0
168
98
147
96
99
201
108
2
103
165
125
189
0
120
68
56
83
66
27
160
121
129
151
75
49
60
159
39
68
0
161
160
2
104
0
115
131
55
115
164
0
131
119
186
109
67
0
0
143
196
46
0
197
0
44
90
123
102
73
0
0
70
105
71
72
25
0
47
159
176
111
94
123
5
192
119
29
62
45
89
144
26
51
125
204
22
86
0
60
86
22
0
0
90
128
11
34
0
31
0
140
64
13
0
161
144
0
161
139
189
0
0
0
133
121
192
0
121
78
0
75
129
66
0
147
16
52
0
68
36
1
177
161
0
33
87
4
58
166
87
0
61
153
145
174
21
0
0
165
30
104
101
80
142
0
167
157
182
6
171
186
129
0
22
0
73
21
0
0
166
0
1
0
65
0
100
107
0
12
130
66
111
65
199
42
0
0
0
136
105
109
160
195
191
12
92
196
179
112
187
34
18
136
0
179
43
4
75
143
91
0
11
173
71
168
0
0
204
0
170
142
109
65
121
129
0
48
0
17
108
32
93
161
183
0
193
104
125
198
19
166
0
109
0
0
0
51
121
174
99
88
97
181
88
198
83
157
163
190
190
0
84
160
164
98
35
177
90
136
100
0
118
59
97
5
0
151
35
162
0
0
1
8
116
88
27
127
11
155
62
127
0
47
0
29
185
134
86
200
191
0
25
59
110
0
32
16
0
0
0
120
76
188
115
1
0
0
75
145
153
153
0
54
1
0
135
26
26
32
7
0
90
27
200
0
71
102
0
34
169
0
37
73
0
0
0
87
203
202
0
0
60
0
170
104
57
23
0
169
97
103
0
22
69
0
135
80
0
35
154
0
180
0
28
109
0
194
0
12
0
151
47
168
154
0
19
5
0
2
135
34
86
60
151
57
57
148
50
164
43
62
0
50
200
152
178
129
64
8
0
194
158
7
197
10
15
19
39
0
123
0
176
122
158
99
97
104
183
0
69
50
123
0
81
70
0
159
0
191
57
119
0
0
17
0
0
195
74
103
165
194
115
134
114
56
91
79
33
59
89
30
73
148
0
51
32
201
0
39
64
128
70
0
161
176
0
59
132
193
181
89
137
0
117
3
11
148
25
0
0
26
100
35
0
0
32
143
187
127
12
58
58
172
195
0
13
0
29
78
0
63
0
0
43
166
14
193
139
139
0
121
5
182
126
137
178
0
0
54
200
58
15
82
191
105
172
86
38
80
0
191
189
154
189
162
63
63
75
203
23
0
134
126
11
119
168
123
148
73
3
110
0
6
0
174
101
56
155
115
78
74
29
44
184
162
25
201
134
71
103
153
96
175
68
30
195
186
0
27
113
49
0
0
186
92
110
109
75
73
0
0
18
44
168
145
0
201
41
140
192
25
63
93
0
198
0
0
0
150
172
36
0
0
50
199
80
29
159
0
141
35
116
31
58
176
98
28
103
159
108
48
64
140
161
61
77
130
96
141
157
203
0
125
45
156
24
80
82
3
61
58
102
17
21
150
40
90
202
115
122
108
193
19
50
141
36
149
10
169
0
0
197
100
123
164
71
88
114
90
196
189
105
182
47
121
0
33
34
151
0
13
100
24
11
177
89
137
91
71
36
184
55
0
111
0
158
1
0
186
158
142
203
0
75
119
53
172
204
143
66
0
167
49
189
64
35
116
99
0
45
66
147
77
19
118
89
1
67
25
98
83
15
139
201
151
203
60
0
193
92
46
39
55
0
17
0
22
7
154
23
201
5
0
0
0
44
105
85
0
41
190
113
65
109
97
35
136
2
48
72
202
137
13
131
165
0
0
143
0
76
0
7
67
127
142
153
28
106
0
99
80
0
55
0
0
0
157
133
70
55
35
187
123
0
89
69
53
75
81
7
63
0
0
0
128
115
166
193
108
52
71
179
27
39
156
128
43
111
201
123
15
92
29
24
14
120
148
0
81
181
9
40
78
146
0
77
13
133
157
46
106
0
195
204
59
183
78
189
170
158
0
0
193
35
142
34
198
50
105
0
88
141
0
30
0
115
26
0
