P3
50 40
255
165
76
50
34
80
25
31
138
191
248
100
155
85
192
84
27
34
243
239
220
208
109
233
128
2
245
254
207
96
156
127
63
183
128
196
3
231
59
90
198
33
131
74
64
170
65
142
79
161
251
173
206
178
93
229
77
89
158
102
121
165
216
243
21
5
178
57
113
38
103
125
131
24
139
119
85
237
173
183
120
105
15
39
207
50
105
32
6
149
130
203
78
156
117
177
192
126
45
57
20
193
24
181
215
21
252
187
63
52
98
122
147
85
186
163
115
159
30
91
240
94
155
135
23
30
31
73
251
55
72
57
204
29
67
40
96
89
105
23
243
142
201
253
110
65
189
251
75
148
133
139
51
117
127
69
168
95
116
197
166
149
27
239
114
85
13
217
99
254
193
116
169
103
222
253
31
125
236
208
192
208
51
43
2
161
13
86
234
105
187
141
121
61
227
139
63
150
74
84
201
27
171
42
83
155
232
97
140
246
239
121
138
164
150
173
214
35
40
247
199
60
219
100
191
86
158
243
69
252
165
172
200
90
140
152
67
71
53
111
108
74
130
132
175
95
206
207
253
5
180
146
191
211
111
127
98
114
190
153
209
158
226
148
78
166
81
108
22
191
85
130
79
209
2
100
249
222
86
2
10
44
200
16
248
25
75
113
143
91
190
242
195
17
251
68
94
218
123
31
33
160
159
125
20
236
142
163
99
33
236
44
77
118
80
245
203
146
225
184
121
153
212
75
251
79
94
234
165
128
124
151
106
205
56
19
224
53
160
22
173
198
123
61
169
218
2
184
176
125
253
73
212
113
113
239
204
239
130
47
241
222
136
88
132
241
155
250
108
65
19
35
104
176
187
228
171
55
232
189
189
7
216
64
243
18
4
93
128
47
113
63
40
79
222
245
0
62
108
108
193
237
177
17
17
82
76
150
85
75
27
20
53
61
198
187
29
167
243
231
139
19
109
182
24
211
226
114
178
120
251
20
89
6
101
82
80
123
198
83
109
139
106
141
129
165
184
164
153
215
244
12
245
124
17
67
10
107
169
18
209
14
241
131
120
16
100
173
12
233
34
119
149
147
154
226
172
208
20
173
2
65
69
89
57
247
60
36
244
208
179
114
58
250
202
228
112
27
100
100
214
93
107
107
198
136
110
201
52
185
84
69
55
16
218
204
36
25
201
97
244
48
62
78
159
42
37
230
41
36
85
204
12
185
130
47
72
119
219
147
153
107
73
41
45
220
154
11
42
110
137
253
252
35
45
48
25
87
123
20
84
219
26
121
152
140
77
250
82
57
41
185
76
76
104
51
49
203
203
38
14
125
195
165
51
0
170
126
238
27
44
34
43
82
66
75
109
160
250
241
9
235
184
136
97
49
79
112
177
22
177
61
205
166
138
77
38
51
58
85
212
25
55
39
201
168
109
147
186
150
29
85
227
140
210
214
148
240
27
134
207
213
240
138
248
133
138
147
231
171
224
149
0
31
101
15
159
31
248
69
216
243
154
175
211
233
18
158
82
143
98
12
67
171
179
3
192
159
115
254
11
220
218
6
47
61
223
121
193
141
5
93
54
125
186
0
229
237
84
68
246
229
162
241
62
142
159
210
245
30
186
155
92
14
3
161
115
249
62
180
116
150
157
11
3
115
2
216
22
51
71
37
34
72
26
123
236
179
2
232
56
221
10
217
207
151
130
192
215
80
154
71
16
8
203
195
224
137
3
111
54
108
216
11
83
137
51
227
211
22
118
86
197
66
102
179
116
18
128
4
125
242
41
171
19
183
171
239
8
45
45
211
189
18
211
194
190
114
63
23
81
27
178
61
84
23
11
140
110
136
72
72
136
2
101
175
254
139
194
76
79
112
95
55
242
169
161
144
173
97
209
226
122
75
40
120
155
121
123
32
18
140
173
152
247
46
94
246
96
4
44
0
193
236
159
117
47
181
169
105
165
214
11
165
181
210
52
154
118
44
211
110
209
89
201
125
99
210
171
179
133
116
77
170
118
106
175
239
42
52
153
215
149
251
158
148
197
146
160
22
218
43
158
169
47
223
46
169
36
42
237
163
220
193
86
29
92
35
72
152
219
12
156
68
42
86
162
35
196
137
217
252
122
64
6
249
116
220
127
65
147
69
138
169
53
106
43
12
98
208
190
114
36
220
201
66
229
63
141
8
69
148
28
188
27
41
204
7
212
5
25
188
52
239
73
125
115
95
154
105
26
247
182
223
212
138
189
37
223
230
93
55
105
183
54
44
134
153
140
51
154
68
183
149
121
24
230
42
178
249
106
34
6
217
100
16
205
128
13
107
8
2
72
141
78
43
216
251
157
160
242
115
88
69
32
200
194
251
47
234
34
67
110
153
95
134
200
57
196
125
153
198
6
75
140
114
154
75
52
201
117
61
172
240
243
245
231
104
84
230
236
174
86
249
216
223
160
28
160
29
191
252
212
35
61
101
180
139
181
165
130
62
144
149
104
146
155
253
125
145
235
47
126
78
89
242
192
87
55
186
132
23
115
111
157
195
118
170
193
127
144
142
25
169
181
116
119
204
247
94
53
169
122
182
8
210
28
30
236
114
80
190
153
158
144
130
125
172
175
125
245
86
241
179
86
132
96
88
125
166
191
90
46
209
181
92
166
214
240
190
187
70
212
180
238
50
182
156
242
237
124
155
17
161
61
226
174
84
238
142
77
84
136
253
73
81
219
40
108
224
200
20
68
58
101
231
29
65
192
61
182
217
233
23
15
235
244
29
37
231
187
145
55
14
9
203
246
197
218
146
15
162
223
157
79
216
168
48
13
239
191
153
135
204
164
92
129
81
222
122
21
48
85
121
175
18
130
25
15
249
182
23
171
136
237
29
81
178
44
235
136
253
46
139
149
229
203
243
108
215
131
104
48
66
170
132
238
155
234
194
236
38
148
51
244
142
46
195
1
96
249
47
40
225
84
61
63
134
127
189
0
30
84
190
132
71
103
241
224
184
147
146
97
74
38
3
115
2
43
10
70
133
241
57
41
132
147
197
133
207
62
75
87
21
72
134
73
68
137
223
225
42
184
10
129
35
22
40
252
160
220
64
176
181
179
72
160
201
128
77
179
79
99
203
78
132
98
221
122
100
129
51
49
195
231
153
154
112
3
141
143
146
212
43
162
44
53
194
86
91
158
164
46
25
89
114
128
198
139
249
128
168
221
162
242
84
254
150
122
0
20
105
127
15
208
78
197
75
184
71
220
146
234
223
224
14
80
127
118
195
161
239
194
7
103
12
130
178
69
84
77
2
51
203
63
180
252
152
218
135
19
156
64
126
46
180
89
158
96
70
154
213
96
50
31
70
142
235
246
94
63
233
248
12
5
254
229
91
55
40
156
88
64
246
88
246
96
125
247
57
35
17
183
26
39
44
60
141
77
102
236
147
218
6
70
10
44
161
183
20
182
68
191
109
85
4
250
183
173
226
65
190
27
89
12
157
108
15
94
119
132
46
173
18
2
219
155
212
22
166
70
249
111
108
9
109
147
224
196
221
1
4
146
65
220
137
38
52
200
96
30
57
106
10
87
21
216
90
8
86
156
228
101
75
223
53
171
170
181
48
76
119
138
138
69
232
171
63
233
93
71
95
239
230
149
45
204
116
186
70
6
21
227
16
155
55
18
232
78
221
39
163
99
51
112
117
69
180
2
185
235
50
52
72
193
61
61
197
84
109
49
2
142
133
250
79
152
133
226
46
35
85
30
213
107
214
147
205
135
11
20
111
239
99
187
166
249
111
206
173
38
222
28
78
224
31
228
16
146
237
76
175
17
165
71
4
214
89
90
127
85
48
11
17
170
12
97
236
46
40
194
150
64
122
135
138
208
83
146
34
160
254
27
223
117
186
52
151
132
130
14
12
189
60
210
26
239
53
16
68
182
213
214
247
52
66
48
217
106
82
170
182
31
39
89
116
152
5
84
61
178
88
65
186
183
251
14
52
119
39
13
119
177
76
206
20
184
23
244
54
98
0
199
232
226
177
180
67
207
181
21
249
75
71
207
22
251
249
72
151
186
68
94
242
91
146
44
173
130
211
144
93
204
50
95
234
30
11
65
5
82
143
221
191
145
180
34
244
4
24
75
203
179
130
17
158
54
101
240
14
105
182
207
200
171
194
229
139
73
203
152
81
25
3
91
130
47
58
115
7
71
22
37
173
153
98
30
239
129
31
221
79
238
129
186
193
224
54
31
111
38
189
23
92
103
191
104
37
236
236
226
0
236
186
151
194
243
70
198
63
121
21
55
222
97
159
236
77
236
26
3
7
164
69
239
232
212
86
179
134
76
253
55
88
37
15
209
89
75
104
234
227
130
44
61
166
241
67
99
77
0
55
54
240
92
224
57
209
3
68
240
174
81
246
239
26
176
129
46
73
250
235
222
47
163
128
191
19
106
250
227
46
85
132
179
154
178
177
239
10
29
199
125
155
122
165
15
15
160
5
167
86
223
48
219
168
178
64
252
253
111
95
240
146
210
87
174
75
159
237
246
30
11
26
38
233
223
15
144
221
135
61
235
170
146
48
234
223
69
186
85
75
63
252
37
124
43
42
24
52
52
42
3
132
28
209
228
182
180
252
199
52
176
44
191
30
175
203
223
205
7
45
75
170
128
27
251
194
142
197
238
167
14
224
77
53
228
30
8
62
83
63
160
149
112
55
93
65
94
232
223
102
192
8
252
98
18
18
26
232
59
49
115
33
18
230
47
63
169
161
206
173
80
212
181
97
25
154
241
22
249
60
46
136
204
137
219
176
123
58
156
40
36
135
19
137
247
84
88
160
168
64
78
186
186
221
39
86
42
49
247
180
178
182
4
3
205
40
116
182
217
37
183
251
129
127
249
51
66
36
226
108
162
77
176
145
97
222
7
3
234
12
222
188
22
51
162
129
18
231
244
35
80
195
181
147
159
44
206
200
189
147
2
209
105
189
104
81
180
122
225
178
122
168
215
88
137
234
54
173
32
116
48
227
42
217
44
177
192
94
26
213
15
118
141
178
233
181
86
21
237
254
132
134
60
89
232
182
226
199
24
37
195
110
5
122
228
44
134
33
34
84
216
37
66
224
197
118
102
66
84
102
20
164
45
224
70
2
107
35
51
58
3
166
46
164
39
4
23
220
170
156
44
169
37
250
89
0
221
7
119
183
14
106
190
114
59
195
126
176
28
81
230
141
243
107
216
80
9
32
194
224
211
55
216
133
149
19
50
172
111
209
245
143
119
49
77
143
92
142
0
205
80
102
223
65
237
149
125
242
184
17
248
166
19
119
57
124
228
137
222
139
86
139
203
117
55
185
28
73
196
237
192
118
82
7
87
24
147
147
21
124
125
12
197
104
58
236
229
30
144
7
167
135
249
189
111
122
163
246
157
148
27
171
129
24
104
210
136
31
133
64
13
125
104
250
88
89
243
253
78
221
38
124
131
162
216
192
66
6
214
52
24
49
88
91
143
210
165
80
77
225
172
144
2
115
142
237
39
202
5
242
37
100
229
129
115
104
30
57
244
102
47
175
185
70
222
7
200
62
182
229
188
164
183
224
124
7
179
86
45
37
37
111
170
62
38
215
125
146
165
185
203
5
166
6
225
22
154
56
190
47
216
229
172
22
254
232
123
77
182
221
100
17
162
22
127
35
160
242
179
43
137
10
155
57
51
15
123
43
23
164
151
156
197
140
227
238
201
113
186
173
134
90
221
149
0
190
6
141
69
248
42
212
232
133
180
13
176
111
116
145
176
41
192
9
103
4
252
214
170
170
117
104
194
89
197
141
203
135
198
106
170
253
243
106
52
153
30
148
68
29
251
177
203
14
34
63
231
12
252
99
130
148
156
221
15
178
62
86
110
198
132
155
15
65
253
127
34
228
167
71
70
151
49
227
103
50
83
107
37
154
224
101
129
141
122
86
116
48
72
117
67
11
123
63
38
129
125
229
2
72
244
209
112
151
62
73
127
214
218
20
155
44
218
79
126
15
182
246
159
203
19
159
231
145
62
67
211
160
121
126
215
254
31
248
94
103
10
60
115
159
213
6
220
243
10
59
6
21
7
240
175
125
186
136
100
230
191
225
17
64
61
116
58
235
246
183
24
164
144
10
252
214
162
3
58
15
140
98
227
164
135
14
120
240
21
152
52
240
44
190
202
174
219
82
201
129
152
142
61
220
92
16
248
35
11
177
250
96
230
101
246
198
49
225
83
77
106
114
75
249
148
191
0
93
41
114
48
241
189
191
214
202
241
226
9
246
237
16
229
153
14
14
52
227
97
19
61
128
169
149
122
198
120
164
90
185
224
115
192
176
69
219
35
87
184
145
2
1
155
186
153
202
58
207
224
81
172
72
195
82
158
111
32
39
206
242
246
107
145
30
177
88
156
120
217
64
105
13
118
243
193
2
58
78
211
65
99
144
63
127
69
196
181
85
48
164
169
108
62
246
169
1
102
117
178
144
207
151
144
242
229
174
249
67
23
13
118
76
147
242
170
104
88
161
254
104
175
204
167
155
107
128
233
181
85
171
82
52
122
11
236
44
95
159
39
221
218
54
196
247
35
176
21
1
126
1
190
101
101
72
59
174
76
152
245
167
63
54
114
63
9
40
36
14
137
21
87
29
26
209
82
117
48
219
195
73
139
215
150
173
148
86
103
225
186
56
17
58
30
254
203
11
132
183
234
165
59
75
232
200
99
11
49
217
64
170
197
35
18
87
88
181
100
113
136
112
141
5
138
65
181
48
52
160
76
152
71
17
125
141
36
126
184
185
211
5
116
111
16
220
228
228
212
84
253
85
65
75
195
90
52
214
208
230
9
82
242
71
109
32
22
152
222
254
162
34
226
30
168
207
244
230
182
108
216
18
216
160
189
213
253
238
76
210
162
215
228
78
144
188
189
33
182
131
139
175
225
151
1
205
176
39
4
233
177
3
178
2
30
107
210
189
18
242
182
119
90
43
25
72
179
211
125
18
11
92
41
164
184
91
220
152
253
149
174
17
133
142
97
135
200
84
114
223
164
197
146
103
106
44
57
170
94
49
56
1
35
145
126
5
158
206
220
51
93
197
174
9
202
12
127
15
205
200
99
169
122
36
46
3
33
3
207
136
6
229
234
216
218
195
245
98
193
68
61
33
243
4
180
148
246
198
129
142
169
57
186
65
189
109
234
66
177
234
201
190
157
82
77
226
183
7
13
200
186
104
224
82
17
247
47
16
16
242
185
139
133
232
20
239
186
25
22
76
243
148
148
74
247
167
29
111
162
226
229
191
235
249
209
191
38
254
61
97
239
224
126
249
172
8
142
83
202
33
218
227
44
202
249
109
43
19
212
11
209
190
14
19
67
172
0
140
154
45
101
12
145
81
176
69
0
201
13
25
48
103
49
93
31
82
212
230
187
91
80
16
88
77
157
58
92
159
82
156
149
121
253
216
36
24
4
235
68
16
116
174
126
74
219
51
132
244
148
195
54
111
30
135
142
104
77
220
55
169
144
246
27
97
108
90
78
74
120
36
241
33
220
29
111
91
45
148
164
45
217
136
199
250
9
215
102
69
168
196
15
251
55
104
251
243
74
5
84
138
85
132
38
15
120
83
232
27
19
94
57
86
178
77
222
98
56
62
37
23
18
31
179
60
21
0
205
12
221
188
49
71
201
5
145
27
128
102
170
149
127
18
106
238
15
110
195
230
135
95
212
35
178
75
12
178
164
191
246
171
56
128
151
251
185
178
232
178
56
241
141
118
120
109
240
89
159
75
58
104
252
232
181
251
17
109
194
224
135
120
219
111
101
221
162
207
162
39
159
116
240
2
101
84
138
205
190
57
115
195
120
220
229
219
235
146
180
239
127
216
106
104
156
147
152
60
19
95
95
57
184
185
160
97
97
209
153
115
170
251
98
49
31
233
112
190
25
139
34
159
53
206
43
47
227
156
182
140
240
7
137
25
126
66
153
76
23
186
221
225
8
52
168
234
27
24
24
58
144
1
215
1
236
152
90
116
120
111
205
76
161
141
220
223
78
1
238
34
88
206
35
236
86
254
35
59
150
74
195
81
211
91
194
58
116
245
87
132
184
106
67
59
82
15
129
151
139
185
11
112
234
11
140
29
12
37
172
225
88
106
8
199
236
227
169
240
126
203
185
156
54
115
107
248
120
31
206
42
19
15
177
212
117
144
101
184
166
52
185
226
30
31
167
104
23
237
214
88
165
138
91
72
125
111
160
70
58
172
109
146
60
239
75
184
227
220
77
149
91
139
48
137
102
54
13
80
62
208
142
24
241
225
2
102
75
146
211
228
169
176
122
236
162
52
227
98
98
22
114
64
206
210
42
248
67
22
51
248
117
232
196
66
78
181
131
70
124
170
154
122
77
138
213
193
14
68
82
134
187
110
5
71
62
233
118
89
27
221
95
127
192
30
73
250
91
125
136
241
111
225
204
36
127
106
76
62
127
6
231
83
33
59
133
104
204
107
64
90
182
113
251
102
225
49
18
5
101
100
131
60
64
134
103
99
140
123
48
93
167
178
138
6
156
191
173
214
102
113
190
177
202
137
25
57
36
82
106
142
112
87
184
146
39
53
169
231
41
160
252
20
187
78
247
17
165
145
202
240
167
169
78
120
228
218
23
24
95
253
194
236
46
90
85
177
108
82
184
54
158
121
49
28
207
103
176
81
173
221
108
150
157
184
109
148
207
247
11
65
187
213
253
115
33
229
233
226
92
102
8
95
217
70
220
47
203
95
88
116
0
70
4
165
87
67
110
221
211
27
77
242
155
5
218
36
139
94
159
248
121
155
209
210
240
34
250
92
171
177
181
63
128
210
144
134
179
6
171
173
162
225
125
69
237
77
155
160
100
68
17
222
132
63
108
77
173
13
26
159
105
246
203
251
212
86
252
188
121
207
120
17
243
85
219
209
91
107
240
12
191
172
132
151
138
74
245
135
150
84
50
217
182
71
116
231
56
203
160
244
49
226
113
212
207
216
33
125
50
50
87
247
199
57
204
202
224
91
47
203
19
200
127
123
65
44
64
151
178
1
91
170
142
98
231
118
113
132
163
164
59
78
71
60
71
171
135
172
76
90
231
94
188
7
100
17
9
246
212
90
102
74
102
47
156
51
89
100
115
3
226
215
98
19
74
223
71
132
216
189
254
72
20
43
205
216
82
100
16
46
199
150
75
151
220
139
136
80
200
126
22
225
138
236
113
20
146
214
125
25
74
99
188
226
62
93
129
235
131
9
233
35
20
79
161
185
199
227
15
55
118
33
113
105
197
61
230
240
184
19
8
146
76
12
230
191
2
237
40
128
27
151
241
172
223
91
165
17
171
140
104
27
96
180
103
9
4
123
40
50
110
159
165
36
179
8
135
51
79
184
167
157
226
19
103
140
113
69
33
172
113
194
249
72
139
20
120
82
3
183
74
72
96
124
251
92
230
3
18
235
225
197
59
69
20
79
59
38
1
233
59
191
30
212
46
120
5
13
195
69
49
147
1
151
96
138
235
52
27
249
90
39
132
104
170
147
143
91
207
251
76
172
228
95
15
220
201
6
130
70
105
192
177
68
144
100
45
188
43
75
103
180
253
102
235
83
52
81
183
138
43
243
199
65
110
210
31
190
104
244
30
141
174
99
0
100
158
81
173
177
197
116
181
214
115
178
140
83
174
11
249
246
253
178
108
121
7
10
68
75
193
201
90
232
22
81
173
47
20
184
231
140
14
80
22
194
139
244
49
54
85
78
165
196
124
141
24
138
21
37
119
157
97
231
105
167
144
215
170
86
74
109
53
72
152
126
43
44
5
229
210
189
247
163
156
126
208
221
22
182
230
144
31
92
78
168
30
92
235
241
100
32
44
32
232
130
2
226
66
18
88
40
116
230
201
125
121
81
10
19
212
137
198
242
177
62
63
98
149
178
25
252
216
14
201
73
71
16
142
128
236
214
157
65
167
89
26
25
105
189
75
160
200
123
96
131
178
76
176
60
68
176
103
246
153
84
222
130
183
120
240
164
213
152
18
113
85
79
178
6
24
192
173
4
118
13
226
62
178
109
193
199
156
216
192
46
61
85
8
79
164
251
116
35
234
83
113
241
154
14
195
12
72
230
53
73
91
145
120
51
79
123
246
136
134
226
124
203
15
136
54
77
42
151
222
26
180
236
220
238
67
244
149
216
74
62
60
15
164
238
153
186
0
16
124
84
136
45
30
175
237
62
124
22
84
0
1
167
161
68
236
167
131
45
215
65
3
76
191
36
9
235
201
251
39
252
129
99
247
254
202
170
134
101
44
56
16
247
33
241
47
172
91
62
133
34
161
160
220
27
84
195
75
35
96
101
224
95
74
173
38
53
239
131
27
125
212
9
101
186
248
7
216
22
17
191
210
96
117
13
199
21
148
207
35
37
199
98
51
26
57
113
79
236
147
240
61
26
26
204
99
110
45
51
253
7
197
173
56
20
150
210
54
64
21
166
105
64
46
155
50
148
30
17
124
44
83
13
145
38
124
98
8
161
68
74
54
126
192
205
191
237
15
42
222
26
169
154
154
57
53
177
179
31
9
124
183
62
218
109
147
110
122
235
230
223
252
183
43
205
159
31
194
175
91
48
247
143
86
120
143
241
95
74
62
168
180
148
55
77
184
233
146
112
230
154
112
172
176
108
62
176
44
169
13
115
102
233
204
3
194
70
89
86
178
11
80
153
210
226
43
180
211
227
249
41
179
250
47
151
120
112
128
140
49
89
244
135
81
182
240
174
246
49
177
34
40
24
208
151
11
170
148
159
238
57
203
146
104
179
91
3
215
163
246
5
148
15
40
19
179
25
209
131
75
152
166
19
96
30
4
58
216
137
123
102
214
185
147
168
92
115
234
69
120
202
95
68
126
127
136
164
149
123
24
119
199
3
68
192
97
186
122
249
236
177
11
251
192
124
15
92
207
75
91
154
10
100
72
19
136
123
246
159
85
133
17
156
180
6
169
5
59
63
65
112
229
113
104
166
71
219
137
9
226
239
77
96
138
45
218
95
30
196
247
227
211
33
167
184
192
36
79
35
31
76
207
141
169
196
228
112
199
94
173
63
60
94
88
253
49
191
142
102
47
176
231
233
148
207
194
139
248
95
210
134
199
4
93
206
135
248
49
108
193
246
192
163
254
10
123
104
111
120
48
52
154
15
19
240
98
252
204
112
108
17
206
174
149
201
151
52
216
253
141
41
134
163
102
241
238
40
30
46
53
197
47
178
236
144
149
252
104
42
184
9
113
16
161
14
220
51
93
152
2
48
121
67
86
180
168
2
50
238
162
201
130
28
50
238
185
16
154
220
112
35
111
84
115
130
198
246
135
30
49
87
112
217
161
235
92
151
87
52
234
229
65
222
138
85
77
122
125
157
113
17
186
147
127
254
105
79
18
143
190
29
21
242
2
101
52
42
81
40
32
103
38
148
208
56
89
200
125
45
151
186
53
160
1
247
159
121
208
69
114
2
135
133
62
224
251
169
198
143
85
128
140
84
9
132
51
217
128
133
237
145
86
145
189
7
30
40
233
220
22
38
131
167
141
64
204
146
108
16
103
125
11
150
40
41
158
197
140
159
154
69
160
231
93
69
195
199
149
96
66
142
110
208
181
187
96
221
205
251
7
99
252
2
239
75
139
29
163
20
153
249
40
14
84
110
42
6
120
178
77
13
94
108
38
125
186
117
205
172
68
70
184
54
191
195
104
96
168
202
237
9
209
101
130
201
18
197
29
61
104
92
156
55
14
164
222
45
160
170
45
15
183
5
41
253
130
87
86
8
49
13
115
226
6
140
186
150
62
238
214
58
130
23
195
218
166
85
91
180
81
246
172
4
126
182
253
229
98
247
153
227
78
181
185
119
0
122
236
115
218
154
107
172
182
223
227
187
121
95
143
37
120
246
49
212
121
100
91
120
105
153
252
102
254
136
109
14
17
135
119
200
136
170
216
223
118
80
17
38
176
17
11
100
215
65
139
235
124
178
91
49
97
154
193
134
97
173
128
205
54
44
145
82
175
67
56
56
117
159
46
117
161
149
68
5
86
8
141
102
140
128
158
252
3
74
239
141
1
131
73
224
179
146
69
181
188
214
48
221
122
204
41
145
22
36
85
108
186
140
70
46
2
189
71
179
141
26
100
67
205
32
177
236
103
143
116
132
251
211
236
113
247
243
200
113
160
52
230
228
19
249
32
58
115
174
31
192
3
23
45
1
211
148
17
112
209
204
212
67
184
55
185
156
226
150
9
77
242
195
229
34
129
177
205
50
159
247
56
32
168
136
168
243
99
247
4
12
228
220
8
4
234
69
239
73
161
213
124
48
86
210
62
247
217
6
94
204
35
113
7
210
136
179
189
155
206
139
44
81
162
139
106
32
182
28
44
73
188
10
156
115
202
77
41
128
76
147
168
217
153
152
109
28
163
202
106
189
1
183
102
196
159
139
239
160
104
147
214
168
200
164
98
103
20
121
153
199
43
127
162
8
80
134
210
107
21
110
153
115
97
130
51
162
105
25
249
18
102
62
236
0
22
40
246
88
129
215
84
65
112
192
23
151
72
47
195
89
153
178
29
8
179
136
193
138
41
13
74
45
101
251
82
247
55
184
60
240
6
106
20
26
216
135
236
45
192
89
55
3
106
61
246
77
190
204
54
142
158
22
219
8
250
71
58
124
221
52
244
158
46
34
115
27
70
76
145
98
186
94
182
23
103
143
237
129
86
26
202
184
237
157
246
7
171
198
252
212
185
209
83
130
151
228
218
61
159
240
10
70
68
1
107
228
230
103
201
182
67
134
71
52
82
252
54
194
63
182
163
221
14
80
17
30
21
36
128
177
215
199
85
69
87
155
104
17
212
172
84
55
80
155
46
32
78
118
63
107
100
214
99
121
87
136
241
10
53
118
124
112
253
21
76
48
152
161
174
87
162
69
74
160
245
147
26
9
139
235
33
53
156
228
145
129
46
240
214
81
38
185
6
119
165
250
243
78
206
233
218
126
96
144
195
123
41
18
155
231
121
67
169
54
183
99
59
220
140
13
196
171
190
161
15
53
121
225
246
75
38
132
32
131
155
158
177
187
23
19
118
167
78
88
93
229
43
82
124
211
186
141
100
72
93
54
40
11
95
142
253
157
234
245
227
7
64
197
181
141
252
154
7
249
111
42
20
245
150
69
235
224
204
7
74
9
155
0
95
60
213
183
14
97
85
125
237
35
41
220
93
120
236
33
73
175
205
22
204
136
0
153
165
199
74
66
22
32
28
81
18
50
137
196
70
81
249
238
97
235
153
252
114
62
207
8
155
136
102
30
50
237
65
120
3
5
58
200
157
15
215
92
133
49
3
206
125
178
35
57
144
17
135
85
169
27
141
219
165
155
3
169
185
195
242
196
215
112
71
185
32
140
134
208
97
212
58
251
69
107
45
64
107
227
46
66
234
8
200
208
243
51
106
76
195
26
94
113
50
186
7
159
1
230
85
27
174
21
0
89
3
156
77
55
44
