P3
50 40
255
55
55
55
3
3
3
21
21
21
85
85
85
159
159
159
50
50
50
26
26
26
106
106
106
208
208
208
234
234
234
227
227
227
45
45
45
251
251
251
97
97
97
140
140
140
71
71
71
196
196
196
185
185
185
155
155
155
141
141
141
85
85
85
144
144
144
178
178
178
3
3
3
92
92
92
157
157
157
5
5
5
65
65
65
30
30
30
155
155
155
62
62
62
153
153
153
238
238
238
70
70
70
50
50
50
28
28
28
66
66
66
165
165
165
136
136
136
205
205
205
33
33
33
93
93
93
35
35
35
85
85
85
183
183
183
95
95
95
9
9
9
204
204
204
69
69
69
20
20
20
249
249
249
252
252
252
197
197
197
227
227
227
157
157
157
95
95
95
54
54
54
100
100
100
211
211
211
43
43
43
88
88
88
118
118
118
187
187
187
155
155
155
132
132
132
246
246
246
53
53
53
190
190
190
13
13
13
59
59
59
54
54
54
121
121
121
18
18
18
195
195
195
126
126
126
206
206
206
250
250
250
6
6
6
81
81
81
46
46
46
228
228
228
33
33
33
9
9
9
245
245
245
69
69
69
174
174
174
48
48
48
253
253
253
118
118
118
241
241
241
121
121
121
100
100
100
118
118
118
46
46
46
55
55
55
212
212
212
155
155
155
85
85
85
177
177
177
21
21
21
80
80
80
163
163
163
194
194
194
82
82
82
134
134
134
201
201
201
228
228
228
68
68
68
240
240
240
218
218
218
130
130
130
185
185
185
198
198
198
246
246
246
184
184
184
86
86
86
143
143
143
182
182
182
98
98
98
70
70
70
34
34
34
244
244
244
124
124
124
250
250
250
22
22
22
54
54
54
77
77
77
106
106
106
89
89
89
236
236
236
26
26
26
6
6
6
184
184
184
82
82
82
45
45
45
41
41
41
136
136
136
29
29
29
89
89
89
72
72
72
192
192
192
84
84
84
88
88
88
22
22
22
62
62
62
249
249
249
162
162
162
97
97
97
110
110
110
210
210
210
8
8
8
43
43
43
121
121
121
98
98
98
168
168
168
104
104
104
139
139
139
102
102
102
189
189
189
163
163
163
152
152
152
168
168
168
128
128
128
202
202
202
10
10
10
44
44
44
32
32
32
162
162
162
139
139
139
189
189
189
210
210
210
35
35
35
6
6
6
62
62
62
48
48
48
161
161
161
69
69
69
8
8
8
12
12
12
99
99
99
136
136
136
56
56
56
50
50
50
129
129
129
195
195
195
9
9
9
156
156
156
184
184
184
204
204
204
17
17
17
1
1
1
3
3
3
174
174
174
32
32
32
228
228
228
160
160
160
243
243
243
236
236
236
132
132
132
103
103
103
32
32
32
100
100
100
179
179
179
2
2
2
140
140
140
85
85
85
145
145
145
122
122
122
214
214
214
69
69
69
224
224
224
1
1
1
74
74
74
158
158
158
102
102
102
86
86
86
149
149
149
46
46
46
56
56
56
175
175
175
44
44
44
128
128
128
134
134
134
97
97
97
178
178
178
139
139
139
100
100
100
176
176
176
80
80
80
216
216
216
200
200
200
17
17
17
136
136
136
252
252
252
120
120
120
121
121
121
246
246
246
143
143
143
187
187
187
182
182
182
154
154
154
236
236
236
119
119
119
78
78
78
247
247
247
253
253
253
4
4
4
81
81
81
85
85
85
195
195
195
58
58
58
62
62
62
140
140
140
115
115
115
8
8
8
130
130
130
5
5
5
45
45
45
45
45
45
14
14
14
92
92
92
29
29
29
201
201
201
209
209
209
202
202
202
104
104
104
54
54
54
68
68
68
117
117
117
38
38
38
13
13
13
120
120
120
110
110
110
40
40
40
20
20
20
139
139
139
2
2
2
7
7
7
221
221
221
181
181
181
142
142
142
149
149
149
69
69
69
160
160
160
159
159
159
158
158
158
150
150
150
103
103
103
146
146
146
141
141
141
38
38
38
233
233
233
7
7
7
86
86
86
133
133
133
51
51
51
84
84
84
85
85
85
169
169
169
62
62
62
2
2
2
208
208
208
247
247
247
53
53
53
45
45
45
89
89
89
148
148
148
32
32
32
42
42
42
2
2
2
29
29
29
18
18
18
254
254
254
186
186
186
157
157
157
77
77
77
222
222
222
234
234
234
151
151
151
161
161
161
87
87
87
135
135
135
130
130
130
111
111
111
220
220
220
185
185
185
28
28
28
162
162
162
2
2
2
86
86
86
48
48
48
93
93
93
14
14
14
113
113
113
42
42
42
149
149
149
178
178
178
53
53
53
40
40
40
102
102
102
41
41
41
216
216
216
201
201
201
206
206
206
112
112
112
98
98
98
15
15
15
48
48
48
104
104
104
254
254
254
246
246
246
49
49
49
206
206
206
199
199
199
95
95
95
194
194
194
233
233
233
47
47
47
191
191
191
88
88
88
63
63
63
199
199
199
196
196
196
207
207
207
35
35
35
192
192
192
33
33
33
247
247
247
95
95
95
138
138
138
239
239
239
137
137
137
166
166
166
229
229
229
63
63
63
169
169
169
156
156
156
85
85
85
123
123
123
72
72
72
154
154
154
207
207
207
124
124
124
11
11
11
249
249
249
97
97
97
3
3
3
24
24
24
164
164
164
126
126
126
202
202
202
234
234
234
168
168
168
214
214
214
137
137
137
4
4
4
19
19
19
75
75
75
25
25
25
40
40
40
5
5
5
215
215
215
179
179
179
203
203
203
159
159
159
11
11
11
24
24
24
177
177
177
174
174
174
81
81
81
89
89
89
128
128
128
151
151
151
179
179
179
227
227
227
43
43
43
153
153
153
178
178
178
70
70
70
204
204
204
115
115
115
44
44
44
108
108
108
112
112
112
112
112
112
184
184
184
148
148
148
62
62
62
241
241
241
86
86
86
48
48
48
194
194
194
205
205
205
252
252
252
235
235
235
147
147
147
62
62
62
9
9
9
177
177
177
154
154
154
26
26
26
15
15
15
205
205
205
54
54
54
161
161
161
124
124
124
13
13
13
124
124
124
148
148
148
46
46
46
166
166
166
54
54
54
20
20
20
197
197
197
51
51
51
99
99
99
26
26
26
147
147
147
113
113
113
51
51
51
37
37
37
148
148
148
13
13
13
210
210
210
22
22
22
248
248
248
9
9
9
27
27
27
53
53
53
74
74
74
101
101
101
75
75
75
27
27
27
161
161
161
62
62
62
47
47
47
247
247
247
44
44
44
170
170
170
247
247
247
252
252
252
201
201
201
36
36
36
3
3
3
45
45
45
236
236
236
167
167
167
84
84
84
62
62
62
30
30
30
84
84
84
0
0
0
238
238
238
60
60
60
216
216
216
67
67
67
236
236
236
222
222
222
77
77
77
15
15
15
226
226
226
246
246
246
51
51
51
91
91
91
230
230
230
195
195
195
241
241
241
234
234
234
251
251
251
8
8
8
46
46
46
156
156
156
109
109
109
226
226
226
4
4
4
24
24
24
79
79
79
18
18
18
164
164
164
183
183
183
84
84
84
103
103
103
60
60
60
178
178
178
123
123
123
75
75
75
25
25
25
167
167
167
214
214
214
142
142
142
73
73
73
216
216
216
178
178
178
63
63
63
242
242
242
212
212
212
81
81
81
201
201
201
40
40
40
66
66
66
130
130
130
44
44
44
241
241
241
30
30
30
92
92
92
230
230
230
221
221
221
156
156
156
189
189
189
5
5
5
126
126
126
53
53
53
86
86
86
144
144
144
231
231
231
119
119
119
138
138
138
124
124
124
78
78
78
49
49
49
194
194
194
14
14
14
184
184
184
173
173
173
232
232
232
193
193
193
10
10
10
108
108
108
246
246
246
174
174
174
178
178
178
181
181
181
177
177
177
158
158
158
99
99
99
30
30
30
190
190
190
110
110
110
243
243
243
183
183
183
83
83
83
253
253
253
75
75
75
45
45
45
68
68
68
105
105
105
6
6
6
15
15
15
172
172
172
207
207
207
147
147
147
132
132
132
249
249
249
235
235
235
151
151
151
49
49
49
13
13
13
46
46
46
191
191
191
1
1
1
79
79
79
59
59
59
235
235
235
230
230
230
124
124
124
74
74
74
82
82
82
139
139
139
194
194
194
33
33
33
140
140
140
226
226
226
184
184
184
135
135
135
36
36
36
110
110
110
123
123
123
103
103
103
27
27
27
171
171
171
91
91
91
241
241
241
128
128
128
2
2
2
12
12
12
8
8
8
240
240
240
197
197
197
33
33
33
15
15
15
185
185
185
20
20
20
9
9
9
129
129
129
226
226
226
74
74
74
214
214
214
113
113
113
225
225
225
200
200
200
139
139
139
75
75
75
46
46
46
82
82
82
43
43
43
254
254
254
132
132
132
74
74
74
215
215
215
115
115
115
51
51
51
102
102
102
90
90
90
9
9
9
7
7
7
231
231
231
172
172
172
71
71
71
78
78
78
163
163
163
118
118
118
142
142
142
1
1
1
64
64
64
123
123
123
19
19
19
91
91
91
204
204
204
247
247
247
50
50
50
216
216
216
113
113
113
244
244
244
56
56
56
71
71
71
50
50
50
135
135
135
138
138
138
172
172
172
240
240
240
209
209
209
243
243
243
207
207
207
252
252
252
251
251
251
105
105
105
13
13
13
108
108
108
222
222
222
100
100
100
77
77
77
125
125
125
173
173
173
179
179
179
210
210
210
181
181
181
92
92
92
240
240
240
155
155
155
159
159
159
36
36
36
155
155
155
27
27
27
110
110
110
165
165
165
0
0
0
95
95
95
220
220
220
95
95
95
92
92
92
229
229
229
253
253
253
65
65
65
207
207
207
184
184
184
108
108
108
81
81
81
207
207
207
121
121
121
184
184
184
177
177
177
46
46
46
253
253
253
23
23
23
120
120
120
167
167
167
145
145
145
247
247
247
20
20
20
41
41
41
53
53
53
184
184
184
142
142
142
36
36
36
137
137
137
190
190
190
214
214
214
156
156
156
178
178
178
48
48
48
99
99
99
64
64
64
100
100
100
18
18
18
102
102
102
182
182
182
107
107
107
133
133
133
83
83
83
127
127
127
106
106
106
204
204
204
241
241
241
91
91
91
30
30
30
95
95
95
89
89
89
62
62
62
110
110
110
82
82
82
193
193
193
77
77
77
170
170
170
131
131
131
66
66
66
117
117
117
22
22
22
42
42
42
64
64
64
98
98
98
52
52
52
122
122
122
228
228
228
75
75
75
225
225
225
142
142
142
80
80
80
102
102
102
139
139
139
77
77
77
184
184
184
60
60
60
172
172
172
160
160
160
72
72
72
165
165
165
237
237
237
167
167
167
226
226
226
166
166
166
144
144
144
177
177
177
42
42
42
120
120
120
115
115
115
185
185
185
240
240
240
236
236
236
106
106
106
172
172
172
29
29
29
234
234
234
185
185
185
129
129
129
59
59
59
184
184
184
245
245
245
194
194
194
81
81
81
150
150
150
254
254
254
35
35
35
34
34
34
78
78
78
141
141
141
205
205
205
116
116
116
236
236
236
1
1
1
24
24
24
234
234
234
8
8
8
186
186
186
153
153
153
25
25
25
240
240
240
156
156
156
43
43
43
159
159
159
25
25
25
233
233
233
98
98
98
115
115
115
97
97
97
185
185
185
95
95
95
60
60
60
156
156
156
216
216
216
180
180
180
219
219
219
120
120
120
57
57
57
138
138
138
2
2
2
159
159
159
207
207
207
101
101
101
120
120
120
194
194
194
251
251
251
252
252
252
75
75
75
240
240
240
118
118
118
56
56
56
178
178
178
151
151
151
171
171
171
164
164
164
75
75
75
212
212
212
230
230
230
15
15
15
18
18
18
170
170
170
27
27
27
201
201
201
188
188
188
205
205
205
60
60
60
18
18
18
62
62
62
222
222
222
86
86
86
19
19
19
83
83
83
38
38
38
138
138
138
74
74
74
104
104
104
15
15
15
69
69
69
9
9
9
136
136
136
164
164
164
91
91
91
220
220
220
36
36
36
78
78
78
97
97
97
144
144
144
220
220
220
142
142
142
111
111
111
148
148
148
51
51
51
126
126
126
16
16
16
4
4
4
216
216
216
149
149
149
159
159
159
157
157
157
16
16
16
187
187
187
82
82
82
49
49
49
25
25
25
0
0
0
81
81
81
101
101
101
140
140
140
67
67
67
190
190
190
212
212
212
109
109
109
44
44
44
33
33
33
142
142
142
249
249
249
239
239
239
254
254
254
209
209
209
191
191
191
162
162
162
167
167
167
148
148
148
76
76
76
186
186
186
232
232
232
185
185
185
16
16
16
17
17
17
104
104
104
13
13
13
226
226
226
157
157
157
234
234
234
234
234
234
65
65
65
169
169
169
198
198
198
180
180
180
33
33
33
193
193
193
195
195
195
234
234
234
136
136
136
33
33
33
36
36
36
99
99
99
15
15
15
202
202
202
197
197
197
220
220
220
5
5
5
35
35
35
49
49
49
57
57
57
103
103
103
164
164
164
84
84
84
97
97
97
17
17
17
253
253
253
91
91
91
41
41
41
18
18
18
179
179
179
43
43
43
182
182
182
189
189
189
30
30
30
3
3
3
4
4
4
205
205
205
225
225
225
131
131
131
189
189
189
78
78
78
162
162
162
238
238
238
189
189
189
18
18
18
182
182
182
207
207
207
226
226
226
254
254
254
22
22
22
71
71
71
9
9
9
214
214
214
195
195
195
85
85
85
212
212
212
220
220
220
116
116
116
185
185
185
36
36
36
17
17
17
76
76
76
48
48
48
138
138
138
112
112
112
100
100
100
87
87
87
197
197
197
217
217
217
99
99
99
75
75
75
234
234
234
11
11
11
30
30
30
56
56
56
103
103
103
173
173
173
139
139
139
219
219
219
82
82
82
29
29
29
137
137
137
40
40
40
114
114
114
167
167
167
76
76
76
72
72
72
190
190
190
1
1
1
35
35
35
54
54
54
39
39
39
44
44
44
122
122
122
171
171
171
233
233
233
155
155
155
175
175
175
161
161
161
170
170
170
76
76
76
23
23
23
174
174
174
144
144
144
144
144
144
102
102
102
246
246
246
169
169
169
85
85
85
69
69
69
144
144
144
211
211
211
2
2
2
118
118
118
64
64
64
156
156
156
30
30
30
246
246
246
39
39
39
158
158
158
72
72
72
224
224
224
202
202
202
155
155
155
145
145
145
35
35
35
176
176
176
224
224
224
164
164
164
122
122
122
128
128
128
97
97
97
14
14
14
229
229
229
246
246
246
241
241
241
191
191
191
48
48
48
93
93
93
148
148
148
114
114
114
83
83
83
198
198
198
230
230
230
177
177
177
248
248
248
220
220
220
152
152
152
82
82
82
202
202
202
240
240
240
21
21
21
14
14
14
227
227
227
15
15
15
162
162
162
10
10
10
24
24
24
235
235
235
61
61
61
225
225
225
100
100
100
125
125
125
7
7
7
59
59
59
220
220
220
159
159
159
10
10
10
248
248
248
215
215
215
160
160
160
62
62
62
159
159
159
159
159
159
15
15
15
218
218
218
20
20
20
127
127
127
151
151
151
244
244
244
229
229
229
38
38
38
11
11
11
72
72
72
86
86
86
129
129
129
154
154
154
83
83
83
227
227
227
70
70
70
228
228
228
253
253
253
155
155
155
110
110
110
178
178
178
156
156
156
99
99
99
231
231
231
14
14
14
251
251
251
148
148
148
52
52
52
253
253
253
198
198
198
141
141
141
194
194
194
170
170
170
252
252
252
9
9
9
176
176
176
111
111
111
180
180
180
212
212
212
69
69
69
190
190
190
221
221
221
173
173
173
201
201
201
140
140
140
151
151
151
43
43
43
51
51
51
10
10
10
179
179
179
35
35
35
162
162
162
221
221
221
123
123
123
22
22
22
216
216
216
56
56
56
225
225
225
5
5
5
165
165
165
215
215
215
170
170
170
37
37
37
179
179
179
224
224
224
188
188
188
62
62
62
222
222
222
175
175
175
244
244
244
104
104
104
229
229
229
242
242
242
39
39
39
115
115
115
172
172
172
80
80
80
143
143
143
49
49
49
214
214
214
192
192
192
131
131
131
221
221
221
243
243
243
250
250
250
13
13
13
31
31
31
104
104
104
171
171
171
157
157
157
122
122
122
249
249
249
7
7
7
229
229
229
104
104
104
125
125
125
147
147
147
87
87
87
118
118
118
196
196
196
185
185
185
203
203
203
139
139
139
228
228
228
119
119
119
248
248
248
242
242
242
237
237
237
102
102
102
0
0
0
143
143
143
119
119
119
209
209
209
50
50
50
133
133
133
211
211
211
32
32
32
216
216
216
141
141
141
28
28
28
195
195
195
190
190
190
183
183
183
221
221
221
250
250
250
44
44
44
220
220
220
39
39
39
166
166
166
51
51
51
2
2
2
45
45
45
102
102
102
102
102
102
224
224
224
216
216
216
33
33
33
228
228
228
110
110
110
24
24
24
182
182
182
60
60
60
254
254
254
86
86
86
178
178
178
15
15
15
94
94
94
44
44
44
227
227
227
32
32
32
234
234
234
215
215
215
178
178
178
180
180
180
189
189
189
2
2
2
200
200
200
159
159
159
195
195
195
244
244
244
129
129
129
22
22
22
12
12
12
7
7
7
145
145
145
162
162
162
36
36
36
249
249
249
251
251
251
217
217
217
40
40
40
4
4
4
180
180
180
42
42
42
221
221
221
78
78
78
160
160
160
247
247
247
135
135
135
156
156
156
176
176
176
204
204
204
60
60
60
241
241
241
97
97
97
80
80
80
161
161
161
47
47
47
33
33
33
59
59
59
18
18
18
252
252
252
102
102
102
94
94
94
55
55
55
160
160
160
62
62
62
228
228
228
224
224
224
238
238
238
194
194
194
128
128
128
45
45
45
223
223
223
30
30
30
176
176
176
252
252
252
228
228
228
132
132
132
52
52
52
42
42
42
37
37
37
75
75
75
69
69
69
48
48
48
235
235
235
221
221
221
223
223
223
26
26
26
246
246
246
75
75
75
210
210
210
95
95
95
252
252
252
168
168
168
223
223
223
5
5
5
15
15
15
155
155
155
29
29
29
177
177
177
179
179
179
46
46
46
106
106
106
128
128
128
222
222
222
73
73
73
176
176
176
246
246
246
240
240
240
209
209
209
92
92
92
55
55
55
99
99
99
166
166
166
130
130
130
104
104
104
209
209
209
88
88
88
76
76
76
86
86
86
239
239
239
7
7
7
236
236
236
159
159
159
55
55
55
63
63
63
243
243
243
186
186
186
226
226
226
37
37
37
103
103
103
189
189
189
31
31
31
193
193
193
238
238
238
31
31
31
30
30
30
173
173
173
71
71
71
58
58
58
91
91
91
81
81
81
73
73
73
194
194
194
207
207
207
14
14
14
54
54
54
130
130
130
75
75
75
244
244
244
145
145
145
143
143
143
65
65
65
234
234
234
204
204
204
211
211
211
44
44
44
242
242
242
186
186
186
249
249
249
207
207
207
249
249
249
207
207
207
177
177
177
199
199
199
54
54
54
184
184
184
76
76
76
13
13
13
52
52
52
183
183
183
88
88
88
84
84
84
116
116
116
31
31
31
82
82
82
48
48
48
247
247
247
182
182
182
53
53
53
210
210
210
12
12
12
132
132
132
186
186
186
27
27
27
34
34
34
208
208
208
122
122
122
194
194
194
236
236
236
170
170
170
48
48
48
90
90
90
4
4
4
17
17
17
237
237
237
228
228
228
78
78
78
38
38
38
111
111
111
187
187
187
111
111
111
135
135
135
214
214
214
30
30
30
46
46
46
152
152
152
133
133
133
49
49
49
197
197
197
193
193
193
50
50
50
2
2
2
117
117
117
99
99
99
221
221
221
18
18
18
16
16
16
6
6
6
116
116
116
149
149
149
95
95
95
233
233
233
232
232
232
138
138
138
48
48
48
171
171
171
75
75
75
156
156
156
90
90
90
87
87
87
57
57
57
200
200
200
137
137
137
146
146
146
221
221
221
147
147
147
108
108
108
70
70
70
212
212
212
2
2
2
46
46
46
94
94
94
157
157
157
27
27
27
226
226
226
250
250
250
109
109
109
182
182
182
161
161
161
70
70
70
147
147
147
77
77
77
44
44
44
183
183
183
57
57
57
96
96
96
246
246
246
156
156
156
91
91
91
5
5
5
233
233
233
246
246
246
70
70
70
96
96
96
70
70
70
89
89
89
126
126
126
19
19
19
152
152
152
63
63
63
2
2
2
69
69
69
12
12
12
194
194
194
195
195
195
80
80
80
223
223
223
220
220
220
75
75
75
208
208
208
105
105
105
122
122
122
84
84
84
221
221
221
249
249
249
128
128
128
25
25
25
158
158
158
194
194
194
162
162
162
146
146
146
3
3
3
153
153
153
49
49
49
100
100
100
98
98
98
203
203
203
179
179
179
201
201
201
179
179
179
64
64
64
252
252
252
35
35
35
184
184
184
223
223
223
73
73
73
21
21
21
62
62
62
197
197
197
41
41
41
133
133
133
43
43
43
3
3
3
97
97
97
184
184
184
103
103
103
190
190
190
0
0
0
134
134
134
84
84
84
47
47
47
1
1
1
142
142
142
148
148
148
194
194
194
238
238
238
66
66
66
131
131
131
243
243
243
149
149
149
253
253
253
44
44
44
29
29
29
171
171
171
249
249
249
130
130
130
121
121
121
21
21
21
81
81
81
164
164
164
153
153
153
13
13
13
216
216
216
223
223
223
146
146
146
246
246
246
14
14
14
187
187
187
29
29
29
15
15
15
217
217
217
192
192
192
231
231
231
68
68
68
224
224
224
219
219
219
253
253
253
77
77
77
84
84
84
61
61
61
155
155
155
242
242
242
50
50
50
212
212
212
190
190
190
166
166
166
209
209
209
191
191
191
88
88
88
86
86
86
86
86
86
175
175
175
130
130
130
153
153
153
114
114
114
28
28
28
182
182
182
53
53
53
204
204
204
181
181
181
142
142
142
193
193
193
195
195
195
115
115
115
186
186
186
192
192
192
78
78
78
235
235
235
253
253
253
104
104
104
62
62
62
181
181
181
101
101
101
212
212
212
29
29
29
160
160
160
249
249
249
236
236
236
104
104
104
243
243
243
61
61
61
52
52
52
114
114
114
6
6
6
125
125
125
200
200
200
153
153
153
34
34
34
251
251
251
32
32
32
115
115
115
157
157
157
43
43
43
72
72
72
107
107
107
205
205
205
217
217
217
106
106
106
42
42
42
121
121
121
68
68
68
140
140
140
44
44
44
105
105
105
230
230
230
189
189
189
223
223
223
26
26
26
95
95
95
73
73
73
188
188
188
212
212
212
41
41
41
28
28
28
8
8
8
229
229
229
220
220
220
190
190
190
12
12
12
53
53
53
69
69
69
127
127
127
249
249
249
122
122
122
137
137
137
162
162
162
68
68
68
219
219
219
35
35
35
86
86
86
163
163
163
36
36
36
223
223
223
158
158
158
22
22
22
197
197
197
251
251
251
153
153
153
239
239
239
118
118
118
116
116
116
171
171
171
125
125
125
209
209
209
44
44
44
52
52
52
165
165
165
165
165
165
181
181
181
159
159
159
0
0
0
96
96
96
46
46
46
173
173
173
32
32
32
155
155
155
75
75
75
209
209
209
144
144
144
242
242
242
112
112
112
194
194
194
175
175
175
136
136
136
136
136
136
11
11
11
61
61
61
81
81
81
114
114
114
211
211
211
211
211
211
8
8
8
183
183
183
41
41
41
4
4
4
116
116
116
66
66
66
118
118
118
227
227
227
83
83
83
108
108
108
3
3
3
195
195
195
16
16
16
80
80
80
130
130
130
217
217
217
56
56
56
179
179
179
26
26
26
37
37
37
22
22
22
115
115
115
157
157
157
180
180
180
115
115
115
14
14
14
186
186
186
210
210
210
62
62
62
229
229
229
84
84
84
0
0
0
54
54
54
141
141
141
223
223
223
6
6
6
11
11
11
159
159
159
179
179
179
12
12
12
82
82
82
233
233
233
154
154
154
69
69
69
159
159
159
31
31
31
224
224
224
147
147
147
248
248
248
213
213
213
27
27
27
214
214
214
227
227
227
150
150
150
109
109
109
39
39
39
212
212
212
51
51
51
138
138
138
61
61
61
177
177
177
49
49
49
184
184
184
241
241
241
109
109
109
82
82
82
44
44
44
126
126
126
51
51
51
125
125
125
203
203
203
51
51
51
76
76
76
57
57
57
77
77
77
121
121
121
84
84
84
87
87
87
45
45
45
253
253
253
42
42
42
220
220
220
73
73
73
147
147
147
72
72
72
185
185
185
85
85
85
230
230
230
159
159
159
48
48
48
201
201
201
204
204
204
55
55
55
185
185
185
110
110
110
107
107
107
214
214
214
27
27
27
202
202
202
114
114
114
244
244
244
247
247
247
69
69
69
173
173
173
172
172
172
147
147
147
34
34
34
173
173
173
120
120
120
14
14
14
169
169
169
67
67
67
245
245
245
215
215
215
184
184
184
141
141
141
109
109
109
123
123
123
101
101
101
20
20
20
178
178
178
211
211
211
109
109
109
231
231
231
29
29
29
61
61
61
27
27
27
150
150
150
17
17
17
237
237
237
108
108
108
245
245
245
40
40
40
47
47
47
4
4
4
64
64
64
189
189
189
55
55
55
187
187
187
35
35
35
108
108
108
241
241
241
136
136
136
47
47
47
204
204
204
113
113
113
253
253
253
184
184
184
169
169
169
198
198
198
160
160
160
19
19
19
106
106
106
128
128
128
94
94
94
75
75
75
121
121
121
146
146
146
80
80
80
44
44
44
99
99
99
236
236
236
159
159
159
31
31
31
94
94
94
17
17
17
190
190
190
113
113
113
248
248
248
44
44
44
86
86
86
100
100
100
79
79
79
191
191
191
81
81
81
148
148
148
209
209
209
114
114
114
111
111
111
146
146
146
253
253
253
95
95
95
130
130
130
111
111
111
67
67
67
90
90
90
165
165
165
243
243
243
191
191
191
60
60
60
40
40
40
173
173
173
138
138
138
246
246
246
232
232
232
42
42
42
201
201
201
150
150
150
227
227
227
141
141
141
234
234
234
161
161
161
51
51
51
208
208
208
31
31
31
103
103
103
193
193
193
217
217
217
114
114
114
149
149
149
116
116
116
69
69
69
51
51
51
148
148
148
189
189
189
253
253
253
243
243
243
89
89
89
67
67
67
57
57
57
251
251
251
30
30
30
155
155
155
91
91
91
115
115
115
85
85
85
98
98
98
187
187
187
215
215
215
193
193
193
45
45
45
177
177
177
78
78
78
149
149
149
105
105
105
39
39
39
120
120
120
237
237
237
139
139
139
125
125
125
113
113
113
5
5
5
216
216
216
102
102
102
77
77
77
178
178
178
251
251
251
142
142
142
64
64
64
33
33
33
59
59
59
196
196
196
63
63
63
96
96
96
245
245
245
233
233
233
220
220
220
34
34
34
192
192
192
100
100
100
138
138
138
80
80
80
76
76
76
