P3
4 5
255
15
163
112
124
62
147
100
19
105
57
45
63
33
149
124
141
149
101
181
143
225
160
137
232
44
91
178
122
190
209
39
135
15
3
41
165
13
244
133
164
179
28
254
130
80
186
100
98
97
78
162
8
102
167
82
162
132
214
104
14
