P3
5 4
255
15
15
15
97
97
97
164
164
164
39
39
39
160
160
160
33
33
33
124
124
124
8
8
8
254
254
254
3
3
3
44
44
44
141
141
141
100
100
100
82
82
82
186
186
186
13
13
13
122
122
122
181
181
181
57
57
57
214
214
214
