P3
50 40
255
58
58
58
82
82
82
65
65
65
113
113
113
55
55
55
116
116
116
105
105
105
77
77
77
217
217
217
102
102
102
126
126
126
72
72
72
125
125
125
172
172
172
102
102
102
122
122
122
217
217
217
183
183
183
107
107
107
129
129
129
129
129
129
72
72
72
112
112
112
85
85
85
146
146
146
123
123
123
22
22
22
140
140
140
60
60
60
99
99
99
127
127
127
213
213
213
194
194
194
115
115
115
68
68
68
47
47
47
54
54
54
172
172
172
113
113
113
134
134
134
113
113
113
144
144
144
104
104
104
102
102
102
136
136
136
51
51
51
79
79
79
145
145
145
151
151
151
102
102
102
122
122
122
182
182
182
147
147
147
159
159
159
214
214
214
82
82
82
62
62
62
104
104
104
173
173
173
117
117
117
86
86
86
101
101
101
129
129
129
148
148
148
67
67
67
182
182
182
62
62
62
174
174
174
116
116
116
126
126
126
135
135
135
139
139
139
71
71
71
154
154
154
146
146
146
172
172
172
219
219
219
103
103
103
111
111
111
138
138
138
176
176
176
107
107
107
57
57
57
184
184
184
101
101
101
140
140
140
92
92
92
128
128
128
98
98
98
129
129
129
102
102
102
140
140
140
86
86
86
77
77
77
73
73
73
133
133
133
115
115
115
117
117
117
173
173
173
29
29
29
36
36
36
188
188
188
103
103
103
128
128
128
90
90
90
162
162
162
188
188
188
46
46
46
136
136
136
169
169
169
121
121
121
201
201
201
207
207
207
136
136
136
207
207
207
80
80
80
161
161
161
99
99
99
143
143
143
57
57
57
65
65
65
151
151
151
134
134
134
109
109
109
133
133
133
133
133
133
171
171
171
56
56
56
111
111
111
138
138
138
87
87
87
117
117
117
99
99
99
193
193
193
73
73
73
64
64
64
169
169
169
71
71
71
145
145
145
90
90
90
109
109
109
121
121
121
154
154
154
20
20
20
133
133
133
97
97
97
106
106
106
113
113
113
94
94
94
150
150
150
83
83
83
122
122
122
98
98
98
121
121
121
194
194
194
137
137
137
179
179
179
160
160
160
98
98
98
131
131
131
138
138
138
177
177
177
81
81
81
131
131
131
118
118
118
48
48
48
106
106
106
127
127
127
129
129
129
174
174
174
117
117
117
117
117
117
105
105
105
173
173
173
86
86
86
149
149
149
180
180
180
77
77
77
81
81
81
196
196
196
157
157
157
111
111
111
138
138
138
113
113
113
222
222
222
78
78
78
189
189
189
101
101
101
208
208
208
92
92
92
85
85
85
72
72
72
106
106
106
113
113
113
159
159
159
108
108
108
229
229
229
186
186
186
166
166
166
160
160
160
138
138
138
64
64
64
130
130
130
79
79
79
132
132
132
76
76
76
69
69
69
182
182
182
150
150
150
132
132
132
158
158
158
91
91
91
105
105
105
179
179
179
127
127
127
33
33
33
126
126
126
107
107
107
76
76
76
107
107
107
81
81
81
168
168
168
141
141
141
99
99
99
131
131
131
146
146
146
108
108
108
77
77
77
71
71
71
203
203
203
151
151
151
55
55
55
166
166
166
169
169
169
105
105
105
144
144
144
138
138
138
91
91
91
178
178
178
192
192
192
159
159
159
157
157
157
101
101
101
162
162
162
166
166
166
221
221
221
100
100
100
169
169
169
113
113
113
145
145
145
134
134
134
150
150
150
110
110
110
118
118
118
47
47
47
156
156
156
76
76
76
76
76
76
142
142
142
77
77
77
117
117
117
95
95
95
116
116
116
106
106
106
202
202
202
131
131
131
143
143
143
103
103
103
169
169
169
90
90
90
61
61
61
101
101
101
78
78
78
101
101
101
112
112
112
81
81
81
164
164
164
118
118
118
174
174
174
192
192
192
106
106
106
148
148
148
119
119
119
153
153
153
151
151
151
132
132
132
67
67
67
81
81
81
152
152
152
123
123
123
63
63
63
164
164
164
75
75
75
125
125
125
166
166
166
133
133
133
77
77
77
118
118
118
206
206
206
139
139
139
83
83
83
132
132
132
135
135
135
133
133
133
107
107
107
114
114
114
131
131
131
58
58
58
58
58
58
115
115
115
80
80
80
80
80
80
162
162
162
116
116
116
131
131
131
94
94
94
141
141
141
171
171
171
110
110
110
204
204
204
82
82
82
137
137
137
147
147
147
76
76
76
162
162
162
146
146
146
69
69
69
200
200
200
73
73
73
111
111
111
57
57
57
98
98
98
131
131
131
46
46
46
110
110
110
181
181
181
153
153
153
98
98
98
102
102
102
168
168
168
105
105
105
173
173
173
167
167
167
132
132
132
141
141
141
196
196
196
62
62
62
73
73
73
112
112
112
142
142
142
210
210
210
135
135
135
144
144
144
112
112
112
184
184
184
180
180
180
204
204
204
108
108
108
127
127
127
145
145
145
98
98
98
135
135
135
197
197
197
141
141
141
48
48
48
137
137
137
137
137
137
223
223
223
114
114
114
93
93
93
180
180
180
121
121
121
113
113
113
151
151
151
62
62
62
59
59
59
117
117
117
125
125
125
168
168
168
63
63
63
84
84
84
124
124
124
110
110
110
146
146
146
202
202
202
158
158
158
90
90
90
88
88
88
149
149
149
106
106
106
139
139
139
139
139
139
135
135
135
167
167
167
158
158
158
30
30
30
93
93
93
119
119
119
137
137
137
24
24
24
133
133
133
126
126
126
124
124
124
135
135
135
181
181
181
110
110
110
90
90
90
86
86
86
220
220
220
132
132
132
127
127
127
126
126
126
106
106
106
156
156
156
229
229
229
149
149
149
147
147
147
91
91
91
117
117
117
146
146
146
76
76
76
129
129
129
115
115
115
146
146
146
162
162
162
164
164
164
127
127
127
101
101
101
159
159
159
116
116
116
128
128
128
133
133
133
135
135
135
219
219
219
195
195
195
122
122
122
154
154
154
54
54
54
136
136
136
121
121
121
139
139
139
98
98
98
195
195
195
84
84
84
79
79
79
86
86
86
80
80
80
61
61
61
76
76
76
88
88
88
97
97
97
109
109
109
75
75
75
125
125
125
116
116
116
137
137
137
37
37
37
207
207
207
83
83
83
58
58
58
90
90
90
125
125
125
109
109
109
165
165
165
85
85
85
147
147
147
107
107
107
94
94
94
109
109
109
114
114
114
140
140
140
101
101
101
110
110
110
118
118
118
95
95
95
153
153
153
98
98
98
67
67
67
168
168
168
200
200
200
140
140
140
228
228
228
78
78
78
48
48
48
130
130
130
156
156
156
109
109
109
35
35
35
141
141
141
83
83
83
114
114
114
67
67
67
185
185
185
45
45
45
146
146
146
183
183
183
212
212
212
133
133
133
57
57
57
117
117
117
161
161
161
168
168
168
83
83
83
103
103
103
118
118
118
73
73
73
169
169
169
117
117
117
176
176
176
57
57
57
99
99
99
190
190
190
160
160
160
100
100
100
98
98
98
74
74
74
114
114
114
94
94
94
205
205
205
144
144
144
153
153
153
175
175
175
101
101
101
128
128
128
139
139
139
141
141
141
52
52
52
107
107
107
202
202
202
95
95
95
115
115
115
160
160
160
117
117
117
74
74
74
205
205
205
122
122
122
70
70
70
185
185
185
81
81
81
103
103
103
121
121
121
36
36
36
192
192
192
96
96
96
67
67
67
185
185
185
150
150
150
148
148
148
215
215
215
92
92
92
106
106
106
78
78
78
110
110
110
175
175
175
144
144
144
104
104
104
61
61
61
153
153
153
109
109
109
115
115
115
118
118
118
78
78
78
145
145
145
100
100
100
114
114
114
156
156
156
28
28
28
135
135
135
249
249
249
89
89
89
144
144
144
170
170
170
182
182
182
113
113
113
91
91
91
138
138
138
108
108
108
128
128
128
161
161
161
134
134
134
123
123
123
178
178
178
73
73
73
111
111
111
129
129
129
122
122
122
112
112
112
110
110
110
158
158
158
183
183
183
153
153
153
91
91
91
122
122
122
141
141
141
82
82
82
88
88
88
71
71
71
125
125
125
93
93
93
90
90
90
52
52
52
108
108
108
159
159
159
108
108
108
157
157
157
109
109
109
68
68
68
77
77
77
185
185
185
91
91
91
118
118
118
134
134
134
143
143
143
64
64
64
126
126
126
106
106
106
55
55
55
97
97
97
75
75
75
109
109
109
159
159
159
188
188
188
65
65
65
143
143
143
105
105
105
57
57
57
218
218
218
120
120
120
88
88
88
98
98
98
181
181
181
44
44
44
124
124
124
152
152
152
158
158
158
66
66
66
161
161
161
122
122
122
128
128
128
135
135
135
165
165
165
125
125
125
87
87
87
132
132
132
89
89
89
171
171
171
139
139
139
105
105
105
179
179
179
72
72
72
98
98
98
74
74
74
134
134
134
90
90
90
98
98
98
138
138
138
127
127
127
100
100
100
69
69
69
153
153
153
154
154
154
136
136
136
90
90
90
86
86
86
105
105
105
140
140
140
120
120
120
154
154
154
177
177
177
75
75
75
152
152
152
183
183
183
151
151
151
163
163
163
123
123
123
117
117
117
176
176
176
121
121
121
165
165
165
119
119
119
173
173
173
115
115
115
149
149
149
175
175
175
221
221
221
170
170
170
70
70
70
82
82
82
123
123
123
109
109
109
156
156
156
139
139
139
168
168
168
106
106
106
160
160
160
140
140
140
171
171
171
161
161
161
161
161
161
167
167
167
131
131
131
133
133
133
105
105
105
132
132
132
85
85
85
62
62
62
128
128
128
112
112
112
106
106
106
140
140
140
165
165
165
193
193
193
87
87
87
200
200
200
150
150
150
159
159
159
143
143
143
112
112
112
109
109
109
106
106
106
123
123
123
123
123
123
180
180
180
88
88
88
142
142
142
192
192
192
170
170
170
114
114
114
153
153
153
144
144
144
87
87
87
139
139
139
119
119
119
58
58
58
121
121
121
160
160
160
163
163
163
117
117
117
161
161
161
88
88
88
114
114
114
86
86
86
110
110
110
24
24
24
192
192
192
128
128
128
124
124
124
98
98
98
115
115
115
65
65
65
102
102
102
155
155
155
162
162
162
155
155
155
98
98
98
147
147
147
78
78
78
121
121
121
100
100
100
94
94
94
139
139
139
112
112
112
149
149
149
127
127
127
113
113
113
199
199
199
46
46
46
166
166
166
127
127
127
72
72
72
147
147
147
178
178
178
202
202
202
107
107
107
155
155
155
124
124
124
51
51
51
97
97
97
92
92
92
148
148
148
162
162
162
148
148
148
112
112
112
113
113
113
96
96
96
130
130
130
158
158
158
100
100
100
147
147
147
134
134
134
120
120
120
134
134
134
88
88
88
133
133
133
92
92
92
181
181
181
178
178
178
220
220
220
67
67
67
144
144
144
60
60
60
119
119
119
111
111
111
98
98
98
69
69
69
140
140
140
149
149
149
114
114
114
162
162
162
94
94
94
124
124
124
159
159
159
119
119
119
100
100
100
174
174
174
130
130
130
108
108
108
129
129
129
120
120
120
35
35
35
143
143
143
95
95
95
143
143
143
98
98
98
96
96
96
129
129
129
188
188
188
98
98
98
82
82
82
117
117
117
125
125
125
132
132
132
146
146
146
134
134
134
176
176
176
82
82
82
76
76
76
135
135
135
149
149
149
188
188
188
227
227
227
178
178
178
120
120
120
142
142
142
114
114
114
104
104
104
177
177
177
144
144
144
158
158
158
175
175
175
149
149
149
196
196
196
97
97
97
146
146
146
126
126
126
158
158
158
198
198
198
176
176
176
157
157
157
177
177
177
88
88
88
113
113
113
186
186
186
121
121
121
83
83
83
140
140
140
100
100
100
92
92
92
152
152
152
72
72
72
86
86
86
24
24
24
51
51
51
132
132
132
107
107
107
46
46
46
145
145
145
61
61
61
102
102
102
107
107
107
136
136
136
154
154
154
113
113
113
158
158
158
184
184
184
119
119
119
82
82
82
94
94
94
132
132
132
80
80
80
77
77
77
186
186
186
117
117
117
127
127
127
65
65
65
195
195
195
134
134
134
124
124
124
66
66
66
87
87
87
168
168
168
142
142
142
110
110
110
97
97
97
61
61
61
169
169
169
108
108
108
81
81
81
28
28
28
90
90
90
134
134
134
52
52
52
98
98
98
86
86
86
137
137
137
80
80
80
133
133
133
157
157
157
151
151
151
77
77
77
182
182
182
186
186
186
117
117
117
216
216
216
218
218
218
166
166
166
147
147
147
123
123
123
113
113
113
150
150
150
128
128
128
188
188
188
26
26
26
115
115
115
171
171
171
73
73
73
162
162
162
143
143
143
204
204
204
136
136
136
146
146
146
122
122
122
191
191
191
110
110
110
112
112
112
119
119
119
219
219
219
226
226
226
116
116
116
13
13
13
68
68
68
156
156
156
115
115
115
74
74
74
154
154
154
159
159
159
96
96
96
60
60
60
66
66
66
90
90
90
118
118
118
194
194
194
132
132
132
124
124
124
108
108
108
184
184
184
165
165
165
99
99
99
51
51
51
154
154
154
52
52
52
180
180
180
139
139
139
46
46
46
119
119
119
91
91
91
127
127
127
183
183
183
150
150
150
136
136
136
150
150
150
195
195
195
189
189
189
187
187
187
150
150
150
173
173
173
206
206
206
96
96
96
212
212
212
68
68
68
140
140
140
106
106
106
158
158
158
120
120
120
134
134
134
174
174
174
154
154
154
77
77
77
193
193
193
101
101
101
71
71
71
129
129
129
93
93
93
69
69
69
129
129
129
131
131
131
64
64
64
133
133
133
109
109
109
103
103
103
122
122
122
194
194
194
115
115
115
113
113
113
86
86
86
138
138
138
157
157
157
142
142
142
154
154
154
136
136
136
47
47
47
57
57
57
28
28
28
77
77
77
158
158
158
134
134
134
77
77
77
97
97
97
49
49
49
152
152
152
156
156
156
139
139
139
125
125
125
61
61
61
112
112
112
180
180
180
143
143
143
161
161
161
167
167
167
171
171
171
113
113
113
34
34
34
217
217
217
179
179
179
176
176
176
73
73
73
159
159
159
147
147
147
104
104
104
130
130
130
102
102
102
118
118
118
84
84
84
124
124
124
128
128
128
121
121
121
117
117
117
198
198
198
92
92
92
117
117
117
146
146
146
170
170
170
137
137
137
114
114
114
110
110
110
113
113
113
145
145
145
174
174
174
124
124
124
156
156
156
119
119
119
114
114
114
26
26
26
132
132
132
164
164
164
223
223
223
198
198
198
134
134
134
44
44
44
195
195
195
98
98
98
128
128
128
164
164
164
142
142
142
146
146
146
99
99
99
124
124
124
141
141
141
167
167
167
188
188
188
112
112
112
137
137
137
89
89
89
162
162
162
71
71
71
126
126
126
135
135
135
123
123
123
179
179
179
80
80
80
144
144
144
155
155
155
162
162
162
89
89
89
24
24
24
156
156
156
162
162
162
57
57
57
124
124
124
198
198
198
164
164
164
91
91
91
136
136
136
202
202
202
107
107
107
113
113
113
131
131
131
138
138
138
108
108
108
175
175
175
118
118
118
76
76
76
67
67
67
79
79
79
108
108
108
123
123
123
138
138
138
80
80
80
126
126
126
97
97
97
143
143
143
148
148
148
100
100
100
131
131
131
85
85
85
175
175
175
160
160
160
102
102
102
83
83
83
152
152
152
82
82
82
103
103
103
222
222
222
146
146
146
180
180
180
128
128
128
152
152
152
156
156
156
101
101
101
120
120
120
134
134
134
108
108
108
162
162
162
152
152
152
65
65
65
153
153
153
164
164
164
183
183
183
187
187
187
157
157
157
62
62
62
41
41
41
100
100
100
154
154
154
107
107
107
67
67
67
167
167
167
144
144
144
149
149
149
164
164
164
133
133
133
84
84
84
124
124
124
165
165
165
126
126
126
114
114
114
39
39
39
90
90
90
177
177
177
193
193
193
147
147
147
99
99
99
135
135
135
134
134
134
83
83
83
152
152
152
94
94
94
159
159
159
86
86
86
180
180
180
107
107
107
148
148
148
53
53
53
90
90
90
158
158
158
139
139
139
112
112
112
195
195
195
147
147
147
67
67
67
99
99
99
112
112
112
109
109
109
183
183
183
132
132
132
191
191
191
106
106
106
165
165
165
119
119
119
87
87
87
105
105
105
39
39
39
130
130
130
168
168
168
89
89
89
153
153
153
149
149
149
163
163
163
65
65
65
143
143
143
183
183
183
150
150
150
135
135
135
115
115
115
104
104
104
103
103
103
188
188
188
80
80
80
166
166
166
163
163
163
78
78
78
134
134
134
204
204
204
95
95
95
126
126
126
136
136
136
105
105
105
75
75
75
125
125
125
123
123
123
137
137
137
68
68
68
71
71
71
48
48
48
59
59
59
144
144
144
68
68
68
95
95
95
162
162
162
112
112
112
67
67
67
131
131
131
103
103
103
86
86
86
213
213
213
94
94
94
207
207
207
96
96
96
184
184
184
115
115
115
104
104
104
146
146
146
105
105
105
107
107
107
141
141
141
157
157
157
174
174
174
127
127
127
132
132
132
119
119
119
198
198
198
116
116
116
152
152
152
169
169
169
103
103
103
87
87
87
156
156
156
77
77
77
139
139
139
115
115
115
109
109
109
142
142
142
187
187
187
145
145
145
120
120
120
63
63
63
201
201
201
59
59
59
148
148
148
109
109
109
138
138
138
156
156
156
63
63
63
84
84
84
172
172
172
159
159
159
118
118
118
139
139
139
100
100
100
155
155
155
178
178
178
113
113
113
55
55
55
113
113
113
20
20
20
119
119
119
172
172
172
130
130
130
86
86
86
124
124
124
51
51
51
103
103
103
105
105
105
200
200
200
195
195
195
108
108
108
42
42
42
210
210
210
132
132
132
90
90
90
210
210
210
206
206
206
54
54
54
48
48
48
36
36
36
137
137
137
74
74
74
159
159
159
142
142
142
155
155
155
166
166
166
157
157
157
25
25
25
171
171
171
136
136
136
147
147
147
148
148
148
189
189
189
188
188
188
119
119
119
110
110
110
65
65
65
134
134
134
79
79
79
198
198
198
155
155
155
119
119
119
125
125
125
160
160
160
167
167
167
123
123
123
110
110
110
188
188
188
160
160
160
89
89
89
185
185
185
36
36
36
81
81
81
156
156
156
133
133
133
137
137
137
104
104
104
60
60
60
154
154
154
158
158
158
180
180
180
58
58
58
112
112
112
164
164
164
99
99
99
127
127
127
169
169
169
191
191
191
154
154
154
125
125
125
128
128
128
83
83
83
65
65
65
201
201
201
148
148
148
126
126
126
122
122
122
121
121
121
33
33
33
73
73
73
74
74
74
85
85
85
138
138
138
198
198
198
196
196
196
119
119
119
104
104
104
108
108
108
100
100
100
93
93
93
172
172
172
148
148
148
27
27
27
119
119
119
115
115
115
161
161
161
121
121
121
142
142
142
135
135
135
190
190
190
99
99
99
115
115
115
151
151
151
194
194
194
143
143
143
132
132
132
75
75
75
153
153
153
57
57
57
61
61
61
206
206
206
110
110
110
50
50
50
119
119
119
84
84
84
119
119
119
110
110
110
171
171
171
154
154
154
102
102
102
98
98
98
71
71
71
137
137
137
118
118
118
168
168
168
113
113
113
143
143
143
107
107
107
127
127
127
126
126
126
66
66
66
47
47
47
102
102
102
96
96
96
119
119
119
153
153
153
91
91
91
109
109
109
144
144
144
188
188
188
150
150
150
123
123
123
117
117
117
156
156
156
109
109
109
102
102
102
121
121
121
175
175
175
53
53
53
113
113
113
108
108
108
112
112
112
122
122
122
99
99
99
104
104
104
112
112
112
101
101
101
132
132
132
32
32
32
168
168
168
141
141
141
135
135
135
129
129
129
157
157
157
131
131
131
101
101
101
131
131
131
133
133
133
156
156
156
104
104
104
39
39
39
64
64
64
115
115
115
131
131
131
71
71
71
139
139
139
160
160
160
76
76
76
161
161
161
129
129
129
79
79
79
117
117
117
76
76
76
92
92
92
102
102
102
154
154
154
145
145
145
128
128
128
90
90
90
129
129
129
28
28
28
200
200
200
106
106
106
47
47
47
75
75
75
113
113
113
155
155
155
132
132
132
94
94
94
124
124
124
90
90
90
181
181
181
191
191
191
81
81
81
119
119
119
106
106
106
142
142
142
78
78
78
103
103
103
207
207
207
148
148
148
43
43
43
110
110
110
81
81
81
146
146
146
158
158
158
73
73
73
226
226
226
145
145
145
152
152
152
100
100
100
84
84
84
90
90
90
193
193
193
183
183
183
171
171
171
146
146
146
53
53
53
137
137
137
110
110
110
83
83
83
167
167
167
85
85
85
179
179
179
98
98
98
117
117
117
150
150
150
126
126
126
111
111
111
163
163
163
144
144
144
153
153
153
150
150
150
62
62
62
78
78
78
195
195
195
91
91
91
60
60
60
114
114
114
159
159
159
76
76
76
148
148
148
18
18
18
51
51
51
105
105
105
185
185
185
138
138
138
135
135
135
73
73
73
107
107
107
123
123
123
112
112
112
97
97
97
144
144
144
79
79
79
221
221
221
175
175
175
94
94
94
149
149
149
184
184
184
172
172
172
145
145
145
152
152
152
115
115
115
110
110
110
148
148
148
57
57
57
126
126
126
63
63
63
144
144
144
153
153
153
159
159
159
99
99
99
154
154
154
180
180
180
126
126
126
215
215
215
26
26
26
187
187
187
103
103
103
91
91
91
210
210
210
105
105
105
120
120
120
48
48
48
177
177
177
113
113
113
154
154
154
101
101
101
165
165
165
149
149
149
98
98
98
211
211
211
156
156
156
154
154
154
205
205
205
157
157
157
145
145
145
149
149
149
103
103
103
132
132
132
190
190
190
157
157
157
133
133
133
167
167
167
143
143
143
89
89
89
104
104
104
105
105
105
190
190
190
155
155
155
103
103
103
163
163
163
156
156
156
83
83
83
124
124
124
173
173
173
97
97
97
142
142
142
177
177
177
133
133
133
112
112
112
161
161
161
114
114
114
166
166
166
126
126
126
137
137
137
183
183
183
213
213
213
139
139
139
242
242
242
116
116
116
109
109
109
136
136
136
93
93
93
158
158
158
130
130
130
119
119
119
111
111
111
163
163
163
100
100
100
148
148
148
189
189
189
112
112
112
71
71
71
42
42
42
116
116
116
107
107
107
129
129
129
150
150
150
98
98
98
135
135
135
114
114
114
77
77
77
114
114
114
182
182
182
121
121
121
205
205
205
126
126
126
121
121
121
145
145
145
88
88
88
74
74
74
90
90
90
121
121
121
72
72
72
119
119
119
152
152
152
170
170
170
51
51
51
109
109
109
118
118
118
137
137
137
123
123
123
146
146
146
183
183
183
94
94
94
88
88
88
127
127
127
66
66
66
102
102
102
206
206
206
82
82
82
105
105
105
123
123
123
133
133
133
163
163
163
185
185
185
140
140
140
152
152
152
131
131
131
108
108
108
186
186
186
141
141
141
135
135
135
124
124
124
138
138
138
119
119
119
161
161
161
132
132
132
170
170
170
79
79
79
115
115
115
129
129
129
155
155
155
57
57
57
132
132
132
78
78
78
177
177
177
159
159
159
155
155
155
95
95
95
136
136
136
176
176
176
70
70
70
106
106
106
58
58
58
107
107
107
43
43
43
122
122
122
141
141
141
148
148
148
97
97
97
124
124
124
151
151
151
85
85
85
104
104
104
121
121
121
75
75
75
163
163
163
77
77
77
126
126
126
83
83
83
207
207
207
31
31
31
149
149
149
157
157
157
144
144
144
169
169
169
138
138
138
73
73
73
47
47
47
96
96
96
39
39
39
106
106
106
119
119
119
175
175
175
36
36
36
123
123
123
204
204
204
148
148
148
212
212
212
129
129
129
138
138
138
90
90
90
113
113
113
135
135
135
90
90
90
161
161
161
155
155
155
117
117
117
59
59
59
127
127
127
154
154
154
190
190
190
177
177
177
68
68
68
44
44
44
181
181
181
172
172
172
173
173
173
220
220
220
133
133
133
190
190
190
150
150
150
121
121
121
141
141
141
98
98
98
107
107
107
49
49
49
127
127
127
147
147
147
103
103
103
74
74
74
185
185
185
166
166
166
114
114
114
63
63
63
35
35
35
178
178
178
72
72
72
111
111
111
147
147
147
68
68
68
112
112
112
59
59
59
155
155
155
99
99
99
107
107
107
78
78
78
42
42
42
214
214
214
54
54
54
139
139
139
73
73
73
173
173
173
79
79
79
108
108
108
108
108
108
102
102
102
93
93
93
118
118
118
107
107
107
152
152
152
46
46
46
107
107
107
149
149
149
137
137
137
135
135
135
79
79
79
226
226
226
116
116
116
162
162
162
121
121
121
74
74
74
65
65
65
202
202
202
150
150
150
128
128
128
95
95
95
88
88
88
154
154
154
98
98
98
31
31
31
126
126
126
204
204
204
171
171
171
125
125
125
110
110
110
133
133
133
63
63
63
120
120
120
137
137
137
153
153
153
103
103
103
204
204
204
127
127
127
104
104
104
40
40
40
103
103
103
38
38
38
202
202
202
92
92
92
155
155
155
60
60
60
96
96
96
38
38
38
174
174
174
128
128
128
152
152
152
197
197
197
52
52
52
141
141
141
176
176
176
148
148
148
139
139
139
227
227
227
145
145
145
150
150
150
120
120
120
149
149
149
164
164
164
78
78
78
99
99
99
154
154
154
139
139
139
135
135
135
179
179
179
152
152
152
191
191
191
147
147
147
119
119
119
98
98
98
132
132
132
148
148
148
62
62
62
126
126
126
154
154
154
174
174
174
110
110
110
96
96
96
84
84
84
103
103
103
117
117
117
139
139
139
99
99
99
118
118
118
150
150
150
173
173
173
134
134
134
149
149
149
172
172
172
154
154
154
158
158
158
112
112
112
90
90
90
96
96
96
143
143
143
196
196
196
156
156
156
125
125
125
159
159
159
107
107
107
179
179
179
141
141
141
208
208
208
161
161
161
98
98
98
104
104
104
95
95
95
142
142
142
149
149
149
141
141
141
58
58
58
100
100
100
212
212
212
136
136
136
164
164
164
187
187
187
109
109
109
146
146
146
114
114
114
136
136
136
121
121
121
102
102
102
118
118
118
168
168
168
187
187
187
136
136
136
96
96
96
45
45
45
111
111
111
126
126
126
27
27
27
128
128
128
120
120
120
145
145
145
139
139
139
90
90
90
167
167
167
139
139
139
79
79
79
76
76
76
162
162
162
145
145
145
95
95
95
62
62
62
87
87
87
136
136
136
165
165
165
94
94
94
119
119
119
69
69
69
68
68
68
208
208
208
126
126
126
131
131
131
159
159
159
194
194
194
95
95
95
102
102
102
120
120
120
126
126
126
109
109
109
124
124
124
153
153
153
167
167
167
156
156
156
222
222
222
101
101
101
120
120
120
167
167
167
120
120
120
46
46
46
97
97
97
