P3
50 40
255
0
91
83
5
66
32
84
73
0
153
119
45
103
97
109
70
82
122
84
96
112
84
85
77
227
204
170
182
164
128
160
176
163
44
78
61
152
190
143
122
162
109
70
112
76
89
120
102
213
222
221
178
163
192
165
129
199
138
98
168
120
94
123
118
105
133
149
148
214
35
28
82
153
118
112
201
141
131
67
0
26
173
99
150
65
49
50
111
97
88
140
75
97
229
166
187
236
225
221
109
108
90
80
40
30
66
22
13
71
56
49
164
172
125
142
168
41
192
190
87
152
79
99
189
91
142
161
83
73
128
83
50
171
169
157
45
60
39
56
59
4
182
186
153
82
99
143
45
67
152
118
168
159
194
224
200
165
154
98
229
211
165
187
187
197
66
77
109
41
54
73
109
114
107
193
183
132
116
111
55
78
96
72
60
95
73
143
187
138
130
173
120
74
98
74
197
210
201
38
46
48
177
174
193
90
66
116
88
61
112
122
112
136
120
118
142
45
45
99
165
153
203
179
143
153
202
141
149
255
193
240
106
29
75
140
120
129
114
94
103
252
175
219
133
56
102
28
4
18
236
224
224
120
80
80
181
140
138
99
81
79
178
177
146
103
109
19
195
179
104
141
73
86
185
95
131
162
79
73
94
45
15
68
82
47
140
177
133
123
138
83
119
125
97
163
167
212
19
25
103
99
49
38
198
163
159
136
131
138
94
104
116
102
115
124
158
172
185
174
188
214
59
74
67
191
207
119
196
214
115
104
125
84
186
220
193
165
224
168
141
184
138
237
227
225
99
76
92
140
150
151
124
140
139
112
115
122
63
67
78
23
42
56
170
188
208
107
102
134
185
163
202
105
69
113
160
101
145
206
111
153
119
35
69
125
100
122
205
174
216
84
0
78
170
66
161
167
114
170
159
128
159
84
45
64
86
50
60
174
154
163
79
59
58
157
124
105
136
91
72
201
145
144
164
93
97
211
116
120
62
6
0
75
122
41
101
180
88
90
131
73
105
116
102
94
79
120
187
160
227
112
20
41
153
92
123
70
72
123
75
100
141
176
190
191
108
113
109
186
183
212
126
123
132
136
141
77
125
131
57
158
163
141
162
185
175
35
96
55
145
195
157
67
59
56
66
40
51
77
71
75
131
133
132
153
155
152
161
169
172
122
143
164
91
102
130
81
58
86
147
113
146
88
65
109
143
105
152
196
120
159
131
62
93
34
16
42
175
157
199
217
145
227
127
47
134
147
99
159
115
88
123
235
211
227
72
60
60
161
167
157
139
136
127
224
188
192
91
45
48
60
30
22
85
36
31
213
113
125
150
79
73
170
210
150
110
176
114
238
246
231
230
206
228
154
125
173
154
120
181
135
61
148
104
59
142
144
153
228
31
58
101
140
147
131
75
60
39
116
77
108
184
136
178
222
173
194
138
95
114
198
166
205
45
44
75
40
90
87
126
188
165
99
132
103
47
46
28
163
123
132
114
66
88
77
54
72
140
130
157
76
66
116
160
137
191
172
117
159
124
78
107
160
162
175
131
137
153
95
63
102
137
102
142
77
82
101
182
199
209
154
157
176
35
30
53
155
145
172
216
209
225
107
113
103
120
147
114
158
219
160
88
139
83
199
193
169
197
174
168
167
169
166
201
178
184
204
105
126
191
98
125
187
183
208
233
232
255
96
12
87
188
90
173
137
96
162
153
139
198
144
93
188
109
82
163
76
97
150
52
80
102
49
40
33
207
173
171
77
30
66
128
70
128
148
87
147
80
21
79
124
76
126
98
87
117
105
156
157
93
165
141
169
216
174
132
145
117
124
90
106
138
91
123
190
158
182
63
40
58
44
20
33
112
85
92
124
86
97
121
100
99
58
78
53
92
113
98
115
94
125
92
65
106
190
188
210
189
207
211
98
130
117
153
176
168
107
95
115
141
128
148
133
148
143
120
158
135
47
103
68
69
108
79
185
175
166
142
128
125
24
51
36
164
182
166
85
46
41
141
88
104
168
148
199
97
56
132
195
77
174
163
49
134
210
178
219
91
99
118
59
37
83
166
166
190
153
192
173
82
110
95
117
84
115
117
64
116
131
102
150
44
20
70
66
31
89
104
63
107
96
50
63
69
59
49
168
234
206
82
164
124
104
139
97
76
88
66
163
176
195
161
164
197
128
107
126
225
197
173
109
88
0
156
154
45
135
162
91
46
84
27
169
198
131
192
198
154
86
48
63
238
185
227
64
26
65
95
82
100
33
53
41
67
77
69
113
63
101
90
40
91
89
94
123
144
163
195
145
129
192
76
39
108
113
63
114
159
137
150
48
93
50
143
223
152
133
212
146
116
166
128
137
129
142
184
129
171
104
11
66
133
58
88
127
123
94
185
219
159
232
230
251
82
98
95
140
189
142
145
176
145
167
130
174
218
165
237
241
223
255
72
71
111
143
140
187
109
97
137
116
93
111
155
160
156
134
202
179
118
189
155
48
58
24
182
173
156
82
94
110
233
242
255
132
115
134
123
95
74
250
227
134
168
166
57
113
151
76
160
205
150
57
75
25
113
106
78
122
92
102
145
106
135
170
134
160
75
61
76
109
134
128
151
165
166
162
116
153
113
70
116
181
201
226
120
143
184
82
49
140
99
41
141
180
124
195
136
102
129
169
174
144
138
186
126
101
191
127
129
204
161
166
168
167
41
2
20
118
68
80
120
83
77
98
95
60
22
36
0
86
94
113
122
146
148
128
182
146
137
175
152
165
140
179
100
59
117
36
24
60
115
126
154
176
205
239
84
117
162
79
100
163
91
122
176
64
121
138
126
166
158
253
225
211
146
92
82
166
126
135
142
114
136
130
111
141
207
187
214
99
67
82
124
99
103
119
117
118
132
132
140
139
125
151
173
160
188
148
154
170
54
65
67
200
203
192
99
112
103
51
94
101
112
151
168
149
155
171
216
225
232
171
223
211
86
136
137
121
123
172
36
11
77
149
121
172
183
133
171
166
76
102
113
39
52
219
214
218
34
58
60
96
106
115
107
113
111
16
26
0
104
103
83
129
97
121
90
43
89
99
125
122
83
113
103
12
45
24
105
132
117
83
92
99
126
134
145
39
64
61
163
193
195
83
103
127
26
40
87
40
54
129
91
116
182
45
93
115
170
202
199
79
54
49
241
185
186
124
67
86
94
50
73
70
51
70
86
75
105
128
111
166
97
76
132
119
96
124
134
101
128
114
68
117
121
92
136
139
159
168
31
74
57
159
196
165
180
217
186
138
181
164
205
241
237
62
80
84
21
45
45
51
110
92
142
193
184
106
111
140
61
48
91
126
122
155
60
25
57
172
63
102
131
24
52
226
197
201
65
80
73
157
183
182
102
132
122
229
253
221
156
158
147
92
54
111
109
53
144
150
202
153
184
215
181
89
80
75
104
105
97
109
168
122
68
159
92
122
214
147
119
171
132
225
195
207
101
38
81
107
63
114
170
160
194
116
157
151
96
145
126
72
88
85
48
33
52
112
69
115
110
66
102
209
193
180
161
165
151
104
122
158
141
150
193
98
75
85
197
145
149
181
108
127
160
109
124
28
43
36
102
156
133
167
234
203
80
138
88
103
130
53
193
199
137
168
159
160
61
63
86
198
232
241
139
166
175
88
68
95
211
188
216
56
80
90
100
115
118
194
145
151
61
12
0
201
216
151
62
109
39
27
78
45
181
212
204
196
182
182
193
163
189
203
184
248
47
35
117
104
148
87
68
90
52
110
89
94
166
156
155
141
196
139
58
150
65
33
128
44
123
180
129
110
80
92
128
62
98
162
111
128
93
73
74
124
151
134
108
148
137
148
167
184
160
156
189
29
3
40
129
100
118
255
253
234
127
132
109
131
155
165
151
167
183
200
174
175
176
120
123
169
97
121
126
75
92
136
140
125
83
119
91
136
180
157
129
168
124
109
129
42
234
240
170
52
44
57
87
86
128
89
116
135
84
98
107
100
66
80
86
64
66
116
164
140
137
183
154
170
138
123
137
98
67
170
191
114
140
195
112
79
146
92
46
88
66
45
25
37
114
80
117
123
123
175
36
52
112
62
68
30
99
103
80
168
165
174
181
176
183
133
128
106
106
115
70
43
78
24
88
125
94
162
178
201
60
62
87
146
140
116
183
179
144
133
138
131
73
75
96
105
88
143
95
76
121
98
94
83
132
132
104
51
46
40
116
113
108
136
140
117
216
211
191
109
79
79
108
65
93
78
36
102
37
7
59
248
238
226
166
157
124
100
72
61
87
68
54
174
195
152
4
36
12
72
89
132
93
110
164
186
218
233
32
47
40
225
189
177
165
149
116
93
164
98
129
188
122
200
145
115
167
88
71
59
45
16
102
139
95
0
69
5
180
242
193
121
129
131
88
79
106
199
211
237
63
87
111
112
77
49
121
95
78
136
129
137
28
20
33
115
90
86
183
160
142
157
156
125
75
88
71
45
66
93
157
180
196
117
136
91
144
156
106
69
74
70
85
71
106
135
94
154
122
83
127
132
126
110
131
140
109
203
204
206
84
79
86
209
193
180
172
149
133
227
196
194
152
119
140
129
99
153
90
68
107
162
151
131
159
134
103
223
152
160
218
161
178
176
192
189
113
161
163
139
172
205
170
196
229
207
238
240
133
154
135
61
57
32
82
94
48
124
192
105
78
129
50
164
119
100
208
135
142
204
165
166
137
140
123
154
203
156
128
184
139
126
146
134
195
205
204
126
148
136
131
162
146
170
89
59
203
138
118
110
75
79
118
102
113
101
92
95
57
50
42
140
132
111
164
151
142
90
76
99
130
128
139
167
188
145
219
248
200
45
66
67
188
182
210
205
150
182
184
123
154
135
107
129
141
138
149
128
138
139
120
120
130
164
132
171
127
86
120
233
204
200
83
56
35
155
121
109
202
177
157
163
165
126
180
164
141
165
85
114
150
78
124
63
72
105
130
176
191
101
137
127
46
76
52
133
157
131
126
160
133
155
217
194
65
130
88
148
190
106
70
92
27
93
96
111
69
48
89
149
91
105
69
19
18
172
172
170
126
148
136
133
148
119
102
119
75
131
160
102
71
107
43
155
96
36
228
180
132
225
193
170
153
138
133
89
89
91
127
133
129
82
84
60
100
94
72
136
113
121
101
85
86
175
187
151
82
100
58
149
149
137
161
140
147
135
85
97
202
151
170
66
40
65
108
103
123
78
93
98
89
93
102
126
86
120
188
144
169
205
196
179
105
105
69
216
199
169
171
151
124
65
59
35
126
103
95
154
84
108
168
106
145
158
157
201
72
97
128
127
138
142
121
125
110
83
87
64
129
158
127
121
201
162
61
144
92
184
215
145
146
159
116
122
146
182
115
121
171
124
79
82
181
127
117
112
89
99
184
175
180
221
215
191
220
226
188
65
91
52
120
156
118
44
79
0
175
200
99
156
155
88
113
108
70
37
42
35
155
172
162
179
215
169
129
155
107
140
133
115
124
106
96
188
177
155
127
102
71
157
95
56
143
82
54
195
169
170
156
149
157
110
107
100
157
162
156
51
68
78
26
30
33
217
182
152
109
82
37
112
142
104
91
136
113
59
79
80
176
169
185
206
171
193
128
82
95
131
93
84
97
69
65
181
168
196
137
120
175
160
118
192
133
88
147
194
167
176
86
92
58
73
126
56
87
153
79
150
189
145
166
189
183
210
227
255
148
158
194
104
103
75
143
130
86
97
72
65
139
104
111
221
180
184
132
108
124
122
133
179
145
175
235
173
230
115
173
218
117
83
104
29
184
192
145
151
156
136
91
107
96
171
206
186
129
158
140
182
174
171
196
172
170
122
98
88
174
137
119
243
177
151
134
80
56
60
56
45
143
154
146
78
74
63
144
138
138
176
186
211
115
118
127
119
96
46
27
17
0
39
84
25
131
187
162
60
78
114
35
21
74
139
96
126
85
40
43
144
125
95
149
135
108
118
88
98
126
83
129
109
55
133
130
72
149
224
168
215
176
152
150
54
91
22
123
181
104
73
116
88
62
81
95
71
57
110
164
154
191
124
158
121
151
182
125
91
70
51
211
168
175
142
104
125
145
122
164
36
35
105
17
27
114
216
226
165
153
170
116
118
146
106
91
117
82
38
42
9
196
193
188
62
65
120
74
70
144
27
4
56
62
32
58
111
85
84
105
85
86
124
114
141
65
66
86
161
179
153
134
140
112
164
130
144
142
104
143
101
93
142
96
100
127
195
191
162
189
198
133
174
213
134
183
213
179
236
214
255
159
117
201
199
170
175
154
136
100
86
77
38
186
165
134
211
159
148
231
176
182
47
18
36
87
50
94
177
97
182
55
0
56
169
196
165
118
179
119
168
214
186
172
174
187
168
96
160
193
140
192
148
208
183
70
144
95
86
74
52
169
135
136
190
196
218
216
231
255
150
138
176
17
0
32
70
62
39
119
121
99
80
97
79
113
126
108
172
160
136
213
192
197
60
49
117
37
27
113
80
65
124
66
45
76
146
121
125
181
168
178
117
125
172
91
105
142
75
78
57
222
211
179
162
131
139
62
31
62
52
45
79
172
178
192
55
61
33
187
206
150
145
186
116
22
51
21
67
52
111
46
16
86
165
155
154
201
195
161
169
149
124
217
180
164
163
101
102
229
173
172
235
218
200
188
176
178
119
80
143
212
191
247
179
218
197
115
169
120
227
249
228
59
32
47
171
80
137
111
44
97
149
197
199
95
163
142
139
133
121
220
201
205
140
165
195
56
81
121
201
186
217
98
64
89
52
54
51
121
118
113
89
74
67
120
92
89
157
115
127
152
117
137
67
59
80
157
165
186
133
144
164
111
113
128
102
83
89
224
202
214
64
57
91
99
83
112
128
82
82
141
100
80
157
160
129
133
154
123
157
170
150
100
110
85
43
51
4
74
96
47
0
38
7
58
112
98
140
176
176
112
135
143
64
76
90
130
119
133
46
0
10
155
92
113
158
99
145
119
75
102
124
105
72
85
103
53
87
152
130
125
208
190
115
185
148
130
160
126
175
141
132
227
161
175
141
72
103
85
37
75
191
184
225
153
162
193
148
148
158
81
84
99
154
175
220
147
162
217
100
88
138
122
99
143
104
105
99
159
153
157
72
53
75
101
75
102
129
106
124
148
137
143
69
77
66
215
238
222
44
77
68
116
139
133
119
108
104
220
195
201
196
173
199
121
91
117
173
119
132
122
77
72
182
180
159
184
204
177
131
155
133
128
152
118
118
142
80
102
130
79
7
47
46
124
171
177
150
198
172
194
239
216
160
200
212
77
93
118
70
42
57
204
159
179
131
101
135
132
120
132
187
194
150
167
212
143
67
169
104
94
206
148
113
182
137
142
161
131
150
110
100
246
186
188
194
157
164
106
89
105
45
44
75
189
199
226
37
47
56
124
143
149
55
88
105
71
97
122
179
178
210
96
82
117
215
200
169
137
126
130
142
140
213
31
50
119
0
40
34
129
184
145
148
178
154
20
49
27
124
175
144
167
208
176
175
175
151
123
98
93
137
105
128
195
165
193
90
72
86
167
143
159
125
78
114
132
100
139
101
122
149
157
207
198
135
187
115
35
75
12
29
41
57
47
52
84
95
113
97
83
126
96
84
159
152
26
98
95
137
173
161
85
108
82
143
173
135
149
195
148
78
142
92
83
156
100
68
139
71
125
185
121
131
173
127
128
150
114
92
93
62
176
171
149
99
103
89
55
83
68
192
255
232
120
189
160
131
159
145
155
183
160
129
192
139
134
194
142
63
80
61
141
137
134
134
122
72
159
151
140
152
152
216
94
115
178
72
130
115
138
200
153
143
172
141
195
218
190
145
187
151
140
171
130
78
64
27
69
37
14
86
57
61
194
185
190
63
85
73
90
101
95
218
169
199
186
143
189
70
98
138
120
183
188
70
134
73
101
146
89
88
95
113
168
158
192
157
149
136
138
152
129
3
52
57
64
125
126
191
236
205
156
198
148
89
141
92
118
177
131
110
176
138
121
178
135
84
117
60
168
192
132
128
154
107
104
135
94
67
104
63
162
200
163
81
114
87
120
170
135
0
80
18
70
153
97
182
209
194
113
131
107
128
186
102
168
228
138
173
199
154
50
58
35
85
93
33
92
90
49
131
112
106
191
174
180
130
138
127
202
217
194
65
72
39
210
214
181
110
119
90
145
134
102
167
119
73
99
51
5
147
138
105
144
176
135
87
156
89
147
203
138
164
162
124
197
188
179
45
83
102
136
196
206
156
213
178
145
191
154
88
116
117
60
60
70
131
102
88
150
108
109
197
163
214
76
55
94
160
161
119
175
194
139
26
60
61
148
181
196
177
190
181
79
79
53
172
162
126
147
146
102
142
168
120
109
159
110
125
190
148
45
109
72
130
175
144
43
90
48
56
123
56
16
69
17
39
39
47
106
96
95
92
108
35
93
119
30
176
199
155
130
152
131
46
73
32
177
189
151
130
113
85
92
71
44
203
204
173
91
95
70
232
223
208
131
114
107
190
172
168
100
77
59
135
101
56
133
116
62
141
166
124
50
104
55
158
228
156
138
196
120
174
195
138
147
162
133
135
173
182
13
61
75
193
236
219
115
155
128
137
176
155
223
234
220
160
115
112
136
64
88
139
73
137
89
44
87
165
160
122
134
152
102
49
76
87
166
187
206
210
212
188
208
199
158
82
70
44
77
77
53
184
211
180
17
67
30
141
206
164
71
118
84
131
132
114
216
211
192
91
118
85
79
108
86
173
173
185
182
169
178
132
119
84
185
184
127
92
111
56
120
149
95
134
174
182
79
108
112
60
66
62
122
131
100
0
37
0
140
167
112
169
150
172
115
75
127
98
62
98
142
131
137
30
62
23
119
178
130
94
166
142
179
238
220
185
209
183
126
140
107
23
50
15
189
221
200
63
89
102
114
135
152
203
222
216
205
232
201
53
95
45
37
54
20
77
25
48
148
74
123
98
49
94
149
134
153
73
97
75
149
186
153
173
197
184
193
213
185
20
48
0
200
229
145
105
134
106
160
188
191
88
117
121
173
204
196
175
209
172
162
151
123
149
48
64
128
23
63
150
123
164
22
39
67
181
206
203
161
171
170
106
83
111
133
111
114
147
160
81
205
234
115
72
90
130
102
119
147
184
201
208
164
195
161
104
165
70
141
185
108
47
30
48
103
62
120
161
128
175
152
151
169
68
125
93
85
159
122
44
92
94
97
114
130
144
127
135
208
195
189
7
40
19
121
165
148
131
151
158
68
77
92
109
120
124
198
221
205
174
217
172
181
205
169
107
67
76
141
86
117
143
121
144
42
51
58
172
206
190
155
194
167
88
106
84
58
74
35
104
139
59
17
64
0
39
88
56
20
61
67
90
109
149
100
108
144
187
192
188
223
197
180
141
60
56
137
60
78
129
119
171
54
85
129
119
164
157
152
182
174
141
122
167
32
10
33
178
198
129
126
166
51
206
162
213
124
100
134
171
186
191
116
162
125
208
255
184
107
162
71
166
169
140
185
165
177
197
188
219
122
133
151
106
146
120
102
124
103
154
108
144
64
0
44
93
34
64
194
173
180
97
136
118
11
65
42
92
120
108
61
75
76
82
97
116
47
73
90
183
224
220
144
173
151
118
111
69
164
151
117
25
39
40
111
136
141
131
154
134
102
118
91
87
90
73
183
187
173
106
128
115
116
154
129
139
195
148
75
117
103
60
60
130
101
80
175
39
19
78
82
88
88
162
219
138
100
182
100
39
115
113
50
120
145
115
180
176
125
165
157
93
89
104
160
157
166
131
171
147
30
92
51
142
69
99
140
93
113
161
170
167
39
80
50
107
157
98
119
164
99
87
110
66
73
82
65
100
103
118
128
133
153
139
153
153
46
36
44
160
91
136
73
0
37
185
114
148
206
165
181
90
90
88
161
175
162
197
198
184
118
118
116
81
95
121
125
152
181
60
98
107
120
153
132
115
127
65
45
54
0
40
65
59
121
141
150
170
166
157
118
111
93
154
172
148
131
157
146
66
84
106
109
137
148
153
205
166
0
34
13
89
82
149
75
48
143
112
91
160
62
76
85
146
230
145
106
213
117
70
159
129
74
144
144
90
140
137
34
61
56
186
187
182
89
99
90
25
78
60
65
139
116
178
106
91
169
120
103
200
195
176
81
94
84
133
138
142
37
53
52
147
196
167
195
240
211
70
75
69
118
103
122
108
91
136
122
102
151
93
72
103
113
80
101
217
159
181
166
93
113
84
3
22
157
81
94
94
36
35
193
163
165
179
187
208
38
67
85
202
238
226
150
181
147
119
137
87
144
156
116
59
75
72
141
137
152
169
116
136
211
181
183
173
233
195
84
163
132
24
52
74
118
133
162
102
143
129
104
138
122
141
138
165
50
38
76
189
189
215
67
70
77
122
118
106
96
102
74
154
184
148
131
160
130
159
162
155
183
175
172
119
113
101
174
190
161
21
78
27
83
161
99
235
192
147
111
82
38
49
41
2
126
120
106
182
155
188
46
29
63
128
152
138
4
36
12
24
28
27
114
104
128
192
179
232
117
114
161
148
166
178
33
38
34
156
114
118
175
95
108
183
75
101
137
30
58
215
138
158
139
96
105
214
202
202
189
198
193
59
74
69
146
162
151
215
227
203
142
155
127
178
201
173
113
113
101
132
78
94
149
118
126
123
189
153
27
113
76
94
123
131
53
61
82
86
115
113
156
183
176
163
168
171
36
36
38
160
170
162
198
194
191
176
135
151
255
222
223
24
27
0
187
196
149
125
102
94
55
22
29
239
215
213
133
134
118
142
180
141
27
84
33
185
198
144
149
159
98
216
217
147
111
93
53
159
110
140
148
89
133
169
123
125
232
207
202
118
120
145
157
177
210
177
210
227
113
155
154
133
181
165
146
171
149
107
80
63
172
111
106
200
123
139
216
141
172
165
110
152
184
141
160
192
149
106
113
78
38
147
124
152
96
83
129
184
177
195
175
187
163
93
136
57
167
204
127
182
174
155
86
76
75
134
169
149
159
205
177
81
103
80
183
195
181
196
212
211
112
130
130
89
101
97
156
164
149
98
102
77
206
198
177
107
77
75
189
165
153
191
199
148
230
238
187
160
135
128
255
221
241
114
63
94
112
73
102
129
122
138
62
72
82
140
168
143
163
185
149
127
136
81
127
112
69
230
184
186
107
43
59
201
133
132
213
168
163
47
55
58
43
80
89
44
84
96
99
149
150
104
166
141
124
165
135
146
128
118
137
88
91
151
97
110
157
107
134
83
41
89
139
100
121
224
179
122
194
146
97
250
201
248
82
49
118
93
90
107
115
139
107
116
159
79
108
147
64
51
66
27
81
88
72
23
39
28
163
182
163
146
158
122
185
196
166
25
39
42
76
86
96
90
93
84
148
147
126
179
173
151
174
159
140
180
147
138
150
128
107
89
101
55
167
180
136
74
57
47
132
95
113
229
181
223
82
36
82
170
145
175
116
102
125
74
75
121
169
174
206
189
202
208
132
137
115
214
193
140
169
132
80
160
115
94
198
174
148
147
170
102
149
185
139
75
84
125
83
100
152
87
145
131
112
160
138
149
134
157
212
168
204
59
23
37
149
115
129
136
99
133
184
151
168
83
64
21
179
150
118
110
50
102
193
148
203
149
171
148
156
199
146
77
96
64
146
157
127
158
173
130
99
113
78
130
137
129
9
12
5
125
129
94
48
57
30
113
131
145
155
162
181
158
139
125
132
103
85
126
107
111
133
108
114
101
51
42
147
111
89
96
106
79
84
109
80
172
175
156
70
60
61
117
102
133
76
59
91
223
204
206
45
27
15
139
124
189
143
141
191
134
156
177
101
125
111
186
186
134
85
70
15
47
25
4
98
91
65
60
85
17
107
130
88
148
134
185
134
130
191
13
62
58
104
152
136
216
207
238
132
99
142
236
215
234
131
114
122
96
75
84
86
69
62
147
141
105
175
156
141
100
46
96
148
109
154
143
172
144
126
172
125
48
61
51
136
138
125
190
202
152
190
199
154
136
134
137
100
97
104
13
20
0
189
210
177
137
170
185
167
190
208
246
234
212
125
100
78
199
185
202
194
175
195
172
132
120
164
129
107
85
82
73
137
147
139
40
41
23
150
139
135
136
109
144
147
124
153
54
58
41
200
218
176
218
202
238
91
94
113
57
93
81
20
63
44
131
152
153
51
58
64
97
96
94
195
196
191
48
62
65
109
112
129
79
53
92
122
107
140
75
111
111
53
94
86
53
56
65
52
37
58
230
220
247
57
56
64
152
163
129
78
87
40
179
170
139
98
77
74
122
94
134
90
74
113
129
143
146
106
134
119
84
108
94
115
130
101
197
201
140
67
60
16
125
111
134
140
138
162
103
131
91
138
187
142
16
81
87
186
245
253
105
135
97
171
185
150
172
179
198
71
71
97
108
103
84
208
192
169
160
130
142
109
77
92
175
148
141
142
97
102
147
59
110
171
113
153
18
65
33
103
204
136
208
199
220
188
197
204
86
125
104
81
134
116
73
119
134
51
85
110
107
120
129
129
132
149
159
163
208
96
89
143
245
216
255
94
75
103
71
91
98
18
49
43
108
116
103
40
40
30
191
200
199
94
107
98
203
220
188
30
46
10
83
87
70
18
9
14
158
131
162
180
166
191
101
129
115
167
206
185
30
48
50
139
145
141
204
204
168
166
159
131
96
78
100
227
220
238
136
159
117
153
206
154
73
148
141
101
169
168
163
193
157
102
111
82
40
49
64
123
131
152
147
150
141
115
103
91
165
129
143
187
148
166
179
162
154
114
82
85
178
90
138
143
81
120
134
174
150
82
175
120
57
61
86
62
78
91
95
128
119
126
180
164
60
136
126
110
176
175
26
49
63
111
114
147
81
80
140
98
88
159
127
106
171
117
101
148
148
154
170
182
196
183
121
131
96
134
148
95
160
191
124
185
211
166
131
129
142
116
115
146
66
96
106
83
97
106
154
109
132
201
173
170
159
227
152
93
168
109
119
117
156
72
45
112
170
174
199
140
148
151
198
186
186
208
192
176
102
100
52
133
157
109
82
144
123
124
174
165
170
152
140
218
184
175
100
95
99
90
92
104
220
206
219
116
95
104
143
123
125
203
198
192
122
149
132
152
173
164
153
130
150
139
105
129
112
97
104
98
93
90
115
127
153
152
171
186
197
227
225
123
177
161
30
119
97
7
89
75
38
67
83
182
185
226
20
15
82
143
134
213
91
75
150
144
131
187
114
113
131
84
91
75
202
211
164
168
190
115
103
145
47
51
81
19
173
161
197
116
107
170
75
119
144
50
78
89
83
28
49
176
141
122
137
224
120
58
153
72
117
104
160
117
75
175
2
7
63
194
209
228
144
134
124
136
116
83
193
177
128
212
221
174
75
131
104
51
91
80
128
86
87
146
87
91
167
156
154
93
92
97
155
131
155
183
156
175
217
203
200
201
214
196
28
77
55
108
156
142
150
159
164
122
101
118
87
43
66
134
80
104
