P3
50 40
255
58
58
58
32
32
32
52
52
52
111
111
111
115
115
115
73
73
73
66
66
66
92
92
92
208
208
208
181
181
181
188
188
188
59
59
59
196
196
196
128
128
128
116
116
116
87
87
87
207
207
207
182
182
182
146
146
146
122
122
122
101
101
101
116
116
116
156
156
156
27
27
27
121
121
121
155
155
155
8
8
8
105
105
105
46
46
46
122
122
122
83
83
83
177
177
177
230
230
230
97
97
97
49
49
49
32
32
32
64
64
64
164
164
164
140
140
140
185
185
185
79
79
79
121
121
121
78
78
78
90
90
90
177
177
177
72
72
72
33
33
33
194
194
194
98
98
98
40
40
40
187
187
187
221
221
221
167
167
167
214
214
214
182
182
182
80
80
80
61
61
61
106
106
106
190
190
190
85
85
85
86
86
86
100
100
100
173
173
173
150
150
150
104
104
104
229
229
229
49
49
49
183
183
183
53
53
53
79
79
79
87
87
87
140
140
140
32
32
32
178
178
178
143
143
143
180
180
180
231
231
231
52
52
52
106
106
106
77
77
77
206
206
206
77
77
77
22
22
22
219
219
219
89
89
89
164
164
164
61
61
61
206
206
206
104
104
104
201
201
201
113
113
113
109
109
109
105
105
105
68
68
68
62
62
62
167
167
167
136
136
136
108
108
108
169
169
169
23
23
23
61
61
61
171
171
171
154
154
154
87
87
87
115
115
115
178
178
178
202
202
202
63
63
63
206
206
206
208
208
208
121
121
121
192
192
192
196
196
196
209
209
209
191
191
191
90
90
90
141
141
141
151
151
151
114
114
114
61
61
61
42
42
42
196
196
196
116
116
116
185
185
185
65
65
65
92
92
92
121
121
121
80
80
80
108
108
108
200
200
200
38
38
38
62
62
62
147
147
147
129
129
129
55
55
55
59
59
59
149
149
149
59
59
59
116
116
116
86
86
86
162
162
162
110
110
110
124
124
124
18
18
18
83
83
83
184
184
184
134
134
134
103
103
103
94
94
94
186
186
186
45
45
45
82
82
82
101
101
101
112
112
112
180
180
180
119
119
119
150
150
150
126
126
126
157
157
157
137
137
137
149
149
149
167
167
167
105
105
105
174
174
174
58
58
58
42
42
42
58
58
58
143
143
143
146
146
146
184
184
184
161
161
161
76
76
76
57
57
57
106
106
106
66
66
66
146
146
146
116
116
116
52
52
52
25
25
25
140
140
140
145
145
145
94
94
94
90
90
90
112
112
112
207
207
207
43
43
43
167
167
167
149
149
149
205
205
205
51
51
51
25
25
25
44
44
44
151
151
151
80
80
80
213
213
213
142
142
142
240
240
240
221
221
221
137
137
137
134
134
134
79
79
79
81
81
81
153
153
153
24
24
24
144
144
144
76
76
76
114
114
114
148
148
148
196
196
196
93
93
93
188
188
188
40
40
40
70
70
70
158
158
158
113
113
113
63
63
63
145
145
145
75
75
75
60
60
60
147
147
147
53
53
53
143
143
143
143
143
143
90
90
90
160
160
160
130
130
130
89
89
89
135
135
135
83
83
83
206
206
206
178
178
178
24
24
24
159
159
159
220
220
220
112
112
112
138
138
138
204
204
204
125
125
125
190
190
190
182
182
182
164
164
164
203
203
203
124
124
124
117
117
117
208
208
208
236
236
236
48
48
48
113
113
113
102
102
102
160
160
160
96
96
96
93
93
93
114
114
114
101
101
101
27
27
27
153
153
153
45
45
45
69
69
69
90
90
90
33
33
33
99
99
99
67
67
67
172
172
172
158
158
158
197
197
197
122
122
122
91
91
91
90
90
90
138
138
138
59
59
59
32
32
32
99
99
99
99
99
99
82
82
82
60
60
60
117
117
117
72
72
72
65
65
65
193
193
193
187
187
187
123
123
123
155
155
155
83
83
83
145
145
145
154
154
154
135
135
135
112
112
112
86
86
86
155
155
155
140
140
140
41
41
41
191
191
191
47
47
47
102
102
102
139
139
139
80
80
80
90
90
90
100
100
100
188
188
188
88
88
88
35
35
35
179
179
179
188
188
188
89
89
89
69
69
69
89
89
89
128
128
128
38
38
38
46
46
46
60
60
60
62
62
62
39
39
39
216
216
216
147
147
147
147
147
147
81
81
81
182
182
182
194
194
194
133
133
133
178
178
178
80
80
80
151
151
151
131
131
131
92
92
92
198
198
198
184
184
184
51
51
51
180
180
180
40
40
40
88
88
88
43
43
43
88
88
88
60
60
60
83
83
83
65
65
65
155
155
155
154
154
154
61
61
61
81
81
81
125
125
125
68
68
68
183
183
183
186
186
186
163
163
163
131
131
131
139
139
139
44
44
44
63
63
63
108
108
108
217
217
217
230
230
230
95
95
95
176
176
176
171
171
171
135
135
135
192
192
192
226
226
226
68
68
68
157
157
157
101
101
101
86
86
86
172
172
172
192
192
192
174
174
174
44
44
44
179
179
179
80
80
80
234
234
234
116
116
116
122
122
122
224
224
224
145
145
145
145
145
145
195
195
195
62
62
62
122
122
122
128
128
128
104
104
104
134
134
134
74
74
74
130
130
130
173
173
173
130
130
130
63
63
63
221
221
221
123
123
123
49
49
49
51
51
51
156
156
156
113
113
113
176
176
176
196
196
196
158
158
158
188
188
188
152
152
152
13
13
13
55
55
55
92
92
92
71
71
71
33
33
33
66
66
66
166
166
166
156
156
156
167
167
167
162
162
162
52
52
52
40
40
40
139
139
139
193
193
193
99
99
99
91
91
91
125
125
125
126
126
126
154
154
154
225
225
225
91
91
91
141
141
141
146
146
146
97
97
97
195
195
195
92
92
92
81
81
81
119
119
119
125
125
125
127
127
127
164
164
164
148
148
148
72
72
72
209
209
209
100
100
100
71
71
71
157
157
157
167
167
167
240
240
240
210
210
210
136
136
136
98
98
98
21
21
21
150
150
150
146
146
146
77
77
77
64
64
64
201
201
201
63
63
63
121
121
121
103
103
103
37
37
37
95
95
95
118
118
118
57
57
57
130
130
130
87
87
87
37
37
37
154
154
154
64
64
64
122
122
122
33
33
33
172
172
172
98
98
98
59
59
59
48
48
48
125
125
125
48
48
48
197
197
197
62
62
62
217
217
217
58
58
58
56
56
56
63
63
63
85
85
85
108
108
108
97
97
97
72
72
72
133
133
133
73
73
73
97
97
97
182
182
182
56
56
56
174
174
174
216
216
216
197
197
197
211
211
211
67
67
67
21
21
21
75
75
75
195
195
195
131
131
131
64
64
64
103
103
103
43
43
43
96
96
96
40
40
40
216
216
216
57
57
57
191
191
191
116
116
116
222
222
222
192
192
192
69
69
69
63
63
63
199
199
199
211
211
211
67
67
67
91
91
91
183
183
183
143
143
143
207
207
207
180
180
180
222
222
222
29
29
29
78
78
78
169
169
169
129
129
129
168
168
168
48
48
48
32
32
32
87
87
87
53
53
53
183
183
183
167
167
167
108
108
108
128
128
128
85
85
85
160
160
160
137
137
137
105
105
105
30
30
30
139
139
139
214
214
214
114
114
114
100
100
100
209
209
209
160
160
160
65
65
65
227
227
227
165
165
165
84
84
84
201
201
201
55
55
55
96
96
96
142
142
142
40
40
40
229
229
229
63
63
63
78
78
78
213
213
213
203
203
203
155
155
155
197
197
197
29
29
29
125
125
125
66
66
66
102
102
102
154
154
154
193
193
193
104
104
104
105
105
105
140
140
140
85
85
85
90
90
90
153
153
153
45
45
45
152
152
152
144
144
144
186
186
186
168
168
168
13
13
13
123
123
123
247
247
247
142
142
142
161
161
161
169
169
169
177
177
177
140
140
140
107
107
107
83
83
83
149
149
149
107
107
107
197
197
197
158
158
158
113
113
113
226
226
226
70
70
70
67
67
67
96
96
96
103
103
103
56
56
56
46
46
46
155
155
155
185
185
185
151
151
151
110
110
110
190
190
190
201
201
201
115
115
115
60
60
60
24
24
24
86
86
86
151
151
151
25
25
25
65
65
65
89
89
89
188
188
188
184
184
184
127
127
127
97
97
97
84
84
84
116
116
116
180
180
180
50
50
50
130
130
130
196
196
196
160
160
160
101
101
101
73
73
73
100
100
100
91
91
91
112
112
112
48
48
48
136
136
136
124
124
124
216
216
216
101
101
101
59
59
59
41
41
41
20
20
20
233
233
233
167
167
167
56
56
56
62
62
62
180
180
180
27
27
27
51
51
51
128
128
128
206
206
206
65
65
65
193
193
193
132
132
132
175
175
175
169
169
169
156
156
156
96
96
96
50
50
50
111
111
111
49
49
49
227
227
227
125
125
125
73
73
73
208
208
208
103
103
103
76
76
76
92
92
92
116
116
116
27
27
27
52
52
52
191
191
191
157
157
157
75
75
75
73
73
73
156
156
156
141
141
141
144
144
144
45
45
45
66
66
66
119
119
119
71
71
71
116
116
116
172
172
172
209
209
209
65
65
65
200
200
200
144
144
144
212
212
212
103
103
103
97
97
97
69
69
69
159
159
159
136
136
136
173
173
173
195
195
195
202
202
202
183
183
183
182
182
182
212
212
212
237
237
237
126
126
126
47
47
47
96
96
96
171
171
171
110
110
110
116
116
116
142
142
142
171
171
171
156
156
156
187
187
187
171
171
171
131
131
131
218
218
218
151
151
151
151
151
151
82
82
82
162
162
162
69
69
69
108
108
108
125
125
125
29
29
29
117
117
117
175
175
175
85
85
85
121
121
121
187
187
187
234
234
234
62
62
62
197
197
197
172
172
172
135
135
135
107
107
107
161
161
161
123
123
123
152
152
152
152
152
152
89
89
89
215
215
215
64
64
64
118
118
118
182
182
182
153
153
153
194
194
194
81
81
81
89
89
89
58
58
58
160
160
160
132
132
132
43
43
43
142
142
142
172
172
172
197
197
197
126
126
126
172
172
172
67
67
67
102
102
102
68
68
68
102
102
102
23
23
23
142
142
142
157
157
157
124
124
124
115
115
115
110
110
110
104
104
104
108
108
108
196
196
196
209
209
209
127
127
127
67
67
67
124
124
124
90
90
90
76
76
76
118
118
118
82
82
82
184
184
184
90
90
90
159
159
159
137
137
137
94
94
94
153
153
153
33
33
33
92
92
92
84
84
84
92
92
92
88
88
88
141
141
141
220
220
220
85
85
85
212
212
212
147
147
147
64
64
64
105
105
105
122
122
122
112
112
112
163
163
163
91
91
91
143
143
143
143
143
143
79
79
79
146
146
146
189
189
189
133
133
133
203
203
203
161
161
161
135
135
135
145
145
145
75
75
75
140
140
140
101
101
101
186
186
186
216
216
216
227
227
227
95
95
95
147
147
147
51
51
51
191
191
191
162
162
162
106
106
106
62
62
62
167
167
167
206
206
206
162
162
162
114
114
114
125
125
125
202
202
202
85
85
85
81
81
81
103
103
103
150
150
150
175
175
175
110
110
110
179
179
179
46
46
46
26
26
26
205
205
205
57
57
57
153
153
153
128
128
128
56
56
56
201
201
201
172
172
172
77
77
77
124
124
124
68
68
68
181
181
181
126
126
126
127
127
127
105
105
105
182
182
182
92
92
92
76
76
76
144
144
144
189
189
189
177
177
177
222
222
222
143
143
143
89
89
89
131
131
131
59
59
59
130
130
130
194
194
194
111
111
111
130
130
130
178
178
178
219
219
219
219
219
219
91
91
91
201
201
201
123
123
123
95
95
95
183
183
183
153
153
153
178
178
178
168
168
168
92
92
92
174
174
174
215
215
215
69
69
69
47
47
47
154
154
154
59
59
59
159
159
159
184
184
184
147
147
147
82
82
82
20
20
20
58
58
58
182
182
182
86
86
86
26
26
26
101
101
101
56
56
56
122
122
122
104
104
104
104
104
104
70
70
70
83
83
83
75
75
75
157
157
157
152
152
152
91
91
91
166
166
166
68
68
68
80
80
80
82
82
82
156
156
156
177
177
177
137
137
137
93
93
93
171
171
171
92
92
92
132
132
132
34
34
34
24
24
24
210
210
210
148
148
148
139
139
139
132
132
132
34
34
34
189
189
189
80
80
80
63
63
63
24
24
24
29
29
29
101
101
101
82
82
82
111
111
111
64
64
64
181
181
181
156
156
156
133
133
133
94
94
94
82
82
82
109
109
109
217
217
217
207
207
207
194
194
194
216
216
216
202
202
202
155
155
155
174
174
174
142
142
142
76
76
76
185
185
185
195
195
195
193
193
193
22
22
22
47
47
47
130
130
130
25
25
25
191
191
191
158
158
158
219
219
219
195
195
195
99
99
99
155
155
155
203
203
203
140
140
140
54
54
54
163
163
163
203
203
203
231
231
231
141
141
141
24
24
24
55
55
55
125
125
125
52
52
52
147
147
147
173
173
173
204
204
204
41
41
41
35
35
35
59
59
59
62
62
62
112
112
112
178
178
178
110
110
110
109
109
109
58
58
58
224
224
224
120
120
120
60
60
60
40
40
40
158
158
158
51
51
51
190
190
190
181
181
181
29
29
29
52
52
52
27
27
27
159
159
159
209
209
209
142
142
142
177
177
177
114
114
114
176
176
176
229
229
229
184
184
184
74
74
74
186
186
186
201
201
201
171
171
171
240
240
240
33
33
33
110
110
110
61
61
61
179
179
179
161
161
161
119
119
119
206
206
206
177
177
177
92
92
92
186
186
186
64
64
64
36
36
36
99
99
99
76
76
76
104
104
104
119
119
119
118
118
118
72
72
72
179
179
179
170
170
170
114
114
114
82
82
82
218
218
218
60
60
60
52
52
52
80
80
80
108
108
108
166
166
166
130
130
130
180
180
180
111
111
111
41
41
41
102
102
102
33
33
33
97
97
97
176
176
176
102
102
102
77
77
77
143
143
143
14
14
14
90
90
90
99
99
99
77
77
77
88
88
88
99
99
99
146
146
146
206
206
206
154
154
154
161
161
161
152
152
152
180
180
180
90
90
90
31
31
31
191
191
191
152
152
152
155
155
155
81
81
81
201
201
201
163
163
163
102
102
102
90
90
90
128
128
128
172
172
172
46
46
46
104
104
104
99
99
99
138
138
138
65
65
65
235
235
235
49
49
49
138
138
138
102
102
102
210
210
210
181
181
181
124
124
124
142
142
142
77
77
77
171
171
171
207
207
207
149
149
149
133
133
133
116
116
116
119
119
119
16
16
16
178
178
178
194
194
194
231
231
231
192
192
192
75
75
75
69
69
69
172
172
172
109
109
109
112
112
112
197
197
197
192
192
192
146
146
146
183
183
183
176
176
176
146
146
146
119
119
119
197
197
197
185
185
185
77
77
77
47
47
47
195
195
195
33
33
33
161
161
161
55
55
55
67
67
67
198
198
198
65
65
65
202
202
202
117
117
117
140
140
140
26
26
26
44
44
44
176
176
176
153
153
153
33
33
33
190
190
190
198
198
198
168
168
168
80
80
80
134
134
134
180
180
180
50
50
50
170
170
170
71
71
71
121
121
121
136
136
136
204
204
204
190
190
190
49
49
49
30
30
30
70
70
70
95
95
95
123
123
123
134
134
134
77
77
77
180
180
180
76
76
76
182
182
182
203
203
203
140
140
140
111
111
111
134
134
134
158
158
158
133
133
133
179
179
179
55
55
55
198
198
198
117
117
117
70
70
70
234
234
234
177
177
177
157
157
157
167
167
167
166
166
166
196
196
196
54
54
54
159
159
159
125
125
125
157
157
157
177
177
177
97
97
97
136
136
136
187
187
187
172
172
172
202
202
202
158
158
158
154
154
154
58
58
58
49
49
49
47
47
47
182
182
182
63
63
63
121
121
121
203
203
203
142
142
142
70
70
70
181
181
181
86
86
86
163
163
163
58
58
58
162
162
162
170
170
170
149
149
149
38
38
38
135
135
135
208
208
208
194
194
194
100
100
100
174
174
174
148
148
148
193
193
193
100
100
100
194
194
194
176
176
176
92
92
92
92
92
92
181
181
181
97
97
97
136
136
136
46
46
46
158
158
158
188
188
188
131
131
131
177
177
177
210
210
210
207
207
207
31
31
31
60
60
60
94
94
94
137
137
137
175
175
175
122
122
122
220
220
220
47
47
47
216
216
216
120
120
120
116
116
116
137
137
137
65
65
65
131
131
131
172
172
172
146
146
146
183
183
183
152
152
152
199
199
199
93
93
93
192
192
192
212
212
212
194
194
194
106
106
106
44
44
44
125
125
125
119
119
119
190
190
190
52
52
52
151
151
151
202
202
202
38
38
38
183
183
183
167
167
167
63
63
63
161
161
161
166
166
166
157
157
157
158
158
158
193
193
193
76
76
76
174
174
174
63
63
63
122
122
122
48
48
48
24
24
24
83
83
83
92
92
92
102
102
102
188
188
188
175
175
175
54
54
54
192
192
192
120
120
120
62
62
62
195
195
195
77
77
77
241
241
241
101
101
101
174
174
174
64
64
64
109
109
109
90
90
90
175
175
175
68
68
68
200
200
200
195
195
195
183
183
183
154
154
154
165
165
165
47
47
47
200
200
200
148
148
148
169
169
169
226
226
226
128
128
128
59
59
59
74
74
74
52
52
52
148
148
148
144
144
144
56
56
56
208
208
208
227
227
227
196
196
196
80
80
80
41
41
41
194
194
194
51
51
51
200
200
200
82
82
82
145
145
145
211
211
211
105
105
105
126
126
126
181
181
181
184
184
184
99
99
99
206
206
206
109
109
109
109
109
109
165
165
165
87
87
87
49
49
49
95
95
95
18
18
18
189
189
189
134
134
134
97
97
97
69
69
69
138
138
138
52
52
52
176
176
176
168
168
168
224
224
224
202
202
202
129
129
129
39
39
39
217
217
217
74
74
74
140
140
140
232
232
232
220
220
220
97
97
97
51
51
51
40
40
40
88
88
88
76
76
76
110
110
110
82
82
82
193
193
193
198
198
198
210
210
210
23
23
23
228
228
228
102
102
102
187
187
187
108
108
108
212
212
212
179
179
179
181
181
181
49
49
49
46
46
46
146
146
146
37
37
37
181
181
181
167
167
167
87
87
87
97
97
97
139
139
139
212
212
212
80
80
80
140
140
140
210
210
210
198
198
198
161
161
161
132
132
132
43
43
43
90
90
90
149
149
149
144
144
144
107
107
107
159
159
159
77
77
77
101
101
101
119
119
119
202
202
202
17
17
17
187
187
187
151
151
151
59
59
59
95
95
95
220
220
220
194
194
194
211
211
211
65
65
65
107
107
107
144
144
144
41
41
41
193
193
193
196
196
196
65
65
65
59
59
59
142
142
142
53
53
53
59
59
59
75
75
75
92
92
92
96
96
96
191
191
191
201
201
201
68
68
68
79
79
79
132
132
132
73
73
73
182
182
182
157
157
157
135
135
135
49
49
49
189
189
189
169
169
169
188
188
188
74
74
74
199
199
199
170
170
170
236
236
236
164
164
164
187
187
187
175
175
175
187
187
187
159
159
159
97
97
97
137
137
137
106
106
106
26
26
26
48
48
48
188
188
188
105
105
105
65
65
65
112
112
112
63
63
63
93
93
93
64
64
64
225
225
225
160
160
160
89
89
89
164
164
164
25
25
25
135
135
135
161
161
161
89
89
89
66
66
66
184
184
184
110
110
110
158
158
158
192
192
192
126
126
126
53
53
53
92
92
92
33
33
33
61
61
61
206
206
206
170
170
170
77
77
77
79
79
79
147
147
147
166
166
166
100
100
100
140
140
140
186
186
186
54
54
54
83
83
83
135
135
135
143
143
143
58
58
58
159
159
159
157
157
157
89
89
89
53
53
53
112
112
112
109
109
109
177
177
177
41
41
41
70
70
70
20
20
20
139
139
139
158
158
158
100
100
100
186
186
186
192
192
192
133
133
133
78
78
78
145
145
145
91
91
91
146
146
146
110
110
110
65
65
65
54
54
54
161
161
161
147
147
147
109
109
109
199
199
199
144
144
144
101
101
101
103
103
103
186
186
186
21
21
21
73
73
73
79
79
79
122
122
122
66
66
66
203
203
203
192
192
192
124
124
124
139
139
139
137
137
137
52
52
52
171
171
171
92
92
92
44
44
44
136
136
136
95
95
95
129
129
129
195
195
195
126
126
126
117
117
117
24
24
24
197
197
197
232
232
232
66
66
66
117
117
117
81
81
81
113
113
113
107
107
107
53
53
53
178
178
178
101
101
101
21
21
21
93
93
93
39
39
39
190
190
190
176
176
176
69
69
69
225
225
225
182
182
182
108
108
108
157
157
157
88
88
88
119
119
119
129
129
129
205
205
205
216
216
216
130
130
130
34
34
34
144
144
144
156
156
156
128
128
128
150
150
150
36
36
36
169
169
169
59
59
59
106
106
106
114
114
114
171
171
171
150
150
150
187
187
187
171
171
171
105
105
105
200
200
200
54
54
54
141
141
141
204
204
204
85
85
85
38
38
38
93
93
93
181
181
181
50
50
50
127
127
127
31
31
31
18
18
18
105
105
105
189
189
189
106
106
106
163
163
163
42
42
42
118
118
118
112
112
112
89
89
89
49
49
49
156
156
156
117
117
117
205
205
205
209
209
209
69
69
69
146
146
146
224
224
224
152
152
152
213
213
213
86
86
86
76
76
76
137
137
137
194
194
194
98
98
98
117
117
117
44
44
44
101
101
101
167
167
167
159
159
159
36
36
36
183
183
183
205
205
205
151
151
151
233
233
233
22
22
22
193
193
193
75
75
75
32
32
32
210
210
210
155
155
155
188
188
188
57
57
57
197
197
197
176
176
176
215
215
215
91
91
91
114
114
114
94
94
94
138
138
138
223
223
223
99
99
99
179
179
179
200
200
200
153
153
153
172
172
172
178
178
178
92
92
92
109
109
109
130
130
130
170
170
170
132
132
132
161
161
161
137
137
137
66
66
66
156
156
156
70
70
70
189
189
189
173
173
173
133
133
133
183
183
183
181
181
181
95
95
95
154
154
154
195
195
195
88
88
88
202
202
202
222
222
222
116
116
116
82
82
82
170
170
170
98
98
98
207
207
207
68
68
68
163
163
163
211
211
211
230
230
230
129
129
129
242
242
242
80
80
80
67
67
67
122
122
122
51
51
51
142
142
142
175
175
175
139
139
139
78
78
78
224
224
224
51
51
51
140
140
140
177
177
177
62
62
62
62
62
62
79
79
79
159
159
159
163
163
163
131
131
131
91
91
91
119
119
119
94
94
94
136
136
136
52
52
52
100
100
100
218
218
218
167
167
167
213
213
213
58
58
58
103
103
103
112
112
112
143
143
143
153
153
153
49
49
49
65
65
65
40
40
40
182
182
182
179
179
179
188
188
188
24
24
24
81
81
81
90
90
90
142
142
142
187
187
187
145
145
145
155
155
155
136
136
136
84
84
84
189
189
189
49
49
49
104
104
104
182
182
182
64
64
64
172
172
172
134
134
134
65
65
65
182
182
182
222
222
222
136
136
136
211
211
211
128
128
128
116
116
116
179
179
179
139
139
139
179
179
179
71
71
71
92
92
92
133
133
133
155
155
155
151
151
151
172
172
172
23
23
23
121
121
121
92
92
92
164
164
164
50
50
50
145
145
145
82
82
82
186
186
186
149
149
149
196
196
196
103
103
103
173
173
173
164
164
164
112
112
112
125
125
125
22
22
22
87
87
87
64
64
64
126
126
126
168
168
168
174
174
174
59
59
59
147
147
147
93
93
93
39
39
39
122
122
122
96
96
96
95
95
95
188
188
188
71
71
71
104
104
104
39
39
39
198
198
198
27
27
27
114
114
114
138
138
138
172
172
172
105
105
105
178
178
178
42
42
42
44
44
44
65
65
65
83
83
83
144
144
144
150
150
150
134
134
134
29
29
29
150
150
150
201
201
201
105
105
105
227
227
227
115
115
115
56
56
56
67
67
67
142
142
142
181
181
181
54
54
54
77
77
77
162
162
162
164
164
164
34
34
34
102
102
102
212
212
212
174
174
174
117
117
117
119
119
119
29
29
29
207
207
207
151
151
151
216
216
216
213
213
213
80
80
80
208
208
208
190
190
190
148
148
148
124
124
124
54
54
54
171
171
171
48
48
48
139
139
139
96
96
96
151
151
151
61
61
61
191
191
191
226
226
226
105
105
105
72
72
72
39
39
39
143
143
143
71
71
71
106
106
106
191
191
191
62
62
62
99
99
99
61
61
61
102
102
102
103
103
103
80
80
80
76
76
76
43
43
43
228
228
228
40
40
40
178
178
178
77
77
77
162
162
162
70
70
70
144
144
144
83
83
83
175
175
175
133
133
133
90
90
90
156
156
156
194
194
194
55
55
55
149
149
149
122
122
122
113
113
113
181
181
181
50
50
50
214
214
214
123
123
123
197
197
197
193
193
193
69
69
69
128
128
128
186
186
186
147
147
147
82
82
82
145
145
145
114
114
114
71
71
71
144
144
144
52
52
52
186
186
186
203
203
203
178
178
178
132
132
132
105
105
105
119
119
119
79
79
79
74
74
74
160
160
160
172
172
172
95
95
95
226
226
226
72
72
72
69
69
69
36
36
36
129
129
129
21
21
21
223
223
223
98
98
98
222
222
222
47
47
47
68
68
68
13
13
13
109
109
109
175
175
175
92
92
92
187
187
187
36
36
36
135
135
135
211
211
211
150
150
150
78
78
78
213
213
213
134
134
134
212
212
212
144
144
144
149
149
149
187
187
187
127
127
127
41
41
41
122
122
122
135
135
135
100
100
100
116
116
116
136
136
136
163
163
163
99
99
99
87
87
87
107
107
107
183
183
183
156
156
156
50
50
50
97
97
97
71
71
71
172
172
172
107
107
107
182
182
182
48
48
48
108
108
108
89
89
89
99
99
99
147
147
147
101
101
101
159
159
159
193
193
193
116
116
116
133
133
133
156
156
156
225
225
225
120
120
120
118
118
118
98
98
98
85
85
85
116
116
116
184
184
184
212
212
212
164
164
164
101
101
101
53
53
53
171
171
171
136
136
136
222
222
222
205
205
205
72
72
72
163
163
163
126
126
126
185
185
185
149
149
149
193
193
193
116
116
116
83
83
83
212
212
212
84
84
84
125
125
125
200
200
200
165
165
165
138
138
138
143
143
143
117
117
117
88
88
88
74
74
74
131
131
131
167
167
167
231
231
231
188
188
188
91
91
91
56
56
56
70
70
70
199
199
199
28
28
28
140
140
140
88
88
88
128
128
128
105
105
105
89
89
89
191
191
191
193
193
193
144
144
144
63
63
63
165
165
165
110
110
110
117
117
117
88
88
88
46
46
46
132
132
132
200
200
200
113
113
113
120
120
120
95
95
95
20
20
20
207
207
207
115
115
115
110
110
110
177
177
177
226
226
226
121
121
121
73
73
73
75
75
75
97
97
97
167
167
167
85
85
85
123
123
123
193
193
193
199
199
199
223
223
223
47
47
47
161
161
161
135
135
135
119
119
119
66
66
66
93
93
93
