P3
50 40
255
77
77
77
89
89
89
174
174
174
230
230
230
7
7
7
113
113
113
195
195
195
51
51
51
200
200
200
66
66
66
107
107
107
107
107
107
58
58
58
208
208
208
32
32
32
112
112
112
242
242
242
169
169
169
165
165
165
27
27
27
135
135
135
57
57
57
125
125
125
49
49
49
215
215
215
200
200
200
3
3
3
237
237
237
102
102
102
8
8
8
114
114
114
235
235
235
249
249
249
196
196
196
18
18
18
32
32
32
74
74
74
153
153
153
204
204
204
175
175
175
236
236
236
220
220
220
237
237
237
97
97
97
213
213
213
0
0
0
74
74
74
224
224
224
150
150
150
42
42
42
7
7
7
141
141
141
64
64
64
245
245
245
253
253
253
11
11
11
93
93
93
141
141
141
124
124
124
229
229
229
78
78
78
19
19
19
177
177
177
131
131
131
38
38
38
225
225
225
15
15
15
171
171
171
140
140
140
99
99
99
169
169
169
231
231
231
41
41
41
144
144
144
218
218
218
78
78
78
165
165
165
185
185
185
214
214
214
129
129
129
156
156
156
235
235
235
26
26
26
160
160
160
162
162
162
161
161
161
76
76
76
112
112
112
53
53
53
136
136
136
99
99
99
107
107
107
78
78
78
155
155
155
84
84
84
17
17
17
87
87
87
199
199
199
128
128
128
30
30
30
14
14
14
182
182
182
54
54
54
52
52
52
67
67
67
103
103
103
107
107
107
70
70
70
159
159
159
228
228
228
83
83
83
212
212
212
171
171
171
157
157
157
202
202
202
129
129
129
103
103
103
94
94
94
145
145
145
27
27
27
46
46
46
52
52
52
58
58
58
8
8
8
158
158
158
204
204
204
246
246
246
3
3
3
192
192
192
135
135
135
20
20
20
240
240
240
55
55
55
251
251
251
74
74
74
138
138
138
179
179
179
178
178
178
195
195
195
151
151
151
112
112
112
215
215
215
246
246
246
0
0
0
102
102
102
25
25
25
51
51
51
115
115
115
21
21
21
134
134
134
162
162
162
199
199
199
20
20
20
164
164
164
214
214
214
160
160
160
159
159
159
183
183
183
106
106
106
28
28
28
153
153
153
147
147
147
41
41
41
115
115
115
188
188
188
28
28
28
106
106
106
81
81
81
206
206
206
179
179
179
7
7
7
204
204
204
217
217
217
210
210
210
124
124
124
73
73
73
234
234
234
220
220
220
4
4
4
243
243
243
168
168
168
247
247
247
205
205
205
34
34
34
242
242
242
150
150
150
185
185
185
67
67
67
209
209
209
148
148
148
45
45
45
192
192
192
115
115
115
249
249
249
230
230
230
113
113
113
247
247
247
211
211
211
116
116
116
236
236
236
205
205
205
26
26
26
71
71
71
46
46
46
186
186
186
36
36
36
41
41
41
221
221
221
188
188
188
146
146
146
73
73
73
141
141
141
3
3
3
128
128
128
141
141
141
5
5
5
161
161
161
159
159
159
56
56
56
82
82
82
54
54
54
173
173
173
193
193
193
49
49
49
124
124
124
65
65
65
11
11
11
38
38
38
118
118
118
170
170
170
119
119
119
14
14
14
254
254
254
153
153
153
91
91
91
212
212
212
120
120
120
95
95
95
227
227
227
172
172
172
218
218
218
122
122
122
185
185
185
227
227
227
98
98
98
182
182
182
172
172
172
180
180
180
166
166
166
23
23
23
214
214
214
150
150
150
6
6
6
13
13
13
86
86
86
253
253
253
183
183
183
170
170
170
222
222
222
55
55
55
104
104
104
197
197
197
130
130
130
9
9
9
168
168
168
195
195
195
184
184
184
172
172
172
186
186
186
108
108
108
77
77
77
6
6
6
84
84
84
249
249
249
163
163
163
75
75
75
252
252
252
251
251
251
96
96
96
208
208
208
66
66
66
199
199
199
93
93
93
69
69
69
140
140
140
41
41
41
11
11
11
16
16
16
204
204
204
167
167
167
22
22
22
40
40
40
189
189
189
145
145
145
128
128
128
132
132
132
140
140
140
143
143
143
251
251
251
133
133
133
114
114
114
121
121
121
1
1
1
186
186
186
125
125
125
56
56
56
38
38
38
40
40
40
52
52
52
242
242
242
190
190
190
79
79
79
127
127
127
17
17
17
125
125
125
85
85
85
65
65
65
52
52
52
92
92
92
217
217
217
49
49
49
246
246
246
115
115
115
35
35
35
154
154
154
238
238
238
130
130
130
238
238
238
168
168
168
67
67
67
2
2
2
51
51
51
161
161
161
9
9
9
104
104
104
144
144
144
47
47
47
46
46
46
238
238
238
163
163
163
141
141
141
52
52
52
149
149
149
17
17
17
204
204
204
240
240
240
154
154
154
120
120
120
123
123
123
163
163
163
193
193
193
248
248
248
93
93
93
134
134
134
248
248
248
207
207
207
231
231
231
102
102
102
49
49
49
94
94
94
173
173
173
112
112
112
169
169
169
76
76
76
79
79
79
184
184
184
211
211
211
196
196
196
218
218
218
96
96
96
226
226
226
219
219
219
104
104
104
112
112
112
59
59
59
6
6
6
17
17
17
159
159
159
136
136
136
100
100
100
91
91
91
92
92
92
192
192
192
177
177
177
122
122
122
192
192
192
199
199
199
123
123
123
136
136
136
68
68
68
120
120
120
115
115
115
147
147
147
102
102
102
216
216
216
30
30
30
166
166
166
131
131
131
179
179
179
15
15
15
246
246
246
3
3
3
104
104
104
57
57
57
148
148
148
151
151
151
40
40
40
49
49
49
240
240
240
135
135
135
49
49
49
112
112
112
47
47
47
41
41
41
211
211
211
226
226
226
80
80
80
86
86
86
194
194
194
233
233
233
13
13
13
176
176
176
176
176
176
154
154
154
146
146
146
77
77
77
180
180
180
74
74
74
143
143
143
143
143
143
91
91
91
31
31
31
43
43
43
223
223
223
122
122
122
109
109
109
183
183
183
31
31
31
53
53
53
154
154
154
222
222
222
237
237
237
192
192
192
74
74
74
8
8
8
38
38
38
83
83
83
17
17
17
50
50
50
64
64
64
21
21
21
210
210
210
56
56
56
7
7
7
45
45
45
204
204
204
61
61
61
236
236
236
57
57
57
98
98
98
35
35
35
21
21
21
117
117
117
191
191
191
216
216
216
186
186
186
212
212
212
131
131
131
38
38
38
95
95
95
96
96
96
195
195
195
220
220
220
34
34
34
91
91
91
241
241
241
16
16
16
101
101
101
202
202
202
99
99
99
39
39
39
235
235
235
191
191
191
65
65
65
131
131
131
68
68
68
1
1
1
22
22
22
237
237
237
45
45
45
124
124
124
186
186
186
164
164
164
62
62
62
149
149
149
238
238
238
180
180
180
151
151
151
54
54
54
203
203
203
134
134
134
123
123
123
120
120
120
73
73
73
72
72
72
14
14
14
113
113
113
35
35
35
164
164
164
85
85
85
192
192
192
199
199
199
178
178
178
13
13
13
173
173
173
6
6
6
85
85
85
152
152
152
240
240
240
130
130
130
153
153
153
176
176
176
176
176
176
131
131
131
200
200
200
189
189
189
26
26
26
65
65
65
236
236
236
16
16
16
201
201
201
252
252
252
149
149
149
62
62
62
198
198
198
19
19
19
121
121
121
230
230
230
88
88
88
226
226
226
232
232
232
32
32
32
235
235
235
168
168
168
31
31
31
182
182
182
208
208
208
163
163
163
210
210
210
44
44
44
152
152
152
109
109
109
170
170
170
167
167
167
97
97
97
37
37
37
24
24
24
196
196
196
85
85
85
244
244
244
22
22
22
140
140
140
20
20
20
81
81
81
90
90
90
75
75
75
7
7
7
178
178
178
249
249
249
83
83
83
115
115
115
116
116
116
173
173
173
100
100
100
174
174
174
244
244
244
31
31
31
65
65
65
43
43
43
81
81
81
235
235
235
180
180
180
43
43
43
100
100
100
177
177
177
70
70
70
201
201
201
95
95
95
76
76
76
91
91
91
170
170
170
39
39
39
27
27
27
138
138
138
1
1
1
69
69
69
5
5
5
212
212
212
59
59
59
38
38
38
20
20
20
197
197
197
18
18
18
92
92
92
96
96
96
183
183
183
120
120
120
72
72
72
113
113
113
69
69
69
103
103
103
157
157
157
79
79
79
8
8
8
165
165
165
50
50
50
4
4
4
180
180
180
104
104
104
17
17
17
223
223
223
151
151
151
40
40
40
191
191
191
76
76
76
19
19
19
230
230
230
105
105
105
118
118
118
227
227
227
161
161
161
35
35
35
131
131
131
93
93
93
188
188
188
25
25
25
146
146
146
236
236
236
22
22
22
80
80
80
220
220
220
150
150
150
16
16
16
216
216
216
20
20
20
189
189
189
71
71
71
19
19
19
226
226
226
100
100
100
156
156
156
74
74
74
212
212
212
17
17
17
188
188
188
90
90
90
135
135
135
60
60
60
59
59
59
132
132
132
231
231
231
170
170
170
178
178
178
44
44
44
127
127
127
203
203
203
224
224
224
57
57
57
87
87
87
125
125
125
207
207
207
226
226
226
160
160
160
231
231
231
182
182
182
84
84
84
245
245
245
151
151
151
191
191
191
107
107
107
219
219
219
17
17
17
121
121
121
86
86
86
203
203
203
159
159
159
173
173
173
63
63
63
17
17
17
160
160
160
237
237
237
225
225
225
171
171
171
134
134
134
128
128
128
177
177
177
250
250
250
210
210
210
121
121
121
94
94
94
218
218
218
242
242
242
211
211
211
67
67
67
4
4
4
116
116
116
203
203
203
70
70
70
8
8
8
226
226
226
33
33
33
213
213
213
11
11
11
148
148
148
157
157
157
221
221
221
176
176
176
28
28
28
158
158
158
82
82
82
85
85
85
236
236
236
95
95
95
218
218
218
78
78
78
240
240
240
165
165
165
78
78
78
252
252
252
231
231
231
39
39
39
87
87
87
106
106
106
57
57
57
202
202
202
113
113
113
173
173
173
6
6
6
167
167
167
123
123
123
103
103
103
60
60
60
101
101
101
49
49
49
251
251
251
90
90
90
204
204
204
59
59
59
231
231
231
62
62
62
127
127
127
225
225
225
136
136
136
250
250
250
192
192
192
221
221
221
118
118
118
71
71
71
187
187
187
68
68
68
213
213
213
122
122
122
124
124
124
181
181
181
196
196
196
248
248
248
67
67
67
210
210
210
114
114
114
98
98
98
162
162
162
176
176
176
211
211
211
102
102
102
241
241
241
208
208
208
13
13
13
137
137
137
91
91
91
220
220
220
75
75
75
146
146
146
58
58
58
111
111
111
91
91
91
88
88
88
23
23
23
31
31
31
185
185
185
184
184
184
117
117
117
15
15
15
206
206
206
248
248
248
54
54
54
203
203
203
169
169
169
199
199
199
88
88
88
37
37
37
140
140
140
112
112
112
139
139
139
15
15
15
67
67
67
132
132
132
116
116
116
91
91
91
195
195
195
59
59
59
86
86
86
206
206
206
238
238
238
223
223
223
161
161
161
111
111
111
90
90
90
1
1
1
144
144
144
24
24
24
168
168
168
225
225
225
23
23
23
66
66
66
137
137
137
140
140
140
227
227
227
206
206
206
34
34
34
190
190
190
31
31
31
251
251
251
153
153
153
97
97
97
184
184
184
95
95
95
152
152
152
104
104
104
127
127
127
146
146
146
229
229
229
195
195
195
190
190
190
84
84
84
240
240
240
39
39
39
162
162
162
111
111
111
135
135
135
109
109
109
181
181
181
104
104
104
159
159
159
109
109
109
141
141
141
178
178
178
185
185
185
128
128
128
246
246
246
178
178
178
178
178
178
95
95
95
195
195
195
238
238
238
127
127
127
102
102
102
145
145
145
71
71
71
221
221
221
0
0
0
179
179
179
23
23
23
56
56
56
77
77
77
57
57
57
27
27
27
120
120
120
132
132
132
84
84
84
243
243
243
55
55
55
196
196
196
102
102
102
250
250
250
217
217
217
148
148
148
111
111
111
33
33
33
120
120
120
90
90
90
27
27
27
169
169
169
77
77
77
135
135
135
54
54
54
244
244
244
219
219
219
174
174
174
68
68
68
24
24
24
253
253
253
156
156
156
92
92
92
77
77
77
80
80
80
230
230
230
31
31
31
103
103
103
13
13
13
69
69
69
145
145
145
45
45
45
0
0
0
19
19
19
209
209
209
19
19
19
249
249
249
227
227
227
202
202
202
8
8
8
126
126
126
97
97
97
38
38
38
249
249
249
229
229
229
111
111
111
247
247
247
148
148
148
22
22
22
239
239
239
133
133
133
242
242
242
47
47
47
82
82
82
186
186
186
7
7
7
77
77
77
190
190
190
177
177
177
109
109
109
186
186
186
142
142
142
246
246
246
4
4
4
61
61
61
98
98
98
218
218
218
229
229
229
207
207
207
3
3
3
122
122
122
200
200
200
127
127
127
9
9
9
93
93
93
206
206
206
126
126
126
1
1
1
94
94
94
44
44
44
146
146
146
223
223
223
200
200
200
142
142
142
174
174
174
152
152
152
184
184
184
92
92
92
125
125
125
72
72
72
90
90
90
242
242
242
210
210
210
2
2
2
177
177
177
39
39
39
1
1
1
175
175
175
182
182
182
188
188
188
228
228
228
210
210
210
253
253
253
160
160
160
216
216
216
230
230
230
168
168
168
34
34
34
222
222
222
32
32
32
242
242
242
230
230
230
52
52
52
75
75
75
253
253
253
228
228
228
16
16
16
5
5
5
184
184
184
141
141
141
71
71
71
160
160
160
181
181
181
5
5
5
136
136
136
181
181
181
18
18
18
170
170
170
49
49
49
200
200
200
59
59
59
183
183
183
203
203
203
58
58
58
186
186
186
86
86
86
150
150
150
73
73
73
48
48
48
209
209
209
87
87
87
14
14
14
9
9
9
54
54
54
245
245
245
174
174
174
101
101
101
1
1
1
21
21
21
247
247
247
218
218
218
159
159
159
236
236
236
52
52
52
85
85
85
128
128
128
167
167
167
104
104
104
88
88
88
242
242
242
118
118
118
67
67
67
229
229
229
151
151
151
178
178
178
1
1
1
62
62
62
164
164
164
181
181
181
127
127
127
99
99
99
78
78
78
193
193
193
13
13
13
217
217
217
88
88
88
145
145
145
242
242
242
32
32
32
82
82
82
172
172
172
207
207
207
153
153
153
1
1
1
184
184
184
219
219
219
192
192
192
185
185
185
120
120
120
149
149
149
61
61
61
227
227
227
14
14
14
16
16
16
9
9
9
202
202
202
189
189
189
114
114
114
0
0
0
249
249
249
106
106
106
225
225
225
246
246
246
96
96
96
11
11
11
16
16
16
61
61
61
129
129
129
219
219
219
190
190
190
52
52
52
240
240
240
135
135
135
98
98
98
58
58
58
214
214
214
144
144
144
183
183
183
58
58
58
64
64
64
191
191
191
136
136
136
175
175
175
21
21
21
10
10
10
6
6
6
115
115
115
103
103
103
31
31
31
126
126
126
211
211
211
145
145
145
19
19
19
246
246
246
126
126
126
44
44
44
218
218
218
73
73
73
112
112
112
72
72
72
125
125
125
63
63
63
67
67
67
48
48
48
122
122
122
101
101
101
37
37
37
50
50
50
49
49
49
71
71
71
34
34
34
65
65
65
132
132
132
86
86
86
15
15
15
148
148
148
252
252
252
63
63
63
203
203
203
29
29
29
30
30
30
106
106
106
170
170
170
135
135
135
197
197
197
104
104
104
170
170
170
4
4
4
192
192
192
145
145
145
176
176
176
133
133
133
42
42
42
141
141
141
0
0
0
90
90
90
186
186
186
238
238
238
197
197
197
164
164
164
123
123
123
57
57
57
137
137
137
242
242
242
127
127
127
17
17
17
182
182
182
232
232
232
172
172
172
47
47
47
154
154
154
6
6
6
203
203
203
146
146
146
38
38
38
111
111
111
45
45
45
7
7
7
183
183
183
229
229
229
200
200
200
70
70
70
47
47
47
57
57
57
115
115
115
100
100
100
5
5
5
237
237
237
2
2
2
225
225
225
165
165
165
91
91
91
24
24
24
6
6
6
216
216
216
124
124
124
78
78
78
89
89
89
104
104
104
64
64
64
136
136
136
24
24
24
27
27
27
246
246
246
111
111
111
135
135
135
144
144
144
236
236
236
197
197
197
124
124
124
147
147
147
7
7
7
192
192
192
73
73
73
55
55
55
139
139
139
222
222
222
124
124
124
19
19
19
17
17
17
125
125
125
65
65
65
80
80
80
142
142
142
77
77
77
143
143
143
111
111
111
19
19
19
216
216
216
224
224
224
9
9
9
107
107
107
230
230
230
176
176
176
59
59
59
106
106
106
119
119
119
0
0
0
37
37
37
156
156
156
23
23
23
164
164
164
3
3
3
35
35
35
70
70
70
164
164
164
84
84
84
118
118
118
66
66
66
84
84
84
134
134
134
122
122
122
195
195
195
199
199
199
232
232
232
134
134
134
237
237
237
181
181
181
141
141
141
213
213
213
192
192
192
217
217
217
48
48
48
173
173
173
137
137
137
168
168
168
225
225
225
81
81
81
105
105
105
147
147
147
206
206
206
147
147
147
80
80
80
231
231
231
162
162
162
188
188
188
234
234
234
222
222
222
176
176
176
108
108
108
66
66
66
127
127
127
183
183
183
182
182
182
205
205
205
182
182
182
247
247
247
86
86
86
186
186
186
64
64
64
88
88
88
137
137
137
36
36
36
58
58
58
219
219
219
136
136
136
249
249
249
154
154
154
181
181
181
173
173
173
169
169
169
230
230
230
115
115
115
232
232
232
18
18
18
8
8
8
223
223
223
65
65
65
112
112
112
63
63
63
8
8
8
53
53
53
14
14
14
197
197
197
251
251
251
170
170
170
7
7
7
203
203
203
191
191
191
52
52
52
180
180
180
209
209
209
3
3
3
52
52
52
43
43
43
252
252
252
85
85
85
223
223
223
146
146
146
61
61
61
144
144
144
233
233
233
11
11
11
237
237
237
174
174
174
146
146
146
111
111
111
64
64
64
219
219
219
86
86
86
160
160
160
165
165
165
125
125
125
10
10
10
178
178
178
132
132
132
227
227
227
19
19
19
163
163
163
235
235
235
46
46
46
26
26
26
81
81
81
68
68
68
57
57
57
240
240
240
0
0
0
67
67
67
61
61
61
227
227
227
75
75
75
15
15
15
55
55
55
134
134
134
212
212
212
69
69
69
3
3
3
77
77
77
97
97
97
21
21
21
198
198
198
194
194
194
236
236
236
236
236
236
104
104
104
92
92
92
38
38
38
54
54
54
186
186
186
79
79
79
129
129
129
98
98
98
37
37
37
7
7
7
47
47
47
3
3
3
152
152
152
139
139
139
171
171
171
182
182
182
240
240
240
158
158
158
179
179
179
24
24
24
34
34
34
191
191
191
82
82
82
11
11
11
95
95
95
93
93
93
130
130
130
146
146
146
94
94
94
151
151
151
251
251
251
71
71
71
21
21
21
67
67
67
226
226
226
0
0
0
244
244
244
20
20
20
177
177
177
39
39
39
14
14
14
186
186
186
178
178
178
5
5
5
89
89
89
182
182
182
106
106
106
66
66
66
214
214
214
68
68
68
239
239
239
60
60
60
14
14
14
151
151
151
117
117
117
254
254
254
146
146
146
138
138
138
64
64
64
40
40
40
97
97
97
17
17
17
85
85
85
89
89
89
71
71
71
175
175
175
146
146
146
31
31
31
28
28
28
173
173
173
249
249
249
99
99
99
20
20
20
205
205
205
107
107
107
85
85
85
226
226
226
79
79
79
142
142
142
109
109
109
61
61
61
72
72
72
235
235
235
180
180
180
112
112
112
163
163
163
78
78
78
55
55
55
227
227
227
70
70
70
204
204
204
230
230
230
71
71
71
63
63
63
69
69
69
119
119
119
181
181
181
53
53
53
101
101
101
86
86
86
216
216
216
10
10
10
30
30
30
52
52
52
220
220
220
4
4
4
196
196
196
109
109
109
111
111
111
166
166
166
155
155
155
18
18
18
132
132
132
15
15
15
12
12
12
190
190
190
173
173
173
4
4
4
191
191
191
20
20
20
44
44
44
6
6
6
236
236
236
141
141
141
39
39
39
17
17
17
247
247
247
246
246
246
64
64
64
40
40
40
229
229
229
12
12
12
63
63
63
235
235
235
31
31
31
213
213
213
96
96
96
180
180
180
64
64
64
135
135
135
252
252
252
203
203
203
77
77
77
178
178
178
103
103
103
239
239
239
118
118
118
14
14
14
234
234
234
71
71
71
197
197
197
15
15
15
20
20
20
150
150
150
242
242
242
168
168
168
139
139
139
114
114
114
46
46
46
91
91
91
53
53
53
43
43
43
143
143
143
112
112
112
231
231
231
51
51
51
122
122
122
132
132
132
99
99
99
77
77
77
160
160
160
181
181
181
220
220
220
40
40
40
129
129
129
42
42
42
137
137
137
134
134
134
87
87
87
207
207
207
147
147
147
57
57
57
70
70
70
2
2
2
38
38
38
146
146
146
224
224
224
71
71
71
84
84
84
189
189
189
63
63
63
225
225
225
249
249
249
195
195
195
244
244
244
38
38
38
234
234
234
132
132
132
48
48
48
215
215
215
203
203
203
139
139
139
136
136
136
178
178
178
237
237
237
23
23
23
15
15
15
18
18
18
85
85
85
122
122
122
129
129
129
204
204
204
191
191
191
48
48
48
79
79
79
162
162
162
218
218
218
203
203
203
55
55
55
231
231
231
244
244
244
23
23
23
182
182
182
65
65
65
101
101
101
20
20
20
108
108
108
81
81
81
136
136
136
142
142
142
174
174
174
161
161
161
124
124
124
156
156
156
238
238
238
70
70
70
240
240
240
92
92
92
46
46
46
166
166
166
96
96
96
179
179
179
245
245
245
172
172
172
144
144
144
190
190
190
236
236
236
210
210
210
122
122
122
94
94
94
119
119
119
169
169
169
144
144
144
170
170
170
157
157
157
23
23
23
55
55
55
242
242
242
126
126
126
145
145
145
155
155
155
149
149
149
130
130
130
139
139
139
61
61
61
252
252
252
160
160
160
223
223
223
86
86
86
230
230
230
231
231
231
240
240
240
117
117
117
75
75
75
140
140
140
198
198
198
196
196
196
134
134
134
110
110
110
234
234
234
194
194
194
69
69
69
242
242
242
251
251
251
78
78
78
2
2
2
13
13
13
16
16
16
6
6
6
249
249
249
230
230
230
149
149
149
154
154
154
153
153
153
54
54
54
55
55
55
223
223
223
138
138
138
182
182
182
105
105
105
115
115
115
239
239
239
25
25
25
7
7
7
27
27
27
148
148
148
141
141
141
66
66
66
36
36
36
208
208
208
43
43
43
169
169
169
147
147
147
220
220
220
6
6
6
252
252
252
196
196
196
86
86
86
156
156
156
152
152
152
92
92
92
193
193
193
237
237
237
169
169
169
47
47
47
43
43
43
160
160
160
148
148
148
149
149
149
52
52
52
175
175
175
170
170
170
133
133
133
210
210
210
201
201
201
110
110
110
118
118
118
210
210
210
11
11
11
105
105
105
47
47
47
236
236
236
44
44
44
246
246
246
247
247
247
140
140
140
123
123
123
120
120
120
122
122
122
97
97
97
161
161
161
55
55
55
79
79
79
139
139
139
101
101
101
72
72
72
110
110
110
23
23
23
178
178
178
23
23
23
190
190
190
18
18
18
45
45
45
239
239
239
19
19
19
242
242
242
128
128
128
179
179
179
197
197
197
22
22
22
51
51
51
11
11
11
54
54
54
137
137
137
203
203
203
71
71
71
215
215
215
151
151
151
10
10
10
232
232
232
236
236
236
72
72
72
71
71
71
216
216
216
3
3
3
150
150
150
62
62
62
161
161
161
92
92
92
30
30
30
159
159
159
241
241
241
246
246
246
237
237
237
186
186
186
93
93
93
193
193
193
61
61
61
218
218
218
254
254
254
192
192
192
171
171
171
98
98
98
158
158
158
211
211
211
243
243
243
248
248
248
15
15
15
0
0
0
171
171
171
138
138
138
138
138
138
207
207
207
240
240
240
210
210
210
85
85
85
186
186
186
168
168
168
55
55
55
85
85
85
38
38
38
166
166
166
177
177
177
112
112
112
97
97
97
235
235
235
250
250
250
75
75
75
43
43
43
27
27
27
170
170
170
165
165
165
14
14
14
203
203
203
104
104
104
185
185
185
82
82
82
140
140
140
26
26
26
20
20
20
25
25
25
35
35
35
137
137
137
11
11
11
45
45
45
107
107
107
219
219
219
47
47
47
12
12
12
36
36
36
37
37
37
78
78
78
244
244
244
25
25
25
218
218
218
69
69
69
52
52
52
136
136
136
107
107
107
100
100
100
112
112
112
250
250
250
179
179
179
36
36
36
57
57
57
65
65
65
20
20
20
226
226
226
149
149
149
233
233
233
100
100
100
131
131
131
209
209
209
107
107
107
17
17
17
12
12
12
153
153
153
165
165
165
106
106
106
83
83
83
80
80
80
6
6
6
251
251
251
114
114
114
24
24
24
19
19
19
243
243
243
187
187
187
53
53
53
75
75
75
76
76
76
17
17
17
193
193
193
62
62
62
222
222
222
63
63
63
128
128
128
18
18
18
216
216
216
189
189
189
171
171
171
176
176
176
19
19
19
250
250
250
132
132
132
222
222
222
130
130
130
239
239
239
212
212
212
125
125
125
2
2
2
61
61
61
173
173
173
53
53
53
56
56
56
151
151
151
165
165
165
79
79
79
212
212
212
184
184
184
203
203
203
118
118
118
236
236
236
163
163
163
20
20
20
160
160
160
123
123
123
68
68
68
195
195
195
91
91
91
75
75
75
16
16
16
10
10
10
222
222
222
2
2
2
130
130
130
22
22
22
166
166
166
226
226
226
153
153
153
98
98
98
211
211
211
180
180
180
207
207
207
175
175
175
74
74
74
53
53
53
152
152
152
200
200
200
252
252
252
158
158
158
100
100
100
199
199
199
35
35
35
150
150
150
121
121
121
140
140
140
155
155
155
171
171
171
84
84
84
63
63
63
61
61
61
187
187
187
86
86
86
2
2
2
208
208
208
236
236
236
253
253
253
169
169
169
254
254
254
13
13
13
239
239
239
166
166
166
95
95
95
127
127
127
139
139
139
75
75
75
65
65
65
201
201
201
23
23
23
96
96
96
29
29
29
72
72
72
73
73
73
23
23
23
94
94
94
30
30
30
163
163
163
147
147
147
52
52
52
252
252
252
181
181
181
20
20
20
126
126
126
117
117
117
203
203
203
6
6
6
50
50
50
15
15
15
183
183
183
85
85
85
24
24
24
103
103
103
57
57
57
21
21
21
165
165
165
158
158
158
229
229
229
206
206
206
161
161
161
65
65
65
74
74
74
198
198
198
231
231
231
128
128
128
127
127
127
207
207
207
2
2
2
109
109
109
239
239
239
27
27
27
85
85
85
248
248
248
31
31
31
34
34
34
165
165
165
