P3
50 40
255
80
71
56
66
59
46
84
75
58
160
143
111
125
111
86
118
104
81
114
101
79
115
103
80
255
253
197
207
184
143
225
200
156
88
78
61
228
204
158
196
174
136
145
129
101
133
118
92
255
255
198
245
218
170
184
164
128
160
142
111
150
133
104
136
121
94
192
171
133
60
53
41
180
160
125
202
180
140
15
14
11
165
147
114
72
64
50
148
131
102
131
117
91
255
229
178
255
255
207
146
130
101
71
63
49
49
43
34
83
74
58
224
200
155
184
164
128
230
205
159
131
117
91
180
160
125
127
113
88
127
113
88
227
202
157
84
75
58
65
58
45
246
219
170
156
139
108
78
69
54
215
191
149
255
247
193
210
187
146
255
242
188
255
235
183
104
92
72
85
76
59
145
129
101
246
219
170
138
123
95
115
103
80
129
115
90
217
193
151
200
178
139
122
109
85
255
255
202
69
61
48
243
217
169
102
90
70
125
111
87
142
126
98
196
174
136
59
52
41
229
204
159
200
178
139
233
207
161
255
255
210
99
88
69
153
136
106
131
116
91
255
235
183
127
113
88
43
38
30
255
248
193
130
116
90
213
190
148
95
84
66
242
216
168
135
120
93
240
214
166
148
132
102
159
141
110
133
118
92
102
91
70
90
80
62
202
180
140
173
154
120
156
139
108
227
202
157
34
30
24
70
62
48
238
212
165
182
162
126
131
116
90
142
127
99
229
204
159
255
232
180
79
71
55
248
221
172
255
239
186
161
143
111
255
236
183
255
237
185
252
224
174
255
236
184
121
108
84
195
173
135
181
161
125
167
149
116
78
70
54
65
58
45
237
212
165
159
142
110
208
186
144
120
107
83
148
132
102
191
170
132
94
84
65
154
137
106
243
216
168
68
61
47
118
105
82
174
155
121
208
185
144
82
73
57
88
78
61
211
188
146
93
83
64
173
154
120
123
109
85
196
174
136
161
143
111
188
167
130
24
21
16
132
117
91
204
182
142
164
146
114
144
128
100
121
108
84
234
208
162
84
75
58
135
120
93
129
115
90
159
141
110
251
223
174
170
151
118
214
190
148
187
166
129
187
166
129
174
155
121
197
175
137
227
203
158
128
114
89
215
191
149
111
98
76
58
52
40
100
89
69
182
162
126
196
174
136
244
218
169
189
169
131
128
114
88
107
95
74
176
157
122
101
90
70
192
171
133
190
169
131
93
82
64
53
47
37
218
194
151
202
180
140
146
129
101
149
132
103
146
130
101
255
255
199
80
71
55
235
209
163
178
158
123
255
248
193
92
82
64
58
51
40
82
72
56
184
164
128
133
118
92
255
239
186
177
157
122
255
255
223
255
254
198
194
173
134
198
177
137
138
123
96
99
88
69
192
171
133
55
49
38
193
172
134
99
89
69
131
117
91
219
195
151
247
220
171
144
128
100
234
209
162
80
71
56
103
91
71
219
195
152
160
142
111
69
62
48
190
169
132
119
106
83
87
77
60
179
159
124
82
73
57
205
182
142
197
175
136
122
109
85
202
180
140
176
157
122
121
108
84
153
136
106
111
98
77
255
244
190
226
201
156
44
39
30
225
200
155
255
243
189
147
131
102
195
173
135
245
218
170
154
137
107
255
227
177
249
222
173
224
199
155
251
223
174
164
146
113
183
163
127
255
229
178
255
255
214
94
83
65
179
159
124
147
131
102
200
178
138
153
136
106
151
134
105
145
129
100
136
121
94
49
43
34
215
192
149
83
74
57
104
92
72
152
135
105
63
56
43
141
125
97
111
98
77
209
186
145
183
163
127
255
237
184
174
155
121
149
133
103
133
118
92
201
179
139
95
84
66
58
51
40
128
114
89
125
111
87
131
116
90
108
96
75
141
126
98
145
129
100
122
109
84
246
219
170
255
228
177
155
138
108
210
187
146
126
112
87
193
172
134
206
183
143
174
155
121
127
113
88
109
97
75
212
189
147
186
165
129
62
55
43
236
210
164
85
75
59
150
133
104
197
175
136
132
117
91
121
107
84
145
129
101
255
236
184
142
126
98
71
63
49
220
196
153
220
196
152
144
128
99
112
99
77
128
114
88
168
149
116
59
53
41
68
60
47
115
102
80
100
89
69
71
63
49
255
236
183
177
158
123
191
170
132
115
102
80
222
198
154
243
217
169
168
150
117
253
225
175
107
95
74
206
183
142
182
162
126
114
102
79
250
223
174
238
212
165
82
72
56
255
227
177
77
68
53
126
112
87
60
53
42
120
107
83
115
102
80
93
83
64
107
96
74
218
194
151
199
178
138
96
85
66
129
115
90
188
167
130
112
99
77
234
208
162
241
215
167
197
176
137
186
166
129
217
193
150
75
67
52
93
83
65
149
132
103
255
232
181
255
255
209
155
138
107
220
196
152
206
183
143
210
187
145
255
228
178
255
255
206
109
97
75
192
171
133
152
135
105
127
113
88
214
191
149
255
231
180
215
192
149
63
56
44
226
201
157
139
124
96
255
255
214
164
146
113
152
135
105
255
255
199
193
171
133
181
162
126
241
215
167
83
74
58
133
118
92
160
143
111
152
136
106
194
173
134
98
87
68
156
139
108
209
186
145
173
154
120
125
111
86
255
253
197
185
164
128
93
82
64
89
79
61
207
185
144
147
131
102
220
196
152
238
212
165
204
182
141
239
213
166
213
190
148
25
22
17
97
87
67
137
122
95
129
114
89
40
35
27
128
114
88
197
175
136
195
174
135
206
183
143
225
200
156
99
88
69
73
65
50
161
144
112
255
244
190
149
133
103
133
119
92
168
150
117
157
140
109
201
179
139
255
255
211
155
138
108
188
168
130
172
153
119
146
130
101
249
221
172
112
100
78
134
120
93
163
145
113
179
159
124
186
166
129
215
192
149
194
173
135
108
96
75
255
231
180
145
129
100
119
106
82
194
173
134
204
182
141
255
255
219
255
242
188
176
157
122
160
143
111
42
37
29
190
169
132
189
168
131
139
123
96
112
100
77
255
239
186
94
84
65
139
124
97
128
114
89
70
62
48
110
98
76
139
124
96
89
79
62
155
138
108
136
121
94
65
58
45
186
166
129
104
93
72
177
157
122
48
43
33
251
223
174
124
110
86
82
73
57
79
71
55
161
143
111
93
83
64
254
226
176
105
93
72
255
236
183
109
97
75
95
85
66
100
89
69
126
112
88
157
140
109
140
125
97
123
109
85
167
149
116
108
96
75
163
145
113
202
180
140
84
74
58
235
209
163
255
246
192
233
208
162
255
255
204
104
92
72
42
37
29
126
112
87
239
213
166
159
141
110
73
65
50
164
146
113
73
65
51
139
123
96
76
67
52
255
246
191
73
65
50
238
212
165
191
170
132
255
255
203
234
209
163
88
78
61
117
103
81
249
222
173
255
234
182
101
90
70
126
112
87
215
191
149
157
140
109
255
230
179
209
186
145
255
248
193
54
48
37
122
108
84
238
212
165
190
169
131
190
169
132
93
82
64
57
50
39
127
113
88
94
84
65
255
232
180
214
191
148
166
148
115
194
173
135
128
114
88
202
180
140
191
170
132
162
144
112
49
43
34
170
152
118
255
255
199
139
124
96
148
132
102
255
238
185
200
178
138
91
81
63
255
255
206
196
175
136
111
99
77
255
239
186
87
77
60
142
127
99
191
170
132
52
46
36
255
255
205
106
94
73
97
87
67
255
245
191
255
227
177
207
185
144
255
244
190
64
57
44
164
146
114
97
86
67
146
130
101
217
193
150
235
209
163
135
120
94
119
106
82
199
177
137
124
110
86
143
127
99
184
164
127
80
71
56
193
172
133
173
154
120
217
194
151
215
192
149
23
20
16
175
156
121
255
255
232
168
150
116
208
185
144
225
200
156
241
214
167
176
156
122
144
128
100
145
129
100
177
158
123
149
133
103
241
215
167
198
176
137
166
147
115
255
253
197
94
83
65
109
97
75
149
132
103
144
128
100
108
96
74
90
80
62
205
182
142
242
215
168
206
184
143
136
121
94
219
195
152
244
218
169
134
120
93
92
82
64
48
43
33
141
125
97
175
156
121
59
53
41
79
71
55
135
120
94
230
205
159
213
190
148
180
160
125
142
126
98
110
98
76
138
123
96
240
214
166
85
75
58
169
150
117
239
213
165
204
181
141
116
103
80
126
112
87
134
119
93
103
92
72
151
134
105
79
70
55
164
146
114
188
167
130
255
246
192
119
106
82
121
107
84
82
73
57
41
36
28
255
255
214
204
182
141
93
82
64
111
98
76
243
216
168
44
39
30
102
91
70
180
160
124
255
231
179
85
76
59
245
218
170
183
163
127
207
185
144
209
186
145
219
194
151
145
129
100
79
70
54
166
148
115
79
70
55
255
252
196
170
151
118
106
94
73
255
242
189
128
114
89
117
104
81
116
103
80
171
152
119
60
53
41
98
87
67
230
205
160
199
177
138
110
98
76
96
86
67
208
185
144
202
180
140
194
173
134
87
78
60
95
84
65
156
139
108
132
117
91
166
148
115
217
193
150
255
233
181
97
86
67
253
225
175
215
192
149
255
231
180
172
153
119
148
131
102
112
100
77
228
203
158
179
159
124
232
206
161
228
203
158
255
235
183
209
186
145
229
204
159
255
234
182
255
255
217
189
168
131
82
73
57
122
109
84
202
180
140
152
135
105
181
161
125
197
175
136
230
205
160
191
170
132
239
212
165
220
196
153
201
179
139
255
243
189
206
183
143
206
183
142
139
124
96
215
191
149
118
105
81
152
135
105
144
129
100
58
52
40
169
150
117
205
183
142
117
104
81
178
159
123
233
207
161
255
255
208
89
79
62
255
235
183
223
199
155
198
176
137
164
146
113
189
169
131
164
146
114
183
163
127
189
169
131
145
129
100
255
239
186
107
95
74
166
147
115
254
226
176
214
190
148
223
199
155
149
133
103
152
135
105
88
78
61
203
181
141
172
153
119
65
58
45
189
168
131
223
199
155
251
224
174
158
141
109
228
203
158
102
91
71
143
127
99
98
87
68
141
125
98
34
30
23
219
195
152
196
175
136
174
155
121
145
129
100
160
143
111
123
109
85
145
129
101
252
224
174
255
231
180
191
170
132
112
99
77
183
163
127
119
106
83
119
106
82
159
141
110
115
102
79
234
209
162
133
118
92
208
185
144
185
164
128
142
126
98
231
205
160
52
47
36
161
143
112
132
118
92
118
105
81
146
130
101
207
184
143
255
255
201
125
111
86
255
238
185
195
174
135
78
69
54
142
126
98
151
135
105
173
154
120
213
190
148
148
132
103
175
156
121
179
160
124
114
102
79
187
167
130
231
206
160
160
142
111
252
224
174
209
186
145
175
156
121
182
162
126
116
103
80
195
174
135
129
115
90
251
223
174
255
244
190
255
255
209
117
104
81
189
168
131
79
70
55
226
201
156
198
177
138
133
119
92
87
77
60
213
190
148
250
223
173
195
174
135
178
159
123
152
135
105
235
210
163
152
135
105
136
121
94
147
131
102
213
189
147
215
192
149
147
131
102
210
187
146
97
87
67
38
34
26
251
223
174
104
92
72
193
172
134
157
140
109
96
86
67
240
214
167
243
216
168
122
109
85
145
129
101
120
106
83
212
189
147
183
163
127
180
160
125
152
135
105
244
218
169
121
107
84
109
97
75
188
168
130
236
210
163
240
214
167
255
255
210
210
187
145
140
124
97
177
158
123
114
102
79
159
142
110
253
225
175
163
145
113
186
166
129
234
208
162
255
238
185
255
248
193
131
116
90
244
217
169
168
150
117
158
141
109
253
225
175
213
190
148
238
212
165
232
206
161
129
115
90
206
184
143
255
248
193
125
111
87
83
74
58
198
177
138
101
90
70
183
163
127
240
214
166
159
142
111
120
107
83
28
25
19
76
68
53
219
195
152
122
108
84
42
38
29
154
137
107
83
74
58
155
138
107
153
136
106
149
132
103
136
120
94
124
111
86
145
129
100
227
202
157
192
171
133
122
108
84
187
167
130
120
107
83
109
97
75
105
94
73
223
199
155
209
187
145
181
161
126
112
100
77
246
219
170
150
133
104
179
159
124
60
54
42
56
50
39
255
242
188
198
176
137
173
154
120
161
144
112
60
53
41
251
223
174
115
102
79
95
85
66
33
29
23
65
57
45
152
135
105
97
87
67
136
121
94
91
81
63
230
205
160
172
153
119
189
168
131
161
143
111
145
129
101
128
114
88
255
243
189
255
235
183
221
197
153
255
255
204
255
250
195
210
187
146
230
205
160
185
165
128
113
100
78
241
215
167
234
208
162
255
234
182
33
30
23
91
81
63
195
173
135
50
44
35
238
212
165
210
187
146
255
255
199
235
209
163
158
141
110
196
175
136
255
243
189
167
149
116
95
84
66
199
178
138
255
251
195
255
255
215
187
166
129
27
24
18
84
75
58
186
166
129
100
89
69
161
143
111
220
196
153
255
231
180
83
73
57
54
48
37
85
75
59
93
83
64
156
139
108
250
223
174
164
146
114
155
138
108
106
94
73
255
251
195
183
163
127
98
87
68
65
57
45
205
183
142
73
65
50
255
229
178
231
205
160
44
39
30
105
93
73
62
55
43
191
170
132
255
240
187
198
176
137
225
200
156
176
157
122
247
220
171
255
255
205
248
221
172
139
124
96
250
223
173
255
241
188
192
171
133
255
255
217
58
51
40
170
151
118
112
100
78
224
199
155
196
175
136
177
157
122
255
239
186
218
194
151
112
99
77
254
226
176
106
95
74
64
57
44
150
133
104
117
104
81
120
107
83
166
147
115
169
150
117
90
80
62
224
200
156
198
176
137
156
139
108
124
111
86
255
252
196
113
100
78
93
83
65
119
106
82
155
138
107
219
195
152
176
156
122
224
199
155
167
148
115
61
54
42
114
102
79
41
36
28
120
107
83
236
210
164
155
138
107
106
94
73
165
147
114
32
29
22
157
139
108
164
146
113
134
119
93
144
128
100
116
103
80
180
160
125
255
234
182
205
182
142
214
190
148
206
183
143
245
218
170
132
118
91
46
41
32
255
241
187
215
192
149
219
195
152
100
89
70
245
218
170
214
191
149
145
129
100
140
124
97
161
143
112
205
182
142
88
78
61
141
126
98
154
137
106
177
157
122
113
100
78
255
255
211
81
72
56
174
155
121
159
142
110
255
239
186
226
201
157
154
137
107
184
164
127
129
115
89
223
199
155
255
237
185
190
169
132
189
168
131
154
137
107
167
148
116
26
23
18
211
188
146
237
211
164
255
255
213
255
232
181
127
113
88
79
70
55
247
220
171
143
127
99
166
148
115
255
229
179
233
208
162
187
167
130
203
181
141
210
187
146
194
173
134
187
166
129
255
234
182
213
190
148
139
123
96
86
76
59
244
217
169
60
54
42
209
186
145
111
99
77
121
107
84
250
222
173
93
83
65
251
223
174
173
154
120
200
178
138
58
52
40
50
44
35
217
193
150
207
184
144
59
52
41
220
196
153
255
234
182
228
203
158
117
104
81
173
154
120
255
229
178
95
84
66
199
178
138
130
115
90
166
148
115
171
153
119
255
227
177
225
201
156
78
69
54
58
51
40
96
85
66
136
121
94
165
147
114
175
156
121
103
92
71
213
190
148
110
98
76
220
196
152
244
217
169
173
154
120
155
138
108
154
137
107
219
195
152
199
177
138
204
182
142
96
86
67
237
212
165
138
123
96
110
98
76
255
255
213
225
200
156
224
199
155
206
184
143
219
195
152
235
210
163
101
90
70
200
178
138
176
157
122
193
172
133
223
199
155
155
138
107
147
131
102
233
208
162
231
206
160
255
239
186
227
202
158
210
187
145
85
76
59
64
57
44
90
80
62
240
214
167
107
95
74
135
120
94
255
231
180
200
178
138
132
117
91
227
203
158
139
124
96
179
160
124
114
102
79
219
195
152
203
181
141
186
165
129
53
47
36
156
139
108
255
238
185
255
236
184
160
142
111
199
177
138
188
167
130
229
204
159
130
116
90
239
213
166
195
173
135
161
143
111
116
103
80
247
220
171
140
125
97
185
165
128
63
56
44
176
157
122
245
218
169
180
160
124
207
185
144
255
240
187
249
222
173
58
52
40
102
91
70
129
115
89
166
148
115
245
218
170
168
149
116
255
249
194
93
83
64
255
244
190
168
149
116
147
131
102
174
155
121
74
66
51
181
161
125
224
199
155
169
150
117
232
207
161
210
187
145
249
222
173
109
97
76
228
203
158
255
240
187
235
210
163
152
135
105
94
83
65
157
140
109
156
139
108
250
223
173
78
69
54
215
191
149
255
232
180
64
57
44
223
198
154
244
217
169
106
94
73
196
175
136
209
186
145
190
169
131
171
152
118
223
199
155
127
113
88
210
187
146
95
84
65
137
122
95
63
56
44
49
43
34
141
125
97
115
102
79
137
122
95
235
209
163
206
183
143
84
75
58
231
206
160
162
144
112
103
92
71
255
243
189
115
102
80
255
255
217
141
125
97
236
210
163
117
104
81
152
135
105
152
135
105
201
179
139
114
101
79
243
217
169
247
220
172
248
221
172
193
172
134
206
183
143
98
87
68
255
240
187
188
167
130
215
192
149
255
253
197
166
148
115
100
89
69
143
127
99
93
82
64
199
177
138
181
161
125
96
85
66
251
223
174
255
255
200
245
218
170
133
118
92
75
66
52
255
239
186
75
67
52
250
223
173
120
107
83
189
168
131
255
231
180
121
108
84
150
133
104
244
217
169
236
210
163
152
135
105
250
222
173
150
133
104
169
150
117
229
204
158
138
123
95
73
65
51
145
129
101
25
22
17
215
192
149
202
180
140
141
126
98
103
92
72
175
156
122
66
59
46
201
179
140
192
171
133
255
255
202
255
244
190
170
151
118
51
45
35
255
255
201
131
116
90
164
146
113
255
255
209
255
255
202
107
96
74
68
60
47
53
47
37
150
134
104
102
91
71
175
156
121
138
123
95
236
211
164
252
224
174
255
236
184
31
28
21
255
255
199
156
138
108
235
209
163
162
144
112
255
237
185
248
221
172
214
191
148
98
87
68
79
70
54
191
170
132
63
56
44
251
223
174
218
194
151
140
125
97
136
121
94
198
176
137
255
242
188
121
108
84
169
151
117
255
237
184
244
217
169
183
163
127
207
184
143
52
46
36
117
104
81
197
175
136
197
175
136
153
136
106
183
163
127
96
85
66
158
141
110
183
163
127
254
227
176
37
33
26
216
193
150
204
182
142
92
82
64
149
132
103
255
246
191
255
235
183
255
237
184
113
101
78
151
134
105
164
146
114
66
58
45
255
234
182
238
212
165
116
103
80
106
94
73
176
157
122
61
54
42
84
75
58
95
85
66
126
112
87
149
132
103
255
231
180
255
239
186
124
111
86
122
109
85
173
154
120
105
93
73
201
179
140
220
196
152
183
163
127
55
49
38
222
198
154
202
180
140
240
214
166
123
110
85
240
214
166
215
191
149
255
255
210
191
170
132
213
190
148
219
195
152
255
230
179
196
175
136
155
138
108
153
137
106
166
148
115
47
42
33
67
60
47
255
232
181
149
133
103
78
69
54
152
136
106
102
91
71
136
121
94
103
92
72
255
252
196
206
184
143
137
122
95
189
169
131
50
44
34
185
165
128
198
177
137
162
144
112
113
101
78
229
204
159
144
128
100
193
172
134
228
203
158
139
124
96
72
64
50
128
114
88
71
63
49
113
100
78
253
226
176
190
169
132
113
100
78
139
123
96
222
197
153
214
190
148
138
123
96
186
166
129
234
208
162
96
86
67
130
116
90
173
154
120
205
182
142
80
71
56
191
170
132
188
167
130
140
125
97
107
95
74
147
130
101
149
133
103
207
185
144
79
70
54
130
116
90
36
32
24
204
182
141
213
190
148
146
130
101
221
197
153
237
211
165
178
159
124
122
108
84
184
164
128
139
124
96
196
175
136
155
138
107
74
66
51
75
67
52
192
171
133
198
177
137
126
112
87
247
220
171
198
176
137
128
114
89
166
147
115
228
203
158
50
44
34
119
106
83
100
89
69
145
130
101
112
99
77
254
226
176
228
203
158
174
155
121
160
143
111
175
156
121
58
51
40
246
219
171
133
119
92
60
53
41
152
135
105
147
131
102
194
172
134
230
205
160
152
135
105
170
151
118
56
50
39
250
223
174
255
255
207
92
82
64
166
148
115
120
107
83
169
150
117
130
116
90
97
86
67
255
228
178
162
144
112
41
36
28
138
123
96
74
66
51
244
217
169
226
202
157
91
81
63
255
255
212
224
200
155
169
151
117
180
161
125
112
100
78
152
136
105
207
184
143
255
237
184
255
240
187
180
160
125
54
48
37
188
167
130
186
166
129
149
133
103
208
185
144
72
64
50
237
211
164
94
84
65
149
132
103
169
150
117
209
186
145
182
162
126
241
215
167
222
198
154
168
150
117
239
213
166
81
72
56
159
142
110
255
238
185
121
108
84
63
56
44
143
127
99
234
208
162
78
70
54
175
156
121
35
31
24
38
34
27
145
129
101
255
229
178
152
135
105
204
181
141
79
71
55
151
135
105
164
146
114
141
125
98
95
84
66
213
190
148
138
123
96
255
254
198
255
235
183
101
90
70
204
182
142
255
255
199
212
189
147
255
228
178
148
131
102
130
116
90
166
148
115
231
206
160
111
99
77
159
142
110
73
65
50
154
137
107
223
199
155
218
194
151
74
65
51
228
203
158
255
235
183
200
178
139
255
255
212
34
30
23
255
233
181
125
111
86
64
57
45
255
251
195
184
164
128
222
198
154
71
63
49
252
224
175
207
185
144
255
233
181
130
116
90
177
158
123
152
136
105
171
152
118
255
255
202
166
147
115
224
200
155
255
245
191
204
181
141
213
189
147
229
204
158
129
114
89
161
143
111
207
184
144
225
201
156
180
160
124
222
197
154
195
174
135
109
97
76
189
168
131
109
97
76
250
222
173
227
202
157
170
151
118
239
213
165
233
208
162
118
105
82
189
168
131
255
230
179
126
112
87
246
219
171
255
248
193
166
147
115
125
112
87
225
200
156
135
120
94
255
239
186
121
107
84
215
192
149
255
237
184
255
255
211
186
166
129
255
255
227
125
111
86
107
95
74
171
152
119
96
85
66
202
179
140
217
193
150
178
159
124
130
116
90
255
247
192
89
79
62
200
178
138
249
222
173
104
93
72
82
73
57
88
79
61
188
167
130
188
167
130
185
165
128
156
138
108
156
139
108
147
131
102
177
158
123
80
71
55
136
121
95
255
251
195
206
184
143
255
252
196
107
95
74
147
131
102
173
154
120
164
146
114
166
148
115
80
71
55
115
102
79
74
66
51
213
190
148
221
197
153
249
222
172
44
39
30
127
113
88
136
121
94
196
174
136
215
192
149
204
182
142
223
198
154
164
147
114
121
108
84
230
205
159
76
68
53
147
131
102
255
231
180
102
90
70
198
177
137
170
151
118
121
107
83
237
211
164
255
250
195
178
159
124
255
232
180
177
158
123
156
138
108
247
220
171
193
172
134
220
196
153
120
106
83
151
134
105
165
147
114
208
185
144
189
168
131
237
211
164
53
47
37
171
152
118
150
133
104
216
193
150
76
67
52
189
168
131
113
100
78
241
215
167
206
184
143
239
213
166
135
120
93
218
194
151
222
197
154
133
118
92
161
143
111
43
39
30
132
118
91
76
68
53
174
155
120
205
183
142
215
192
149
108
96
75
180
160
125
158
141
110
77
68
53
162
145
112
147
131
102
115
103
80
234
208
162
94
83
65
145
129
100
77
68
53
255
242
188
41
37
28
175
155
121
195
174
135
209
187
145
176
156
121
230
205
160
71
63
49
62
55
43
111
99
77
89
80
62
181
161
126
184
164
128
198
176
137
47
42
32
184
164
127
255
240
187
169
150
117
255
255
210
170
151
118
116
103
80
101
90
70
185
164
128
218
194
151
99
88
68
149
133
103
219
195
152
205
182
142
60
53
41
152
135
105
255
236
184
247
219
171
191
170
132
134
119
93
42
38
29
255
238
185
210
187
146
255
240
187
255
255
201
140
124
97
255
244
190
234
208
162
193
172
134
177
158
123
89
79
62
201
179
139
65
57
45
185
165
128
155
138
107
184
164
127
90
80
62
255
231
179
255
254
197
143
127
99
92
82
64
50
45
35
208
185
144
104
92
72
138
123
96
243
216
168
89
79
61
145
129
100
83
74
58
161
143
111
131
117
91
113
101
78
99
89
69
57
51
39
255
255
205
57
51
39
215
192
149
105
94
73
228
202
158
96
85
66
171
152
119
118
105
81
199
177
138
160
143
111
144
128
100
182
162
126
249
222
172
72
64
50
178
159
123
176
156
122
161
144
112
221
197
153
83
74
57
255
255
205
168
150
117
241
214
167
223
199
155
95
84
66
141
125
98
255
231
180
200
178
139
140
124
97
174
155
121
146
130
101
138
123
95
175
156
121
60
53
41
216
193
150
255
241
188
237
211
164
174
155
121
142
127
98
163
145
113
95
85
66
130
116
90
204
182
141
214
191
148
125
111
87
255
255
207
127
113
88
105
93
72
54
48
37
161
143
111
35
31
24
255
255
202
127
113
88
255
245
191
70
62
48
107
95
74
27
24
19
180
160
124
220
196
153
153
136
106
255
228
177
54
48
37
193
172
134
255
237
184
208
185
144
132
118
92
255
255
205
191
170
132
255
229
178
175
156
121
195
173
135
243
216
168
148
131
102
78
70
54
179
159
124
186
166
129
147
131
102
188
167
130
194
172
134
234
208
162
154
137
106
141
125
97
146
130
101
216
192
150
208
185
144
78
69
54
140
124
97
137
121
94
227
202
157
143
127
99
201
179
140
75
67
52
153
136
106
124
111
86
151
134
104
171
152
119
147
131
102
217
193
150
250
223
173
162
144
112
192
171
133
219
195
151
255
246
192
180
160
125
154
137
106
126
112
87
124
110
86
174
155
120
255
230
179
255
233
181
202
180
140
165
147
114
91
81
63
232
206
161
184
164
128
255
255
200
255
229
178
115
102
79
192
171
133
154
137
106
224
200
156
204
182
142
233
208
162
127
113
88
129
114
89
255
255
200
146
130
101
187
166
130
255
240
187
190
170
132
197
175
137
184
164
128
163
145
113
134
119
93
115
103
80
168
150
116
218
194
151
255
255
204
222
198
154
126
112
87
70
62
48
110
98
76
232
206
161
37
33
26
181
161
126
127
113
88
182
162
126
158
140
109
118
105
82
254
226
176
240
214
166
160
143
111
94
84
65
218
194
151
169
150
117
141
126
98
106
94
73
75
66
52
184
163
127
248
221
172
138
123
96
161
143
111
116
103
80
45
40
31
255
246
192
163
145
113
166
147
115
235
209
163
255
255
200
149
133
103
110
98
76
127
113
88
153
136
106
201
179
139
132
118
92
184
164
128
237
211
164
246
219
170
255
255
209
82
73
57
196
175
136
203
181
141
154
137
107
79
70
55
132
118
92
