P3
50 40
255
75
99
89
107
92
205
255
52
4
255
128
0
106
170
10
119
18
199
161
0
78
103
83
122
212
221
255
116
255
69
55
130
0
31
74
21
83
210
79
150
140
163
53
122
151
79
79
172
255
240
255
232
199
213
194
187
85
80
74
255
180
98
202
168
118
0
123
169
6
104
0
198
255
141
134
215
229
49
25
91
117
254
17
107
166
0
60
1
176
177
150
103
255
255
164
252
255
255
103
172
129
104
55
90
126
0
0
72
57
143
56
114
193
202
198
255
0
176
232
0
233
106
105
248
65
177
237
40
86
172
68
50
188
193
19
0
122
96
94
51
109
255
180
73
245
102
255
32
0
255
48
255
183
172
255
255
207
255
255
255
255
0
255
246
255
36
187
236
86
46
94
217
193
111
248
255
149
255
255
117
170
126
116
79
220
242
255
255
141
226
255
233
181
255
105
255
255
198
159
239
227
255
255
255
203
120
254
131
0
255
151
132
255
255
188
122
9
236
180
155
243
233
255
246
158
244
255
255
234
255
255
255
31
105
255
142
1
112
187
255
221
255
255
255
96
148
251
131
194
177
255
222
235
100
106
133
105
96
137
114
134
196
255
116
200
255
68
236
255
0
221
253
93
255
178
255
187
120
147
233
29
110
20
118
134
0
255
255
61
226
87
255
120
170
229
251
255
11
60
185
89
146
67
174
255
255
92
255
164
100
195
255
168
188
169
121
255
255
66
149
255
86
123
0
191
217
0
209
248
14
123
76
216
188
176
235
203
255
205
210
255
0
241
206
86
92
1
42
45
171
182
102
145
112
182
129
153
36
7
145
53
74
145
93
150
153
97
159
217
39
141
117
173
94
224
255
88
255
255
117
255
141
13
64
236
3
3
130
244
170
148
22
219
210
0
26
121
86
38
162
125
255
132
42
137
202
0
101
175
111
134
153
71
142
162
97
82
63
44
104
23
80
23
122
77
97
208
0
62
33
0
4
31
57
139
0
255
42
37
255
35
159
175
165
136
221
202
103
211
137
227
0
62
244
77
134
0
82
177
100
93
93
210
112
225
115
237
195
82
160
255
173
240
151
159
255
0
22
255
122
167
182
224
124
167
255
73
159
169
128
207
212
182
3
97
31
0
104
0
35
71
95
174
149
187
224
0
69
196
94
0
255
116
183
64
159
216
105
173
185
44
235
43
86
131
76
121
255
146
88
239
113
0
0
0
43
46
161
164
255
183
136
198
224
0
0
255
17
113
79
210
225
255
126
183
244
0
99
218
106
108
170
234
117
255
149
192
252
15
210
93
0
177
245
73
0
242
111
0
255
33
16
207
255
50
113
255
78
254
255
163
231
180
171
189
255
255
177
159
178
255
0
194
164
105
175
0
146
212
14
1
183
255
48
40
151
99
10
154
79
60
255
113
126
230
164
114
76
163
222
36
125
255
104
0
123
0
51
177
74
187
255
124
56
120
86
0
39
138
28
0
246
0
135
164
54
65
73
132
63
14
46
161
167
52
172
255
49
105
157
0
82
83
151
95
25
117
255
18
87
249
27
55
63
169
121
35
164
255
255
215
255
170
118
10
70
255
155
100
173
255
193
97
191
134
255
189
97
7
255
0
58
255
3
240
255
101
229
176
255
96
121
165
79
198
48
255
78
0
255
50
64
170
255
234
224
255
231
241
45
157
255
69
255
255
184
255
97
179
255
243
4
141
157
161
255
0
191
245
0
74
240
65
0
67
131
77
0
82
0
8
152
3
0
255
0
115
109
0
132
160
0
147
195
0
8
48
162
58
0
255
202
110
217
241
203
108
82
124
78
155
136
86
139
156
92
223
6
0
165
10
0
178
0
61
191
87
114
67
211
49
33
167
93
67
100
151
75
255
34
201
255
0
49
166
255
155
128
235
214
0
195
168
110
73
129
59
49
190
31
159
206
47
210
141
23
214
185
0
190
55
0
159
28
252
147
108
255
95
72
0
115
255
35
240
196
130
86
117
159
56
154
113
189
255
145
46
252
144
0
54
179
0
35
255
255
255
148
160
216
251
0
160
239
255
200
0
255
153
129
66
162
241
2
137
196
108
199
88
132
167
32
18
52
32
0
86
220
0
87
218
0
0
208
51
0
101
255
18
0
255
107
87
174
20
167
17
74
111
240
186
112
247
255
162
195
165
215
130
207
79
101
99
201
150
1
130
177
78
29
90
36
153
221
0
206
141
0
220
0
2
255
35
255
255
0
117
42
68
155
0
72
34
41
41
53
173
0
178
27
3
91
50
26
255
135
151
255
0
81
255
23
0
130
216
10
64
196
58
180
0
91
213
0
234
215
49
255
195
90
179
157
181
125
241
255
5
187
167
0
0
230
0
12
254
191
211
226
243
60
255
224
190
255
217
183
71
255
29
147
255
28
255
104
230
238
203
255
104
241
191
0
159
219
44
206
186
165
90
255
211
2
80
153
212
71
69
255
255
1
255
232
31
66
86
188
130
82
128
164
219
127
255
223
255
255
0
146
210
0
255
255
11
243
178
0
179
221
53
57
255
178
21
194
96
0
251
0
5
196
138
159
54
146
178
60
223
42
0
0
0
65
0
9
169
61
168
147
11
189
56
244
187
255
255
255
147
255
212
0
141
151
0
152
134
145
169
166
168
152
121
188
124
214
255
101
116
255
158
85
255
177
92
155
135
66
0
29
76
0
45
82
0
74
142
110
196
9
74
22
255
14
171
162
230
245
59
199
32
26
219
219
238
161
255
255
0
247
163
0
177
87
195
98
227
209
255
95
74
255
0
68
255
48
120
218
0
255
211
87
173
255
255
255
139
255
0
101
184
193
153
138
73
49
208
69
0
163
171
0
29
145
22
219
17
77
221
105
5
67
97
187
76
120
255
11
189
227
50
150
57
57
129
158
198
219
151
119
163
150
22
155
255
52
255
157
121
203
149
249
178
200
165
255
255
160
205
207
114
0
127
24
0
105
0
155
153
135
209
155
173
0
102
255
64
37
201
183
141
64
164
112
0
89
44
52
92
153
34
0
166
0
125
33
51
146
66
49
0
139
44
225
145
236
131
149
0
45
139
0
168
227
0
74
255
127
11
121
21
4
0
181
243
229
103
185
56
103
0
49
18
0
187
41
65
255
87
99
255
218
146
141
255
66
33
255
104
103
130
0
94
106
0
184
76
31
178
42
44
247
58
44
255
226
0
121
255
0
84
62
114
151
157
53
255
255
39
214
10
161
26
130
94
0
232
196
159
124
253
255
36
233
251
246
251
231
182
93
0
87
12
56
77
203
247
27
255
189
0
212
44
24
63
0
179
50
44
157
0
144
212
0
0
255
0
10
230
78
109
92
112
36
103
121
44
244
191
249
253
255
211
183
255
0
120
193
110
187
21
191
171
255
96
243
236
134
161
0
76
38
61
173
38
255
106
0
208
0
98
247
68
37
255
94
243
225
73
68
0
0
187
0
0
191
84
255
161
136
216
64
187
0
196
117
0
42
0
132
33
14
149
218
0
232
255
172
255
106
232
255
101
110
252
243
55
255
190
123
43
127
212
0
255
103
55
226
43
57
0
0
67
0
235
60
151
255
235
46
249
157
236
223
75
255
255
0
168
117
0
97
0
28
124
174
219
19
215
171
44
73
4
245
78
105
69
7
167
240
82
106
188
24
0
39
146
0
181
255
0
134
202
14
67
62
19
198
255
197
255
200
106
228
253
74
255
200
255
59
0
255
168
184
41
206
185
106
200
142
64
130
255
216
83
255
96
7
201
62
0
177
0
157
255
143
119
108
186
215
39
86
102
129
41
162
127
138
0
255
206
2
236
53
0
255
42
0
125
255
0
0
60
218
65
92
255
255
183
114
220
52
73
234
193
137
198
255
120
225
214
70
159
6
189
5
41
226
0
138
0
170
126
1
194
212
0
177
214
132
70
159
255
13
0
255
154
38
0
0
86
128
0
183
117
107
185
115
157
131
208
0
83
193
29
193
71
230
255
107
255
255
183
134
90
6
164
118
0
212
98
29
189
92
0
85
59
0
42
190
7
0
214
164
81
131
118
196
159
44
36
239
11
32
18
241
98
73
30
183
217
116
223
158
104
134
255
208
62
54
139
44
0
46
110
34
121
83
255
63
0
214
163
121
11
158
219
10
21
128
87
0
129
0
124
88
121
60
76
111
0
94
15
178
131
2
89
101
114
21
198
95
190
116
134
187
255
190
61
191
113
152
16
156
82
0
255
56
0
177
176
212
184
91
255
92
56
86
75
255
62
70
159
246
93
75
87
97
0
21
255
138
112
255
164
230
227
122
46
126
151
0
113
202
84
27
0
255
212
68
255
235
255
142
171
157
116
246
36
147
155
118
163
131
25
124
124
77
205
192
80
61
230
42
71
255
250
255
196
83
163
67
173
12
66
203
110
85
153
100
118
0
16
255
65
0
160
132
173
39
151
182
0
0
147
146
0
85
161
81
153
255
255
216
105
191
200
114
134
37
126
0
20
175
155
108
144
255
0
192
174
100
33
43
239
110
0
255
135
68
86
0
225
166
0
250
220
152
204
186
52
153
11
202
162
0
255
106
40
255
245
209
186
241
208
99
252
110
22
248
114
53
183
197
34
0
244
108
0
181
145
173
255
178
207
255
224
255
205
163
173
0
6
85
168
0
0
223
75
184
122
71
255
0
118
239
37
189
162
72
115
135
80
96
167
214
96
229
197
149
250
150
127
255
205
67
204
255
194
163
182
184
255
43
117
255
195
32
255
57
120
117
0
255
40
25
167
213
0
3
195
97
87
29
158
51
0
13
252
226
75
91
142
255
191
230
250
144
8
54
237
80
170
207
255
193
181
255
16
135
255
45
234
88
213
175
123
174
112
69
206
5
170
113
84
255
181
187
203
237
220
255
135
20
199
42
170
254
194
192
163
177
161
66
250
29
255
47
92
255
66
223
45
144
207
9
255
166
7
195
77
68
134
24
189
171
78
181
210
218
69
168
195
0
208
165
73
163
71
176
46
8
105
22
76
50
62
133
71
116
0
108
42
0
230
165
110
192
225
123
255
219
17
199
125
26
254
215
82
58
117
17
189
111
33
255
255
0
190
255
74
167
71
117
117
0
95
233
56
0
115
141
0
41
89
148
96
48
46
38
109
108
163
247
52
85
144
187
155
131
223
170
143
80
255
203
109
255
118
228
51
66
111
152
0
255
42
20
249
73
41
46
181
0
170
243
192
255
212
196
216
75
170
179
255
201
0
254
238
50
100
188
0
76
126
45
165
44
0
168
27
228
120
99
255
58
123
238
49
100
53
63
118
1
48
58
80
115
197
97
0
242
218
37
255
123
178
255
76
255
237
46
97
150
201
32
137
255
147
0
33
255
0
4
27
59
135
195
185
191
105
255
184
223
236
171
111
222
126
60
183
164
126
135
25
203
255
11
135
255
52
32
120
111
131
43
140
230
158
108
161
255
207
164
255
78
227
101
233
192
198
0
122
255
0
255
114
116
255
0
72
255
0
0
255
95
183
97
110
120
2
150
137
22
143
203
59
33
180
51
0
0
152
77
0
255
0
92
0
102
168
0
153
59
76
4
0
87
167
3
196
65
53
70
24
11
100
48
0
80
86
142
135
151
208
158
144
192
226
32
215
131
123
244
252
179
162
133
115
7
32
73
0
62
157
89
104
215
71
189
177
194
174
222
255
201
145
255
231
118
127
139
68
45
212
15
89
98
143
81
215
255
236
157
90
235
117
165
255
37
147
255
206
255
20
237
255
184
67
212
74
0
157
15
88
111
128
197
80
255
180
255
255
125
214
249
228
162
112
196
164
158
110
103
29
87
245
0
132
167
124
238
0
92
74
74
43
76
234
63
34
187
28
187
154
48
118
228
48
14
239
0
73
102
0
27
71
10
0
135
27
11
255
146
76
130
206
97
58
193
201
84
152
128
30
55
122
27
0
86
128
0
174
115
171
105
38
192
137
0
167
204
0
255
224
29
255
166
106
17
25
30
0
73
187
45
111
95
229
104
94
193
40
113
192
245
166
255
82
255
119
67
90
116
0
40
81
243
55
195
255
127
201
255
86
110
136
32
190
8
0
199
255
255
93
255
242
240
90
223
157
4
134
41
127
135
66
255
120
213
92
45
255
44
0
158
0
0
114
93
0
173
111
63
180
64
198
0
0
203
140
53
9
151
142
198
0
113
213
0
233
137
35
255
0
144
160
58
167
43
156
34
78
255
183
177
254
170
41
255
77
255
247
201
182
101
255
68
88
255
180
168
82
115
209
134
112
128
119
215
235
0
254
255
27
198
222
159
108
8
102
130
0
255
250
20
255
105
11
255
10
242
58
179
243
107
98
250
105
105
145
100
130
0
77
187
154
38
154
255
66
0
237
89
63
40
104
194
156
74
255
255
254
255
235
210
226
116
35
4
0
0
180
30
92
255
54
253
90
13
175
0
147
0
73
255
48
203
149
55
102
16
91
0
0
42
0
4
0
0
0
157
125
46
191
214
139
212
109
61
219
125
0
169
74
46
147
206
255
89
132
124
255
162
0
255
81
0
176
48
109
216
93
126
116
235
237
69
177
255
11
131
67
55
255
0
255
163
0
215
23
247
113
61
255
114
164
163
124
218
161
33
255
155
164
247
160
180
228
207
50
138
103
148
172
0
255
255
147
224
147
240
215
99
255
153
217
255
169
123
84
225
231
0
0
255
0
101
77
255
195
94
249
255
176
92
61
180
255
147
0
255
241
71
255
152
255
255
167
195
39
68
47
28
125
255
19
186
136
40
79
10
72
60
135
241
92
255
82
127
139
117
77
143
125
24
63
255
0
117
35
64
181
128
242
255
250
136
234
108
177
126
0
194
161
11
61
198
108
138
156
221
255
83
156
185
32
212
223
154
18
77
173
0
35
74
12
0
0
13
0
0
77
0
191
134
148
201
78
214
106
109
147
0
169
96
75
0
143
255
0
142
255
0
255
255
0
224
255
98
63
130
171
0
41
253
90
156
255
182
114
255
51
114
205
254
115
153
255
255
176
207
148
0
40
148
0
8
218
127
235
140
143
255
192
100
81
52
42
88
1
211
133
104
170
247
238
98
168
142
75
255
89
197
75
255
246
87
164
0
156
36
0
183
101
47
129
89
85
149
162
52
193
154
217
64
27
194
100
9
193
189
241
162
205
219
248
114
104
255
159
0
108
227
114
101
57
243
4
7
174
219
148
174
250
108
77
255
165
124
200
163
86
155
123
122
0
0
0
0
0
0
178
116
75
255
245
255
255
255
208
162
255
0
19
204
0
2
68
149
59
184
113
43
189
218
46
44
255
155
0
36
171
23
0
201
244
1
255
68
69
255
77
167
67
120
229
125
240
161
255
183
16
247
0
218
0
138
185
35
218
157
248
255
79
18
143
214
62
58
99
29
215
215
19
229
190
232
255
122
43
99
220
255
0
255
255
199
140
128
255
1
0
238
0
83
62
0
226
201
156
202
255
148
2
152
40
255
204
83
179
255
238
152
125
151
24
21
52
218
198
255
137
253
112
36
115
92
117
0
255
79
98
221
71
158
123
155
156
111
201
255
149
255
53
117
0
29
71
0
96
0
60
199
78
255
177
108
224
190
53
142
255
0
116
97
52
255
82
114
162
148
47
255
154
24
255
33
128
255
0
20
154
167
0
233
133
83
195
201
255
152
110
108
91
0
255
0
118
67
255
144
69
207
91
98
0
151
159
250
255
118
255
120
223
237
111
211
171
50
165
221
147
37
255
255
210
120
255
138
145
50
197
116
164
179
255
178
4
208
255
49
51
255
0
235
70
0
255
167
178
227
178
255
168
69
181
228
170
144
222
160
89
38
0
0
0
0
98
11
196
246
111
210
53
81
183
0
97
14
170
242
122
255
32
90
33
77
255
0
238
255
45
255
195
7
163
18
133
0
228
119
11
255
27
180
65
32
203
35
0
40
51
0
213
128
161
255
66
255
223
238
109
100
189
0
220
84
42
218
164
13
145
146
25
91
86
75
255
111
39
255
45
139
68
61
0
101
129
129
181
147
147
66
122
51
93
190
0
56
87
0
231
53
190
171
116
157
105
148
0
255
84
12
255
226
102
255
189
83
64
76
123
47
101
33
247
206
41
254
148
255
181
177
186
164
177
163
255
211
255
108
110
255
222
8
255
137
36
235
94
32
209
5
0
26
0
0
174
44
82
117
152
201
36
212
0
114
255
9
255
255
35
223
219
108
0
104
105
18
153
255
105
255
216
115
244
185
125
143
249
193
79
255
171
240
15
162
172
33
108
115
174
57
36
167
255
199
12
255
134
134
44
24
144
83
155
189
244
255
183
203
27
156
71
143
33
109
178
38
109
169
0
0
237
0
43
164
79
123
106
215
97
183
227
110
83
0
0
174
0
0
48
0
69
9
95
253
4
130
81
120
0
102
190
0
112
255
255
91
197
50
199
11
56
205
207
39
255
34
0
255
0
0
255
119
162
130
81
174
255
248
133
251
55
46
152
154
170
211
0
70
173
61
0
123
114
42
33
255
76
187
181
117
207
255
55
201
233
0
255
238
85
153
166
85
45
213
73
117
34
202
215
255
179
123
255
120
23
179
161
94
145
12
213
36
0
244
0
47
255
0
216
255
0
135
255
129
60
97
150
142
41
138
105
130
218
84
255
255
0
255
156
84
255
38
54
255
16
80
219
207
126
87
160
42
80
255
0
24
162
189
71
96
153
115
255
24
0
107
0
0
115
55
204
110
241
255
106
159
255
0
44
198
132
0
255
229
160
255
119
225
190
151
193
255
128
124
156
41
0
221
1
0
47
0
30
12
187
121
196
24
178
57
35
255
98
15
149
87
76
231
51
31
92
0
255
0
6
255
95
253
233
160
255
253
192
200
133
27
3
110
76
176
197
216
151
69
218
124
75
160
255
238
183
255
255
156
89
255
0
46
83
0
144
0
0
233
0
116
165
0
46
247
0
176
178
119
175
27
255
255
88
253
135
174
179
79
58
157
0
220
160
22
209
20
82
238
59
168
155
35
255
202
255
255
226
255
239
208
230
148
221
0
171
255
4
0
86
122
49
0
117
147
151
255
246
255
255
158
214
45
89
60
59
143
237
255
191
255
241
55
72
79
255
71
255
255
75
243
236
59
255
110
48
255
0
116
179
150
0
106
108
0
113
166
0
228
255
196
137
148
0
183
174
0
255
43
0
205
40
118
40
255
228
142
255
64
146
247
0
6
121
25
121
41
59
142
184
54
0
246
195
56
119
251
255
93
204
255
109
207
184
0
123
24
195
23
54
182
0
175
97
38
28
181
224
223
255
102
213
255
184
41
255
82
0
250
0
177
93
0
74
25
0
171
56
0
105
60
63
121
44
161
84
255
166
238
255
255
145
255
255
0
50
225
0
33
110
0
65
64
3
255
66
221
166
233
204
255
29
88
255
0
73
90
134
255
101
146
255
117
87
176
184
143
197
255
0
255
215
138
255
96
255
255
0
84
255
0
33
190
28
67
156
141
225
191
201
114
229
224
190
117
100
44
151
71
71
0
177
50
0
148
39
73
189
173
168
255
64
184
51
0
158
109
0
210
152
158
0
116
90
0
150
151
9
225
203
255
127
230
179
209
255
83
23
26
125
4
0
69
134
96
131
83
125
215
36
245
30
149
142
0
202
136
114
122
0
80
216
19
194
110
5
213
68
0
96
0
0
0
0
59
17
101
35
0
252
249
51
155
179
255
34
86
255
0
0
75
195
146
16
224
128
120
173
87
222
212
10
56
203
152
117
40
101
255
68
49
99
191
255
6
11
255
232
194
107
129
217
150
167
0
90
174
0
95
255
58
209
143
103
247
132
210
184
154
109
205
114
23
91
191
19
96
25
213
160
0
109
99
0
38
226
106
211
255
170
154
80
85
173
0
173
102
52
255
97
164
95
113
123
0
32
21
111
226
0
135
255
193
144
237
145
100
0
0
0
0
0
89
18
78
121
72
255
153
21
158
175
30
250
255
44
180
164
131
118
107
101
181
162
174
91
255
46
4
128
97
39
0
120
5
25
116
0
0
141
187
0
62
100
209
75
0
255
160
22
151
155
50
183
144
30
208
132
90
88
111
244
130
229
228
34
160
89
112
67
21
127
75
255
5
40
255
118
221
17
106
72
50
132
45
157
0
22
0
4
255
15
116
251
193
122
90
34
0
0
175
38
0
139
41
109
153
94
205
60
0
48
175
0
87
255
101
145
255
86
195
150
0
0
117
21
71
79
96
49
255
252
24
75
255
151
7
119
254
86
252
255
180
194
224
209
115
169
5
193
26
0
114
114
226
52
19
255
57
225
177
255
133
17
255
146
67
168
151
13
0
150
97
50
173
70
148
138
99
170
92
127
22
255
95
45
218
112
123
203
115
115
129
167
145
166
118
130
151
12
227
75
70
139
0
59
180
0
183
111
85
163
97
188
121
255
131
47
198
0
0
190
0
194
224
222
208
255
152
33
39
6
224
107
52
151
60
210
0
42
255
0
183
255
0
152
61
39
23
106
223
74
90
255
219
219
102
198
255
54
181
156
117
78
37
129
105
143
240
57
135
255
0
23
255
0
75
255
116
0
163
166
66
255
205
160
174
226
133
7
63
102
246
188
148
231
255
179
169
255
233
120
255
55
255
48
213
255
12
183
51
230
224
0
255
193
3
151
63
88
34
121
98
41
60
131
207
138
211
255
107
229
109
168
66
34
255
54
213
237
204
193
167
255
119
77
173
172
213
94
133
100
255
205
131
255
109
99
165
5
255
146
255
255
87
213
145
97
255
31
93
58
22
110
255
209
130
255
113
110
136
0
224
68
34
244
0
239
141
45
251
85
105
62
181
178
207
133
0
211
40
137
157
183
255
194
9
255
249
3
255
119
134
195
17
213
47
0
200
63
150
255
96
172
212
150
151
62
162
115
181
201
221
255
188
94
255
115
11
104
109
0
107
34
209
225
108
255
229
231
92
157
181
0
175
179
53
143
83
180
0
34
160
0
227
65
173
251
107
168
169
44
167
226
114
254
209
89
211
58
180
251
0
139
68
172
196
53
250
135
238
255
49
255
142
116
197
151
34
131
255
152
255
164
90
255
91
49
255
128
255
157
51
253
113
149
196
140
193
130
169
83
84
212
165
162
205
255
130
58
226
24
255
170
55
227
199
123
117
113
164
255
179
180
255
239
216
156
140
255
18
65
173
26
148
77
0
219
198
0
255
108
151
184
74
255
78
132
91
59
153
152
93
149
116
95
102
23
102
123
62
84
209
236
228
63
201
207
0
93
173
175
37
38
255
81
111
255
161
131
117
0
245
0
0
255
12
0
94
206
70
0
211
110
1
6
98
187
65
84
246
121
221
187
54
51
59
7
68
47
119
167
9
89
85
87
64
58
231
38
182
70
149
255
36
129
92
56
68
157
184
0
143
255
55
111
154
42
187
99
152
239
73
255
179
25
153
131
179
113
81
172
203
250
0
255
255
255
255
119
241
238
147
255
176
255
207
58
151
146
0
158
23
83
255
123
127
199
116
94
0
164
0
97
82
170
115
29
123
33
175
126
81
211
186
205
200
148
255
148
192
208
22
70
255
6
16
226
0
68
141
80
185
86
137
8
182
226
0
148
72
130
220
88
255
245
131
255
90
203
109
31
82
26
37
169
109
120
188
255
184
31
117
131
61
51
0
0
135
51
88
52
20
26
39
158
130
53
0
191
255
155
143
172
234
26
80
141
159
133
216
95
222
233
0
87
161
0
28
129
66
6
0
55
54
0
226
32
0
53
211
117
57
196
165
36
148
255
255
172
106
109
76
255
58
176
227
253
255
0
169
255
202
133
223
255
143
12
47
52
55
92
0
0
212
48
0
133
143
0
105
123
0
216
142
137
163
37
255
62
13
151
0
255
234
124
223
255
222
143
255
255
174
141
255
94
161
183
0
178
178
34
157
154
157
0
69
211
0
104
12
100
212
17
194
138
255
128
156
211
0
75
18
0
195
105
116
225
255
0
255
200
98
157
45
114
0
50
73
0
5
62
165
98
82
152
202
199
171
255
235
255
255
255
227
101
134
182
203
159
22
249
80
208
120
0
157
84
110
113
37
190
1
197
23
0
143
0
53
129
164
160
25
198
110
84
94
131
150
52
215
169
158
255
255
59
182
255
216
0
45
63
45
24
50
200
34
165
136
0
11
59
13
99
177
165
15
97
91
0
55
133
0
181
79
76
150
31
247
0
0
180
0
81
160
0
0
51
63
110
109
97
194
209
53
198
180
0
114
98
147
85
64
108
98
91
53
68
113
0
89
168
112
9
228
75
250
48
81
100
0
220
0
0
106
150
0
255
255
0
199
79
0
114
133
139
135
48
255
129
192
203
91
182
131
121
160
196
255
189
255
255
169
127
97
230
184
0
236
133
0
154
76
4
223
18
148
188
252
182
98
255
205
27
122
112
178
0
202
29
94
255
0
164
106
127
0
41
255
0
0
255
134
190
222
203
255
209
213
23
44
149
78
38
209
30
161
159
0
83
160
255
79
35
156
190
224
91
211
253
0
122
233
255
187
158
231
48
149
89
0
210
0
64
54
0
17
55
0
23
170
107
191
162
84
255
171
115
223
0
97
106
103
59
0
47
25
0
139
189
25
243
231
231
92
148
228
183
163
196
203
47
0
149
253
93
131
123
255
101
181
195
100
102
110
255
225
167
255
255
176
91
75
179
0
0
255
139
54
140
215
161
255
147
0
228
0
0
57
176
63
79
118
234
63
109
141
82
255
255
0
255
255
132
160
224
182
141
161
67
202
255
18
68
138
69
36
11
255
189
108
190
171
145
133
194
255
255
255
249
202
255
202
255
255
24
255
196
22
200
139
86
143
170
243
150
166
24
231
255
39
208
255
153
255
227
255
182
225
255
150
159
251
255
211
219
185
153
255
255
182
255
238
163
255
255
93
255
161
206
185
223
255
54
90
111
150
58
175
255
83
188
255
246
255
255
255
159
160
255
255
225
70
255
87
45
255
231
255
255
217
238
255
255
255
255
255
251
231
255
230
108
144
255
21
0
255
170
89
252
255
255
216
217
184
255
86
71
176
73
255
79
143
255
212
255
255
157
255
255
215
255
255
255
255
105
255
255
255
179
210
255
204
143
178
183
255
204
209
255
212
101
172
36
125
146
152
189
255
192
255
225
110
251
199
29
196
77
0
42
75
75
110
129
69
184
88
55
56
7
0
116
193
58
120
232
185
139
167
207
112
193
129
183
169
255
240
87
251
255
68
94
219
0
147
113
101
197
167
214
180
129
255
0
171
95
0
114
58
96
38
191
223
188
156
103
255
121
18
226
138
61
100
131
32
39
128
0
37
234
131
232
255
175
186
153
254
82
77
255
198
40
163
238
97
8
201
83
95
23
180
255
41
170
255
118
17
113
201
0
187
106
111
255
106
179
43
255
255
172
255
149
210
255
203
28
136
205
67
200
55
255
151
143
32
135
214
49
94
135
181
32
41
