P3
50 40
255
77
77
77
156
156
156
174
174
174
230
230
230
159
159
159
186
186
186
195
195
195
106
106
106
243
243
243
234
234
234
227
227
227
107
107
107
251
251
251
212
212
212
140
140
140
185
185
185
242
242
242
195
195
195
165
165
165
219
219
219
169
169
169
144
144
144
178
178
178
206
206
206
215
215
215
200
200
200
58
58
58
237
237
237
102
102
102
155
155
155
207
207
207
252
252
252
249
249
249
196
196
196
137
137
137
81
81
81
74
74
74
199
199
199
204
204
204
205
205
205
236
236
236
220
220
220
237
237
237
125
125
125
213
213
213
95
95
95
155
155
155
224
224
224
235
235
235
245
245
245
249
249
249
252
252
252
197
197
197
245
245
245
253
253
253
142
142
142
93
93
93
141
141
141
211
211
211
229
229
229
93
93
93
167
167
167
187
187
187
158
158
158
132
132
132
246
246
246
121
121
121
190
190
190
196
196
196
220
220
220
183
183
183
231
231
231
155
155
155
195
195
195
218
218
218
233
233
233
250
250
250
185
185
185
214
214
214
240
240
240
228
228
228
235
235
235
139
139
139
245
245
245
162
162
162
174
174
174
152
152
152
253
253
253
124
124
124
241
241
241
121
121
121
214
214
214
118
118
118
155
155
155
84
84
84
212
212
212
155
155
155
199
199
199
215
215
215
36
36
36
80
80
80
221
221
221
194
194
194
252
252
252
134
134
134
201
201
201
230
230
230
70
70
70
240
240
240
228
228
228
151
151
151
212
212
212
252
252
252
246
246
246
237
237
237
129
129
129
237
237
237
182
182
182
186
186
186
76
76
76
115
115
115
244
244
244
221
221
221
250
250
250
219
219
219
204
204
204
246
246
246
106
106
106
192
192
192
236
236
236
216
216
216
240
240
240
184
184
184
251
251
251
101
101
101
138
138
138
193
193
193
178
178
178
195
195
195
151
151
151
192
192
192
215
215
215
246
246
246
40
40
40
236
236
236
249
249
249
162
162
162
130
130
130
153
153
153
210
210
210
162
162
162
199
199
199
153
153
153
164
164
164
214
214
214
160
160
160
239
239
239
196
196
196
189
189
189
202
202
202
153
153
153
217
217
217
128
128
128
202
202
202
188
188
188
73
73
73
182
182
182
162
162
162
206
206
206
189
189
189
210
210
210
204
204
204
217
217
217
247
247
247
124
124
124
213
213
213
239
239
239
220
220
220
228
228
228
247
247
247
168
168
168
247
247
247
205
205
205
177
177
177
242
242
242
150
150
150
226
226
226
184
184
184
212
212
212
148
148
148
211
211
211
192
192
192
174
174
174
249
249
249
230
230
230
160
160
160
247
247
247
236
236
236
251
251
251
236
236
236
205
205
205
100
100
100
179
179
179
189
189
189
186
186
186
108
108
108
145
145
145
221
221
221
214
214
214
181
181
181
224
224
224
141
141
141
239
239
239
252
252
252
141
141
141
86
86
86
161
161
161
159
159
159
117
117
117
175
175
175
145
145
145
205
205
205
193
193
193
154
154
154
178
178
178
235
235
235
215
215
215
176
176
176
118
118
118
223
223
223
200
200
200
135
135
135
254
254
254
252
252
252
120
120
120
212
212
212
246
246
246
143
143
143
227
227
227
223
223
223
218
218
218
236
236
236
185
185
185
227
227
227
247
247
247
253
253
253
172
172
172
246
246
246
166
166
166
218
218
218
214
214
214
238
238
238
186
186
186
226
226
226
86
86
86
253
253
253
183
183
183
170
170
170
222
222
222
164
164
164
156
156
156
197
197
197
201
201
201
209
209
209
237
237
237
195
195
195
191
191
191
172
172
172
205
205
205
125
125
125
94
94
94
178
178
178
110
110
110
249
249
249
163
163
163
139
139
139
252
252
252
251
251
251
221
221
221
208
208
208
142
142
142
199
199
199
195
195
195
231
231
231
159
159
159
197
197
197
150
150
150
125
125
125
204
204
204
167
167
167
131
131
131
233
233
233
189
189
189
145
145
145
237
237
237
217
217
217
140
140
140
143
143
143
251
251
251
224
224
224
135
135
135
208
208
208
247
247
247
186
186
186
151
151
151
200
200
200
208
208
208
103
103
103
81
81
81
242
242
242
190
190
190
143
143
143
254
254
254
186
186
186
157
157
157
122
122
122
222
222
222
234
234
234
151
151
151
235
235
235
112
112
112
246
246
246
198
198
198
111
111
111
220
220
220
238
238
238
130
130
130
238
238
238
168
168
168
180
180
180
121
121
121
152
152
152
220
220
220
113
113
113
184
184
184
252
252
252
236
236
236
197
197
197
238
238
238
241
241
241
141
141
141
253
253
253
201
201
201
206
206
206
204
204
204
252
252
252
154
154
154
120
120
120
123
123
123
254
254
254
246
246
246
248
248
248
206
206
206
199
199
199
248
248
248
207
207
207
233
233
233
176
176
176
191
191
191
253
253
253
173
173
173
199
199
199
228
228
228
207
207
207
79
79
79
192
192
192
211
211
211
247
247
247
218
218
218
138
138
138
239
239
239
219
219
219
166
166
166
229
229
229
65
65
65
169
169
169
180
180
180
159
159
159
246
246
246
100
100
100
154
154
154
207
207
207
192
192
192
251
251
251
249
249
249
192
192
192
199
199
199
123
123
123
164
164
164
127
127
127
202
202
202
234
234
234
168
168
168
214
214
214
216
216
216
58
58
58
166
166
166
152
152
152
209
209
209
40
40
40
246
246
246
215
215
215
179
179
179
203
203
203
238
238
238
170
170
170
208
208
208
177
177
177
246
246
246
182
182
182
244
244
244
140
140
140
151
151
151
250
250
250
249
249
249
226
226
226
210
210
210
178
178
178
194
194
194
233
233
233
115
115
115
176
176
176
176
176
176
172
172
172
230
230
230
233
233
233
180
180
180
168
168
168
241
241
241
143
143
143
247
247
247
194
194
194
205
205
205
252
252
252
235
235
235
147
147
147
218
218
218
124
124
124
179
179
179
154
154
154
222
222
222
237
237
237
205
205
205
126
126
126
161
161
161
124
124
124
145
145
145
124
124
124
148
148
148
155
155
155
166
166
166
210
210
210
150
150
150
197
197
197
253
253
253
204
204
204
61
61
61
240
240
240
113
113
113
98
98
98
199
199
199
207
207
207
199
199
199
210
210
210
216
216
216
248
248
248
212
212
212
131
131
131
239
239
239
173
173
173
224
224
224
195
195
195
220
220
220
161
161
161
133
133
133
241
241
241
247
247
247
101
101
101
202
202
202
254
254
254
252
252
252
251
251
251
191
191
191
76
76
76
215
215
215
236
236
236
167
167
167
84
84
84
237
237
237
175
175
175
136
136
136
186
186
186
238
238
238
62
62
62
216
216
216
244
244
244
236
236
236
222
222
222
77
77
77
203
203
203
226
226
226
246
246
246
120
120
120
145
145
145
230
230
230
195
195
195
241
241
241
234
234
234
251
251
251
85
85
85
192
192
192
216
216
216
193
193
193
226
226
226
173
173
173
192
192
192
178
178
178
152
152
152
240
240
240
183
183
183
222
222
222
246
246
246
176
176
176
178
178
178
200
200
200
189
189
189
105
105
105
167
167
167
236
236
236
142
142
142
201
201
201
252
252
252
178
178
178
98
98
98
242
242
242
212
212
212
121
121
121
230
230
230
116
116
116
226
226
226
232
232
232
44
44
44
241
241
241
168
168
168
92
92
92
230
230
230
221
221
221
163
163
163
247
247
247
229
229
229
152
152
152
109
109
109
170
170
170
215
215
215
231
231
231
157
157
157
138
138
138
196
196
196
165
165
165
244
244
244
194
194
194
140
140
140
231
231
231
173
173
173
232
232
232
201
201
201
68
68
68
178
178
178
253
253
253
174
174
174
178
178
178
214
214
214
197
197
197
158
158
158
174
174
174
244
244
244
190
190
190
210
210
210
243
243
243
183
183
183
235
235
235
253
253
253
103
103
103
188
188
188
177
177
177
192
192
192
201
201
201
220
220
220
228
228
228
251
251
251
170
170
170
132
132
132
249
249
249
235
235
235
151
151
151
147
147
147
195
195
195
212
212
212
191
191
191
233
233
233
79
79
79
197
197
197
235
235
235
230
230
230
251
251
251
183
183
183
120
120
120
139
139
139
249
249
249
172
172
172
140
140
140
226
226
226
184
184
184
135
135
135
179
179
179
159
159
159
123
123
123
180
180
180
104
104
104
171
171
171
223
223
223
241
241
241
128
128
128
237
237
237
230
230
230
146
146
146
240
240
240
197
197
197
118
118
118
227
227
227
199
199
199
79
79
79
233
233
233
235
235
235
226
226
226
99
99
99
214
214
214
236
236
236
225
225
225
200
200
200
220
220
220
151
151
151
199
199
199
216
216
216
205
205
205
254
254
254
216
216
216
223
223
223
226
226
226
115
115
115
156
156
156
102
102
102
212
212
212
246
246
246
188
188
188
231
231
231
172
172
172
171
171
171
78
78
78
164
164
164
231
231
231
170
170
170
178
178
178
151
151
151
127
127
127
203
203
203
224
224
224
204
204
204
247
247
247
125
125
125
216
216
216
226
226
226
244
244
244
231
231
231
182
182
182
217
217
217
245
245
245
151
151
151
191
191
191
240
240
240
219
219
219
243
243
243
207
207
207
252
252
252
251
251
251
246
246
246
173
173
173
108
108
108
222
222
222
160
160
160
237
237
237
225
225
225
173
173
173
179
179
179
210
210
210
181
181
181
250
250
250
240
240
240
209
209
209
248
248
248
218
218
218
242
242
242
211
211
211
221
221
221
165
165
165
116
116
116
203
203
203
220
220
220
217
217
217
226
226
226
233
233
233
253
253
253
187
187
187
247
247
247
184
184
184
221
221
221
176
176
176
207
207
207
158
158
158
184
184
184
177
177
177
236
236
236
253
253
253
218
218
218
228
228
228
240
240
240
202
202
202
247
247
247
252
252
252
231
231
231
169
169
169
184
184
184
142
142
142
82
82
82
202
202
202
190
190
190
214
214
214
191
191
191
178
178
178
123
123
123
140
140
140
134
134
134
131
131
131
49
49
49
251
251
251
182
182
182
204
204
204
133
133
133
231
231
231
127
127
127
127
127
127
225
225
225
241
241
241
250
250
250
192
192
192
221
221
221
118
118
118
233
233
233
187
187
187
134
134
134
213
213
213
138
138
138
170
170
170
181
181
181
196
196
196
248
248
248
67
67
67
248
248
248
206
206
206
98
98
98
227
227
227
236
236
236
228
228
228
146
146
146
241
241
241
208
208
208
80
80
80
137
137
137
139
139
139
220
220
220
227
227
227
239
239
239
172
172
172
160
160
160
125
125
125
165
165
165
237
237
237
167
167
167
226
226
226
184
184
184
144
144
144
212
212
212
206
206
206
248
248
248
115
115
115
203
203
203
240
240
240
236
236
236
106
106
106
225
225
225
140
140
140
234
234
234
185
185
185
151
151
151
82
82
82
184
184
184
245
245
245
194
194
194
211
211
211
150
150
150
254
254
254
236
236
236
238
238
238
223
223
223
220
220
220
205
205
205
120
120
120
236
236
236
215
215
215
58
58
58
234
234
234
225
225
225
221
221
221
153
153
153
137
137
137
240
240
240
227
227
227
206
206
206
159
159
159
190
190
190
233
233
233
251
251
251
170
170
170
209
209
209
185
185
185
95
95
95
152
152
152
156
156
156
216
216
216
239
239
239
235
235
235
220
220
220
190
190
190
205
205
205
240
240
240
159
159
159
207
207
207
221
221
221
219
219
219
224
224
224
251
251
251
252
252
252
159
159
159
240
240
240
141
141
141
241
241
241
232
232
232
251
251
251
246
246
246
191
191
191
178
178
178
212
212
212
230
230
230
238
238
238
127
127
127
170
170
170
145
145
145
201
201
201
221
221
221
205
205
205
179
179
179
31
31
31
62
62
62
222
222
222
178
178
178
94
94
94
232
232
232
132
132
132
138
138
138
243
243
243
251
251
251
251
251
251
168
168
168
250
250
250
217
217
217
164
164
164
111
111
111
220
220
220
241
241
241
90
90
90
108
108
108
246
246
246
220
220
220
142
142
142
111
111
111
244
244
244
219
219
219
174
174
174
116
116
116
235
235
235
253
253
253
156
156
156
159
159
159
157
157
157
88
88
88
230
230
230
212
212
212
103
103
103
48
48
48
201
201
201
176
176
176
101
101
101
154
154
154
172
172
172
209
209
209
212
212
212
249
249
249
227
227
227
218
218
218
142
142
142
249
249
249
239
239
239
254
254
254
249
249
249
235
235
235
226
226
226
247
247
247
148
148
148
243
243
243
239
239
239
232
232
232
242
242
242
47
47
47
247
247
247
224
224
224
200
200
200
226
226
226
190
190
190
234
234
234
234
234
234
189
189
189
169
169
169
246
246
246
180
180
180
243
243
243
193
193
193
245
245
245
234
234
234
207
207
207
33
33
33
122
122
122
200
200
200
205
205
205
202
202
202
197
197
197
220
220
220
158
158
158
145
145
145
94
94
94
170
170
170
146
146
146
223
223
223
200
200
200
142
142
142
174
174
174
253
253
253
220
220
220
164
164
164
125
125
125
211
211
211
90
90
90
242
242
242
210
210
210
107
107
107
178
178
178
233
233
233
205
205
205
225
225
225
182
182
182
189
189
189
228
228
228
215
215
215
253
253
253
213
213
213
216
216
216
230
230
230
244
244
244
226
226
226
254
254
254
152
152
152
242
242
242
230
230
230
214
214
214
195
195
195
253
253
253
228
228
228
228
228
228
116
116
116
211
211
211
141
141
141
125
125
125
160
160
160
181
181
181
138
138
138
141
141
141
181
181
181
88
88
88
197
197
197
217
217
217
200
200
200
232
232
232
234
234
234
203
203
203
254
254
254
186
186
186
225
225
225
173
173
173
215
215
215
219
219
219
209
209
209
87
87
87
137
137
137
40
40
40
114
114
114
245
245
245
174
174
174
101
101
101
190
190
190
126
126
126
247
247
247
218
218
218
221
221
221
236
236
236
122
122
122
171
171
171
233
233
233
167
167
167
204
204
204
254
254
254
242
242
242
147
147
147
67
67
67
249
249
249
242
242
242
207
207
207
117
117
117
246
246
246
169
169
169
181
181
181
196
196
196
144
144
144
211
211
211
193
193
193
243
243
243
217
217
217
156
156
156
177
177
177
246
246
246
206
206
206
158
158
158
195
195
195
224
224
224
202
202
202
186
186
186
184
184
184
219
219
219
192
192
192
224
224
224
164
164
164
198
198
198
169
169
169
227
227
227
52
52
52
229
229
229
246
246
246
241
241
241
214
214
214
241
241
241
93
93
93
249
249
249
114
114
114
225
225
225
246
246
246
230
230
230
250
250
250
248
248
248
220
220
220
152
152
152
219
219
219
202
202
202
240
240
240
240
240
240
135
135
135
227
227
227
140
140
140
214
214
214
252
252
252
183
183
183
246
246
246
116
116
116
225
225
225
230
230
230
186
186
186
240
240
240
59
59
59
243
243
243
213
213
213
103
103
103
248
248
248
254
254
254
211
211
211
145
145
145
231
231
231
246
246
246
182
182
182
218
218
218
218
218
218
214
214
214
151
151
151
244
244
244
229
229
229
129
129
129
123
123
123
117
117
117
122
122
122
141
141
141
224
224
224
107
107
107
227
227
227
151
151
151
228
228
228
253
253
253
155
155
155
198
198
198
178
178
178
221
221
221
252
252
252
231
231
231
203
203
203
251
251
251
148
148
148
153
153
153
253
253
253
198
198
198
203
203
203
194
194
194
170
170
170
252
252
252
192
192
192
176
176
176
176
176
176
180
180
180
232
232
232
248
248
248
190
190
190
221
221
221
186
186
186
238
238
238
227
227
227
164
164
164
123
123
123
57
57
57
155
155
155
242
242
242
160
160
160
162
162
162
221
221
221
232
232
232
254
254
254
229
229
229
190
190
190
225
225
225
203
203
203
185
185
185
215
215
215
170
170
170
45
45
45
179
179
179
224
224
224
229
229
229
200
200
200
222
222
222
185
185
185
244
244
244
115
115
115
229
229
229
242
242
242
237
237
237
142
142
142
225
225
225
165
165
165
210
210
210
88
88
88
214
214
214
216
216
216
162
162
162
221
221
221
253
253
253
250
250
250
125
125
125
136
136
136
210
210
210
171
171
171
246
246
246
163
163
163
249
249
249
167
167
167
236
236
236
197
197
197
125
125
125
147
147
147
87
87
87
192
192
192
237
237
237
185
185
185
203
203
203
222
222
222
228
228
228
119
119
119
248
248
248
242
242
242
237
237
237
223
223
223
205
205
205
143
143
143
143
143
143
245
245
245
172
172
172
216
216
216
224
224
224
194
194
194
216
216
216
243
243
243
176
176
176
195
195
195
190
190
190
183
183
183
221
221
221
250
250
250
169
169
169
220
220
220
164
164
164
166
166
166
58
58
58
107
107
107
224
224
224
102
102
102
118
118
118
224
224
224
216
216
216
134
134
134
228
228
228
195
195
195
199
199
199
232
232
232
134
134
134
254
254
254
181
181
181
233
233
233
213
213
213
192
192
192
217
217
217
227
227
227
173
173
173
234
234
234
215
215
215
225
225
225
180
180
180
189
189
189
209
209
209
206
206
206
159
159
159
195
195
195
244
244
244
162
162
162
188
188
188
234
234
234
222
222
222
176
176
176
162
162
162
226
226
226
249
249
249
251
251
251
217
217
217
205
205
205
182
182
182
247
247
247
86
86
86
221
221
221
186
186
186
168
168
168
247
247
247
135
135
135
156
156
156
219
219
219
204
204
204
249
249
249
241
241
241
181
181
181
212
212
212
206
206
206
230
230
230
115
115
115
232
232
232
26
26
26
252
252
252
223
223
223
232
232
232
112
112
112
160
160
160
83
83
83
228
228
228
224
224
224
238
238
238
251
251
251
170
170
170
75
75
75
223
223
223
191
191
191
176
176
176
252
252
252
228
228
228
132
132
132
52
52
52
43
43
43
252
252
252
85
85
85
223
223
223
234
234
234
235
235
235
221
221
221
233
233
233
38
38
38
246
246
246
174
174
174
210
210
210
240
240
240
253
253
253
219
219
219
223
223
223
167
167
167
165
165
165
155
155
155
199
199
199
239
239
239
179
179
179
227
227
227
250
250
250
191
191
191
235
235
235
250
250
250
176
176
176
246
246
246
240
240
240
209
209
209
240
240
240
55
55
55
99
99
99
241
241
241
227
227
227
234
234
234
209
209
209
88
88
88
253
253
253
212
212
212
239
239
239
164
164
164
236
236
236
236
236
236
222
222
222
198
198
198
243
243
243
236
236
236
236
236
236
236
236
236
191
191
191
189
189
189
111
111
111
224
224
224
238
238
238
221
221
221
239
239
239
173
173
173
71
71
71
115
115
115
130
130
130
152
152
152
203
203
203
229
229
229
207
207
207
240
240
240
158
158
158
179
179
179
203
203
203
244
244
244
191
191
191
221
221
221
65
65
65
234
234
234
204
204
204
211
211
211
173
173
173
242
242
242
186
186
186
251
251
251
207
207
207
249
249
249
207
207
207
226
226
226
232
232
232
244
244
244
184
184
184
206
206
206
119
119
119
119
119
119
251
251
251
178
178
178
84
84
84
152
152
152
182
182
182
170
170
170
217
217
217
247
247
247
213
213
213
239
239
239
210
210
210
189
189
189
151
151
151
186
186
186
254
254
254
160
160
160
208
208
208
135
135
135
194
194
194
236
236
236
170
170
170
85
85
85
127
127
127
214
214
214
175
175
175
237
237
237
228
228
228
224
224
224
222
222
222
249
249
249
187
187
187
239
239
239
205
205
205
214
214
214
213
213
213
226
226
226
152
152
152
250
250
250
109
109
109
197
197
197
193
193
193
235
235
235
185
185
185
117
117
117
163
163
163
221
221
221
232
232
232
227
227
227
70
70
70
204
204
204
230
230
230
239
239
239
233
233
233
232
232
232
138
138
138
181
181
181
171
171
171
223
223
223
228
228
228
216
216
216
87
87
87
106
106
106
200
200
200
220
220
220
146
146
146
221
221
221
224
224
224
111
111
111
249
249
249
212
212
212
219
219
219
173
173
173
119
119
119
157
157
157
190
190
190
226
226
226
250
250
250
191
191
191
182
182
182
183
183
183
70
70
70
236
236
236
141
141
141
60
60
60
183
183
183
247
247
247
246
246
246
246
246
246
156
156
156
229
229
229
254
254
254
248
248
248
246
246
246
142
142
142
213
213
213
154
154
154
180
180
180
126
126
126
156
156
156
252
252
252
203
203
203
77
77
77
178
178
178
130
130
130
239
239
239
195
195
195
127
127
127
234
234
234
220
220
220
197
197
197
208
208
208
127
127
127
150
150
150
254
254
254
221
221
221
249
249
249
198
198
198
89
89
89
164
164
164
194
194
194
162
162
162
212
212
212
141
141
141
231
231
231
195
195
195
129
129
129
221
221
221
203
203
203
179
179
179
201
201
201
181
181
181
220
220
220
252
252
252
129
129
129
184
184
184
225
225
225
134
134
134
87
87
87
207
207
207
197
197
197
132
132
132
241
241
241
43
43
43
115
115
115
146
146
146
224
224
224
241
241
241
190
190
190
189
189
189
134
134
134
225
225
225
249
249
249
195
195
195
244
244
244
148
148
148
236
236
236
238
238
238
170
170
170
215
215
215
243
243
243
229
229
229
253
253
253
235
235
235
237
237
237
171
171
171
249
249
249
130
130
130
175
175
175
122
122
122
222
222
222
204
204
204
191
191
191
239
239
239
216
216
216
223
223
223
218
218
218
246
246
246
55
55
55
231
231
231
244
244
244
235
235
235
233
233
233
192
192
192
231
231
231
68
68
68
224
224
224
219
219
219
253
253
253
142
142
142
238
238
238
226
226
226
155
155
155
242
242
242
238
238
238
212
212
212
240
240
240
214
214
214
209
209
209
191
191
191
125
125
125
179
179
179
245
245
245
175
175
175
144
144
144
190
190
190
236
236
236
210
210
210
182
182
182
169
169
169
247
247
247
181
181
181
144
144
144
193
193
193
195
195
195
115
115
115
186
186
186
242
242
242
126
126
126
235
235
235
253
253
253
149
149
149
144
144
144
181
181
181
180
180
180
252
252
252
191
191
191
223
223
223
249
249
249
236
236
236
231
231
231
245
245
245
172
172
172
201
201
201
154
154
154
198
198
198
196
196
196
200
200
200
153
153
153
234
234
234
251
251
251
200
200
200
242
242
242
251
251
251
216
216
216
141
141
141
107
107
107
205
205
205
217
217
217
249
249
249
230
230
230
149
149
149
183
183
183
153
153
153
134
134
134
183
183
183
230
230
230
189
189
189
223
223
223
247
247
247
154
154
154
239
239
239
188
188
188
212
212
212
204
204
204
188
188
188
141
141
141
229
229
229
220
220
220
208
208
208
98
98
98
169
169
169
147
147
147
220
220
220
249
249
249
252
252
252
217
217
217
162
162
162
156
156
156
219
219
219
92
92
92
193
193
193
237
237
237
169
169
169
223
223
223
169
169
169
218
218
218
197
197
197
251
251
251
215
215
215
239
239
239
170
170
170
133
133
133
210
210
210
201
201
201
209
209
209
211
211
211
210
210
210
181
181
181
214
214
214
181
181
181
236
236
236
193
193
193
246
246
246
247
247
247
173
173
173
123
123
123
155
155
155
122
122
122
226
226
226
173
173
173
242
242
242
112
112
112
194
194
194
254
254
254
136
136
136
136
136
136
140
140
140
178
178
178
81
81
81
190
190
190
211
211
211
211
211
211
239
239
239
183
183
183
242
242
242
128
128
128
179
179
179
197
197
197
118
118
118
227
227
227
137
137
137
216
216
216
137
137
137
224
224
224
71
71
71
215
215
215
192
192
192
217
217
217
232
232
232
236
236
236
123
123
123
71
71
71
216
216
216
115
115
115
157
157
157
180
180
180
249
249
249
92
92
92
186
186
186
245
245
245
241
241
241
246
246
246
237
237
237
229
229
229
125
125
125
193
193
193
223
223
223
218
218
218
254
254
254
192
192
192
179
179
179
98
98
98
158
158
158
233
233
233
243
243
243
248
248
248
159
159
159
101
101
101
224
224
224
231
231
231
248
248
248
240
240
240
240
240
240
214
214
214
227
227
227
186
186
186
168
168
168
201
201
201
212
212
212
58
58
58
166
166
166
205
205
205
177
177
177
97
97
97
235
235
235
250
250
250
160
160
160
82
82
82
44
44
44
238
238
238
165
165
165
195
195
195
203
203
203
104
104
104
185
185
185
82
82
82
250
250
250
152
152
152
219
219
219
123
123
123
48
48
48
253
253
253
110
110
110
220
220
220
107
107
107
219
219
219
119
119
119
185
185
185
204
204
204
230
230
230
159
159
159
244
244
244
201
201
201
218
218
218
69
69
69
185
185
185
201
201
201
198
198
198
214
214
214
112
112
112
250
250
250
179
179
179
244
244
244
247
247
247
89
89
89
173
173
173
226
226
226
154
154
154
233
233
233
173
173
173
131
131
131
241
241
241
169
169
169
67
67
67
245
245
245
244
244
244
184
184
184
141
141
141
139
139
139
198
198
198
101
101
101
251
251
251
178
178
178
226
226
226
182
182
182
243
243
243
187
187
187
198
198
198
75
75
75
150
150
150
82
82
82
237
237
237
108
108
108
245
245
245
79
79
79
128
128
128
93
93
93
243
243
243
189
189
189
232
232
232
228
228
228
104
104
104
250
250
250
241
241
241
222
222
222
241
241
241
239
239
239
212
212
212
253
253
253
184
184
184
218
218
218
198
198
198
160
160
160
224
224
224
205
205
205
165
165
165
234
234
234
251
251
251
184
184
184
225
225
225
245
245
245
236
236
236
163
163
163
236
236
236
160
160
160
123
123
123
218
218
218
251
251
251
242
242
242
143
143
143
248
248
248
200
200
200
222
222
222
249
249
249
209
209
209
191
191
191
166
166
166
226
226
226
209
209
209
190
190
190
211
211
211
191
191
191
253
253
253
206
206
206
132
132
132
111
111
111
152
152
152
200
200
200
252
252
252
243
243
243
191
191
191
219
219
219
247
247
247
214
214
214
164
164
164
246
246
246
232
232
232
171
171
171
201
201
201
150
150
150
227
227
227
187
187
187
234
234
234
161
161
161
208
208
208
236
236
236
253
253
253
222
222
222
254
254
254
217
217
217
239
239
239
166
166
166
197
197
197
168
168
168
139
139
139
148
148
148
251
251
251
253
253
253
243
243
243
105
105
105
67
67
67
204
204
204
251
251
251
31
31
31
155
155
155
240
240
240
163
163
163
186
186
186
122
122
122
252
252
252
215
215
215
193
193
193
126
126
126
192
192
192
203
203
203
149
149
149
105
105
105
207
207
207
183
183
183
237
237
237
139
139
139
131
131
131
113
113
113
178
178
178
243
243
243
158
158
158
229
229
229
206
206
206
251
251
251
142
142
142
170
170
170
198
198
198
231
231
231
196
196
196
183
183
183
207
207
207
254
254
254
233
233
233
239
239
239
243
243
243
192
192
192
248
248
248
191
191
191
80
80
80
165
165
165
