P3
5 4
255
15
163
112
97
78
162
164
179
28
39
135
15
160
137
232
33
149
124
124
62
147
8
102
167
254
130
80
3
41
165
44
91
178
141
149
101
100
19
105
82
162
132
186
100
98
13
244
133
122
190
209
181
143
225
57
45
63
214
104
14
